<?xml version="1.0" encoding="UTF-8"?>
<!DOCTYPE svg PUBLIC "-//W3C//DTD SVG 1.0//EN" "http://www.w3.org/TR/2001/REC-SVG-20010904/DTD/svg10.dtd">
<!-- Creator: CorelDRAW 2020 (64-Bit) -->
<svg xmlns:xlink="http://www.w3.org/1999/xlink" xmlns:xodm="http://www.corel.com/coreldraw/odm/2003"
     xmlns="http://www.w3.org/2000/svg" xml:space="preserve" width="662px" height="1443px"
     version="1.0"
     style="shape-rendering:geometricPrecision; text-rendering:geometricPrecision; image-rendering:optimizeQuality; fill-rule:evenodd; clip-rule:evenodd"
     viewBox="0 0 175.37 382.1">
 <defs>
  <style type="text/css">
   <![CDATA[
    .fil8 {fill:#141515}
    .fil7 {fill:#FEFEFE}
    .fil9 {fill:black;fill-rule:nonzero}
    .fil6 {fill:#141515;fill-rule:nonzero}
    .fil2 {fill:#1D1D1B;fill-rule:nonzero}
    .fil1 {fill:#304B52;fill-rule:nonzero}
    .fil4 {fill:#58737A;fill-rule:nonzero}
    .fil0 {fill:#90A4A8;fill-rule:nonzero}
    .fil5 {fill:#FEFEFE;fill-rule:nonzero}
    .fil3 {fill:white;fill-rule:nonzero}
   ]]>
  </style>
 </defs>
 <g id="Слой_x0020_1">
  <metadata id="CorelCorpID_0Corel-Layer"/>
  <polygon class="fil0" points="4.14,0 118.4,0 118.4,326 157.25,326 157.25,376.58 4.14,376.58 "/>
  <polygon class="fil0" points="122.31,0 0,0 0,81.85 42.35,81.85 42.35,87.36 122.31,87.36 "/>
  <g>
   <path class="fil1"
         d="M0 0l0 0 0 0 0 81.85 42.35 0 0 5.51 79.96 0 0 -87.36 -122.31 0zm120.93 1.38l0 84.6 -77.2 0 0 -4.13 0 -1.38 -1.38 0 -40.97 0 0 -79.09 119.55 0zm-78.58 85.98l78.58 -85.98 -78.58 85.98z"/>
  </g>
  <path class="fil1"
        d="M65.75 308.53l3.25 0 0 -0.46 -3.25 0 0 0.46zm9.74 0l6.5 0 0 -0.46 -6.5 0 0 0.46zm12.99 0l6.5 0 0 -0.46 -6.5 0 0 0.46zm12.99 0l6.5 0 0 -0.46 -6.5 0 0 0.46zm12.99 0l3.25 0 0 -0.46 -3.25 0 0 0.46z"/>
  <path class="fil1"
        d="M6.44 239.56l3.47 0 0 -0.46 -3.47 0 0 0.46zm10.43 0l6.95 0 0 -0.46 -6.95 0 0 0.46zm13.91 0l6.95 0 0 -0.46 -6.95 0 0 0.46zm13.91 0l6.95 0 0 -0.46 -6.95 0 0 0.46zm13.91 0l6.95 0 0 -0.46 -6.95 0 0 0.46zm13.91 0l6.95 0 0 -0.46 -6.95 0 0 0.46zm13.91 0l6.95 0 0 -0.46 -6.95 0 0 0.46zm13.9 0l6.96 0 0 -0.46 -6.96 0 0 0.46zm13.91 0l3.48 0 0 -0.46 -3.48 0 0 0.46z"/>
  <path class="fil1"
        d="M3.68 82.77l-3.68 0 0 3.67 3.68 0 0 -3.67zm0 295.65l-3.68 0 0 3.68 3.68 0 0 -3.68zm114.95 -291.98l3.68 0 0 -3.67 -3.68 0 0 3.67zm0 238.18l-3.68 0 0 3.68 3.68 0 0 -3.68zm38.16 0l3.68 0 0 -3.67 -3.68 0 0 3.67zm0 57.48l3.68 0 0 -3.68 -3.68 0 0 3.68zm-149.43 -295.66l-7.36 0 0 291.98 7.36 0 0 -291.98zm-3.68 3.68l114.95 0 0 -7.35 -114.95 0 0 7.35zm111.27 234.5l7.36 0 0 -238.18 -7.36 0 0 238.18zm3.68 3.68l38.16 0 0 -7.35 -38.16 0 0 7.35zm34.49 4.6l7.35 0 0 -8.28 -7.35 0 0 8.28zm3.67 41.84l-153.11 0 0 7.36 153.11 0 0 -7.36zm-3.67 3.68l7.35 0 0 -16.55 -7.35 0 0 16.55z"/>
  <polygon class="fil1" points="0,90.12 122.31,90.12 122.31,78.17 0,78.17 "/>
  <path class="fil1"
        d="M65.29 292.44l1.84 0 0 -1.84 -1.84 0 0 1.84zm1.84 42.76l-3.68 0 0 39.54 3.68 0 0 -39.54zm0 -42.76l-3.68 0 0 16.09 3.68 0 0 -16.09zm-1.84 -1.84l-57.93 0 0 3.68 57.93 0 0 -3.68z"/>
  <path class="fil2"
        d="M80.55 313.57c-3.83,-2.98 -8.52,-4.73 -13.4,-5 -0.49,-0.02 -0.98,-0.04 -1.47,-0.04l0 0.19c0.49,0 0.98,0 1.45,0.05 4.85,0.26 9.49,1.99 13.3,4.95l0.12 -0.15z"/>
  <polygon class="fil3" points="81.07,313.72 64.81,333.32 66.92,334.89 83.18,315.29 "/>
  <path class="fil2"
        d="M83.18 315.52l-2.41 -1.8 -16.4 19.8 2.41 1.8 16.4 -19.8zm-2.35 -1.27l1.78 1.33 -15.89 19.21 -1.78 -1.33 15.89 -19.21z"/>
  <polygon class="fil0" points="153.12,332.9 160.47,332.9 160.47,362.33 153.12,362.33 "/>
  <path class="fil2"
        d="M172.52 356.52c-4.16,3.24 -9.25,5.14 -14.55,5.43 -0.53,0.03 -1.06,0.04 -1.59,0.04l0 -0.21c0.52,0 1.05,0 1.57,-0.05 5.26,-0.28 10.31,-2.16 14.44,-5.37l0.13 0.16z"/>
  <polygon class="fil3" points="173.08,356.36 155.43,335.08 157.72,333.37 175.37,354.65 "/>
  <path class="fil2"
        d="M175.37 354.41l-2.61 1.95 -17.81 -21.5 2.62 -1.96 17.8 21.51zm-2.54 1.37l1.93 -1.45 -17.26 -20.85 -1.93 1.45 17.26 20.85z"/>
  <path class="fil1"
        d="M55.38 63.13l1.86 -2.33 -0.1 0c-0.54,0 -1.01,-0.2 -1.43,-0.6 -0.41,-0.41 -0.62,-0.91 -0.62,-1.5 0,-0.63 0.21,-1.15 0.63,-1.57 0.42,-0.43 0.96,-0.64 1.62,-0.64 0.65,0 1.19,0.21 1.61,0.64 0.42,0.42 0.63,0.94 0.63,1.56 0,0.31 -0.06,0.59 -0.18,0.84 -0.12,0.24 -0.31,0.53 -0.56,0.86l-2.19 2.74 -1.27 0zm1.08 -3.56c0.24,0.24 0.53,0.35 0.88,0.35 0.35,0 0.64,-0.11 0.86,-0.35 0.24,-0.24 0.35,-0.53 0.35,-0.88 0,-0.34 -0.11,-0.62 -0.35,-0.86 -0.23,-0.24 -0.52,-0.36 -0.86,-0.36 -0.35,0 -0.63,0.12 -0.87,0.36 -0.23,0.24 -0.35,0.52 -0.35,0.86 0,0.35 0.12,0.64 0.34,0.88zm3.45 5.03l0.43 -1.47 -0.56 0 0 -1.32 1.32 0 0 1.33 -0.6 1.46 -0.59 0zm4.42 -1.38c-0.65,0 -1.18,-0.19 -1.61,-0.58 -0.42,-0.39 -0.63,-0.88 -0.63,-1.48 0,-0.76 0.31,-1.31 0.93,-1.65 -0.41,-0.31 -0.61,-0.75 -0.61,-1.3 0,-0.49 0.18,-0.9 0.54,-1.23 0.36,-0.32 0.82,-0.49 1.38,-0.49 0.57,0 1.04,0.17 1.39,0.49 0.36,0.32 0.54,0.73 0.54,1.23 0,0.55 -0.2,0.99 -0.6,1.3 0.62,0.34 0.93,0.89 0.93,1.65 0,0.6 -0.21,1.1 -0.64,1.48 -0.41,0.39 -0.95,0.58 -1.62,0.58zm0 -0.94c0.38,0 0.67,-0.11 0.9,-0.33 0.22,-0.22 0.33,-0.49 0.33,-0.81 0,-0.33 -0.11,-0.6 -0.33,-0.81 -0.23,-0.22 -0.52,-0.33 -0.89,-0.33 -0.37,0 -0.67,0.11 -0.89,0.33 -0.22,0.21 -0.33,0.48 -0.33,0.81 0,0.32 0.11,0.59 0.33,0.81 0.23,0.22 0.52,0.33 0.88,0.33zm0 -3.14c0.29,0 0.51,-0.08 0.68,-0.25 0.18,-0.17 0.27,-0.37 0.27,-0.61 0,-0.25 -0.09,-0.46 -0.26,-0.62 -0.17,-0.16 -0.4,-0.25 -0.69,-0.25 -0.27,0 -0.5,0.09 -0.68,0.25 -0.17,0.17 -0.25,0.37 -0.25,0.62 0,0.24 0.08,0.44 0.26,0.61 0.18,0.17 0.4,0.25 0.67,0.25zm5.33 4.08c-0.65,0 -1.19,-0.19 -1.61,-0.58 -0.42,-0.39 -0.63,-0.88 -0.63,-1.48 0,-0.76 0.3,-1.31 0.92,-1.65 -0.4,-0.31 -0.6,-0.75 -0.6,-1.3 0,-0.49 0.17,-0.9 0.53,-1.23 0.36,-0.32 0.82,-0.49 1.39,-0.49 0.57,0 1.03,0.17 1.39,0.49 0.36,0.32 0.54,0.73 0.54,1.23 0,0.55 -0.2,0.99 -0.61,1.3 0.62,0.34 0.93,0.89 0.93,1.65 0,0.6 -0.21,1.1 -0.63,1.48 -0.42,0.39 -0.96,0.58 -1.62,0.58zm0 -0.94c0.37,0 0.67,-0.11 0.89,-0.33 0.22,-0.22 0.33,-0.49 0.33,-0.81 0,-0.33 -0.11,-0.6 -0.33,-0.81 -0.22,-0.22 -0.51,-0.33 -0.88,-0.33 -0.38,0 -0.67,0.11 -0.89,0.33 -0.22,0.21 -0.34,0.48 -0.34,0.81 0,0.32 0.12,0.59 0.34,0.81 0.22,0.22 0.52,0.33 0.88,0.33zm0 -3.14c0.28,0 0.51,-0.08 0.68,-0.25 0.18,-0.17 0.27,-0.37 0.27,-0.61 0,-0.25 -0.09,-0.46 -0.26,-0.62 -0.17,-0.16 -0.4,-0.25 -0.69,-0.25 -0.28,0 -0.5,0.09 -0.68,0.25 -0.17,0.17 -0.26,0.37 -0.26,0.62 0,0.24 0.09,0.44 0.27,0.61 0.18,0.17 0.4,0.25 0.67,0.25z"/>
  <path class="fil1"
        d="M72.08 182.22l0 -5.52 -1.01 0 0 -1.01 2.02 0 0 6.53 -1.01 0zm3.45 0l-1.14 0 2.99 -5.54 -3.21 0 0 -0.99 4.42 0 0 0.87 -3.06 5.66zm3.03 1.47l0.43 -1.47 -0.56 0 0 -1.32 1.32 0 0 1.33 -0.59 1.46 -0.6 0zm4.43 -1.38c-0.65,0 -1.19,-0.19 -1.61,-0.58 -0.43,-0.39 -0.64,-0.88 -0.64,-1.48 0,-0.76 0.31,-1.31 0.93,-1.65 -0.4,-0.31 -0.61,-0.75 -0.61,-1.3 0,-0.49 0.18,-0.9 0.54,-1.23 0.36,-0.32 0.82,-0.49 1.39,-0.49 0.57,0 1.03,0.17 1.38,0.49 0.37,0.32 0.55,0.73 0.55,1.23 0,0.55 -0.21,0.99 -0.61,1.3 0.62,0.34 0.93,0.89 0.93,1.65 0,0.6 -0.21,1.1 -0.64,1.48 -0.41,0.39 -0.95,0.58 -1.61,0.58zm0 -0.94c0.37,0 0.67,-0.11 0.89,-0.33 0.22,-0.22 0.33,-0.49 0.33,-0.81 0,-0.33 -0.11,-0.6 -0.33,-0.81 -0.22,-0.22 -0.52,-0.33 -0.88,-0.33 -0.38,0 -0.68,0.11 -0.9,0.33 -0.22,0.21 -0.33,0.48 -0.33,0.81 0,0.32 0.11,0.59 0.33,0.81 0.23,0.22 0.52,0.33 0.89,0.33zm0 -3.14c0.28,0 0.5,-0.08 0.68,-0.25 0.17,-0.17 0.26,-0.37 0.26,-0.61 0,-0.25 -0.08,-0.46 -0.25,-0.62 -0.18,-0.16 -0.41,-0.25 -0.69,-0.25 -0.28,0 -0.51,0.09 -0.68,0.25 -0.18,0.17 -0.26,0.37 -0.26,0.62 0,0.24 0.09,0.44 0.26,0.61 0.18,0.17 0.41,0.25 0.68,0.25zm7.24 3.38c-0.44,0.47 -1.01,0.7 -1.7,0.7 -0.69,0 -1.26,-0.23 -1.7,-0.7 -0.44,-0.47 -0.66,-1.07 -0.66,-1.81l0 -1.71c0,-0.73 0.22,-1.33 0.66,-1.8 0.44,-0.47 1.01,-0.71 1.7,-0.71 0.69,0 1.26,0.24 1.7,0.71 0.45,0.47 0.67,1.07 0.67,1.8l0 1.71c0,0.74 -0.22,1.34 -0.67,1.81zm-1.7 -0.29c0.41,0 0.74,-0.13 0.99,-0.4 0.25,-0.27 0.37,-0.64 0.37,-1.12l0 -1.71c0,-0.47 -0.12,-0.84 -0.37,-1.11 -0.25,-0.27 -0.58,-0.4 -0.99,-0.4 -0.4,0 -0.73,0.13 -0.98,0.4 -0.25,0.27 -0.37,0.64 -0.37,1.11l0 1.71c0,0.48 0.12,0.85 0.37,1.12 0.25,0.27 0.58,0.4 0.98,0.4z"/>
  <path class="fil1"
        d="M34.74 264.53l-1.14 0 3 -5.55 -3.21 0 0 -0.98 4.41 0 0 0.86 -3.06 5.67zm3.03 1.47l0.44 -1.47 -0.56 0 0 -1.33 1.32 0 0 1.34 -0.6 1.46 -0.6 0zm6.25 -2.08c-0.44,0.47 -1,0.7 -1.7,0.7 -0.69,0 -1.26,-0.23 -1.7,-0.7 -0.44,-0.47 -0.66,-1.07 -0.66,-1.81l0 -1.71c0,-0.74 0.22,-1.34 0.66,-1.8 0.44,-0.48 1.01,-0.71 1.7,-0.71 0.7,0 1.26,0.23 1.7,0.71 0.45,0.46 0.68,1.06 0.68,1.8l0 1.71c0,0.74 -0.23,1.34 -0.68,1.81zm-1.7 -0.29c0.41,0 0.74,-0.14 0.99,-0.41 0.25,-0.27 0.37,-0.64 0.37,-1.11l0 -1.71c0,-0.47 -0.12,-0.84 -0.37,-1.11 -0.25,-0.27 -0.58,-0.41 -0.99,-0.41 -0.4,0 -0.73,0.14 -0.98,0.41 -0.25,0.27 -0.37,0.64 -0.37,1.11l0 1.71c0,0.47 0.12,0.84 0.37,1.11 0.25,0.27 0.58,0.41 0.98,0.41zm4.15 0.9l0 -5.53 -1.01 0 0 -1 2.02 0 0 6.53 -1.01 0z"/>
  <path class="fil1"
        d="M37.1 333.96l0 -1.64 -3.38 0 0 -0.82 3.49 -4.07 0.9 0 0 3.95 0.87 0 0 0.94 -0.87 0 0 1.64 -1.01 0zm-2.11 -2.58l2.11 0 0 -2.44 -2.11 2.44zm5.03 4.05l0.43 -1.47 -0.56 0 0 -1.33 1.33 0 0 1.34 -0.6 1.46 -0.6 0zm5.95 -2c-0.42,0.41 -0.96,0.62 -1.61,0.62 -0.66,0 -1.2,-0.21 -1.61,-0.62 -0.42,-0.43 -0.63,-0.95 -0.63,-1.58 0,-0.3 0.06,-0.57 0.18,-0.82 0.12,-0.26 0.31,-0.54 0.56,-0.87l2.18 -2.73 1.27 0 -1.84 2.32 0.1 0c0.53,0 1,0.2 1.41,0.6 0.42,0.4 0.62,0.9 0.62,1.49 0,0.63 -0.21,1.16 -0.63,1.59zm-2.49 -0.7c0.24,0.23 0.53,0.35 0.88,0.35 0.35,0 0.64,-0.12 0.87,-0.35 0.23,-0.24 0.35,-0.53 0.35,-0.88 0,-0.33 -0.12,-0.62 -0.36,-0.86 -0.23,-0.24 -0.52,-0.36 -0.86,-0.36 -0.35,0 -0.63,0.12 -0.87,0.36 -0.23,0.24 -0.35,0.53 -0.35,0.86 0,0.35 0.12,0.64 0.34,0.88zm3.86 1.23l0 -0.88 2.54 -2.44c0.48,-0.47 0.72,-0.91 0.72,-1.31 0,-0.28 -0.1,-0.52 -0.3,-0.71 -0.2,-0.21 -0.45,-0.31 -0.75,-0.31 -0.29,0 -0.55,0.1 -0.78,0.3 -0.22,0.19 -0.35,0.44 -0.4,0.73l-0.99 -0.22c0.09,-0.54 0.35,-0.97 0.75,-1.3 0.41,-0.33 0.9,-0.5 1.46,-0.5 0.59,0 1.07,0.18 1.45,0.54 0.38,0.36 0.58,0.83 0.58,1.43 0,0.41 -0.1,0.78 -0.28,1.11 -0.18,0.33 -0.46,0.66 -0.82,1l-1.63 1.57 2.81 0 0 0.99 -4.36 0z"/>
  <path class="fil1"
        d="M102.95 348.3c-0.54,0 -1.04,-0.15 -1.49,-0.45 -0.45,-0.3 -0.73,-0.69 -0.85,-1.17l1 -0.37c0.08,0.3 0.23,0.54 0.47,0.73 0.24,0.18 0.53,0.27 0.87,0.27 0.35,0 0.63,-0.12 0.86,-0.35 0.22,-0.24 0.34,-0.53 0.34,-0.86 0,-0.34 -0.12,-0.62 -0.34,-0.86 -0.23,-0.24 -0.52,-0.36 -0.86,-0.36 -0.5,0 -0.84,0.18 -1.04,0.54l-0.99 0 0 -3.74 3.81 0 0 0.99 -2.8 0 0 1.65c0.29,-0.25 0.68,-0.37 1.16,-0.37 0.62,0 1.13,0.21 1.51,0.63 0.38,0.42 0.57,0.96 0.57,1.62 0,0.61 -0.21,1.12 -0.63,1.52 -0.42,0.39 -0.95,0.58 -1.59,0.58zm3.28 1.38l0.43 -1.47 -0.56 0 0 -1.32 1.32 0 0 1.33 -0.6 1.46 -0.59 0zm5.3 -1.47l0 -1.63 -3.38 0 0 -0.82 3.49 -4.08 0.9 0 0 3.96 0.87 0 0 0.94 -0.87 0 0 1.63 -1.01 0zm-2.11 -2.57l2.11 0 0 -2.45 -2.11 2.45zm5.84 2.57l-1.14 0 3 -5.54 -3.21 0 0 -0.99 4.42 0 0 0.87 -3.07 5.66z"/>
  <path class="fil4"
        d="M91.73 286.92c7.62,0 13.79,-6.18 13.79,-13.8 0,-7.61 -6.17,-13.79 -13.79,-13.79 -7.62,0 -13.79,6.18 -13.79,13.79 0,7.62 6.17,13.8 13.79,13.8z"/>
  <path class="fil3"
        d="M92.06 278.88c-1.77,0 -3.27,-0.61 -4.51,-1.84 -1.24,-1.23 -1.86,-2.74 -1.86,-4.52 0,-1.78 0.62,-3.29 1.86,-4.51 1.24,-1.24 2.74,-1.86 4.51,-1.86 1.19,0 2.27,0.29 3.24,0.85 0.97,0.56 1.74,1.32 2.31,2.28l-1.76 1c-0.89,-1.44 -2.15,-2.17 -3.79,-2.17 -1.22,0 -2.24,0.43 -3.07,1.29 -0.83,0.85 -1.25,1.89 -1.25,3.12 0,1.22 0.42,2.26 1.25,3.12 0.83,0.85 1.85,1.28 3.07,1.28 1.64,0 2.9,-0.72 3.79,-2.17l1.76 1.01c-0.57,0.96 -1.34,1.72 -2.31,2.29 -0.97,0.55 -2.05,0.83 -3.24,0.83z"/>
  <path class="fil1"
        d="M77.48 301.87c-0.53,0 -1.02,-0.15 -1.48,-0.45 -0.45,-0.31 -0.74,-0.7 -0.86,-1.18l1.01 -0.37c0.08,0.3 0.24,0.55 0.48,0.73 0.23,0.18 0.53,0.28 0.87,0.28 0.36,0 0.65,-0.11 0.88,-0.32 0.23,-0.2 0.34,-0.47 0.34,-0.8 0,-0.35 -0.11,-0.63 -0.35,-0.83 -0.23,-0.21 -0.54,-0.32 -0.93,-0.32l-0.81 0 0 -0.82 1.46 -1.57 -2.53 0 0 -0.98 3.87 0 0 0.82 -1.55 1.66c0.58,0.05 1.03,0.27 1.37,0.65 0.33,0.38 0.49,0.84 0.49,1.39 0,0.62 -0.21,1.13 -0.63,1.52 -0.42,0.39 -0.96,0.59 -1.63,0.59zm4.32 -0.1l-1.14 0 2.99 -5.55 -3.21 0 0 -0.98 4.42 0 0 0.86 -3.06 5.67zm3.03 1.47l0.43 -1.47 -0.56 0 0 -1.33 1.32 0 0 1.34 -0.6 1.46 -0.59 0zm4.42 -1.38c-0.64,0 -1.18,-0.19 -1.6,-0.58 -0.43,-0.39 -0.64,-0.89 -0.64,-1.49 0,-0.76 0.31,-1.31 0.93,-1.64 -0.4,-0.32 -0.61,-0.75 -0.61,-1.3 0,-0.5 0.18,-0.91 0.54,-1.23 0.36,-0.33 0.82,-0.49 1.38,-0.49 0.58,0 1.04,0.16 1.39,0.49 0.37,0.32 0.55,0.73 0.55,1.23 0,0.55 -0.21,0.98 -0.61,1.3 0.62,0.33 0.93,0.88 0.93,1.64 0,0.61 -0.21,1.1 -0.64,1.49 -0.41,0.39 -0.95,0.58 -1.62,0.58zm0 -0.95c0.38,0 0.68,-0.11 0.9,-0.33 0.22,-0.22 0.33,-0.49 0.33,-0.81 0,-0.32 -0.11,-0.59 -0.33,-0.81 -0.22,-0.22 -0.52,-0.33 -0.89,-0.33 -0.37,0 -0.67,0.11 -0.89,0.33 -0.22,0.22 -0.33,0.49 -0.33,0.81 0,0.32 0.11,0.59 0.33,0.81 0.23,0.22 0.52,0.33 0.88,0.33zm0 -3.13c0.29,0 0.51,-0.09 0.69,-0.25 0.17,-0.17 0.26,-0.38 0.26,-0.62 0,-0.25 -0.08,-0.45 -0.26,-0.61 -0.17,-0.17 -0.4,-0.25 -0.69,-0.25 -0.27,0 -0.5,0.08 -0.68,0.25 -0.17,0.16 -0.25,0.37 -0.25,0.61 0,0.24 0.09,0.45 0.26,0.62 0.18,0.16 0.41,0.25 0.67,0.25zm4.31 3.99l-1.14 0 3 -5.55 -3.21 0 0 -0.98 4.41 0 0 0.86 -3.06 5.67zm6.04 -4.6l0.88 0 1.62 2.42 1.62 -2.42 0.88 0 0 4.6 -1.01 0 0 -2.89 -1.17 1.76 -0.64 0 -1.17 -1.76 0 2.89 -1.01 0 0 -4.6zm5.95 0.83l0 -0.66 1.55 -1.5c0.23,-0.22 0.35,-0.43 0.35,-0.64 0,-0.13 -0.05,-0.25 -0.15,-0.34 -0.09,-0.1 -0.22,-0.14 -0.37,-0.14 -0.16,0 -0.3,0.05 -0.41,0.15 -0.12,0.11 -0.2,0.24 -0.24,0.41l-0.74 -0.19c0.08,-0.35 0.24,-0.62 0.49,-0.82 0.26,-0.21 0.56,-0.31 0.92,-0.31 0.36,0 0.66,0.11 0.89,0.32 0.24,0.21 0.36,0.5 0.36,0.88 0,0.25 -0.06,0.48 -0.17,0.67 -0.11,0.19 -0.27,0.39 -0.48,0.61l-0.85 0.81 1.55 0 0 0.75 -2.7 0z"/>
  <polygon class="fil5" points="63.45,294.74 45.52,294.74 45.52,307.15 63.45,307.15 "/>
  <path class="fil6"
        d="M63.45 307.15l-18.39 0 0 -12.87 18.39 0 0 12.87zm-17.88 -0.5l17.38 0 0 -11.88 -17.37 0 -0.01 11.88z"/>
  <path class="fil6"
        d="M58.37 308.07l-8.23 0c-0.25,0 -0.48,-0.09 -0.66,-0.26 -0.18,-0.18 -0.28,-0.41 -0.28,-0.66l0.51 0c0,0.06 0.01,0.11 0.03,0.16 0.03,0.05 0.06,0.1 0.1,0.14 0.04,0.03 0.09,0.06 0.14,0.08 0.05,0.02 0.11,0.03 0.16,0.03l8.23 0c0.06,0 0.11,-0.01 0.16,-0.03 0.06,-0.02 0.1,-0.05 0.14,-0.08 0.04,-0.04 0.08,-0.09 0.1,-0.14 0.02,-0.05 0.03,-0.1 0.03,-0.16l0.51 0c0,0.25 -0.1,0.49 -0.28,0.66 -0.17,0.17 -0.41,0.26 -0.66,0.26z"/>
  <path class="fil6"
        d="M52.42 304.85l0.33 -0.59c0.78,-1.38 0.48,-2.39 0.15,-3.46 -0.28,-0.94 -0.58,-1.92 -0.01,-3.1l0.1 -0.2 3.11 1.2 0 4.8 -3.68 1.35zm0.82 -6.72c-0.36,0.9 -0.13,1.66 0.13,2.53 0.29,0.93 0.6,1.98 0.08,3.28l2.15 -0.79 0 -4.11 -2.36 -0.91z"/>
  <path class="fil7"
        d="M15.39 321.87c-3.93,0 -7.11,5.45 -7.11,12.18 0,6.73 3.17,12.19 7.11,12.19 3.95,0 7.14,-5.46 7.14,-12.19 0,-6.73 -3.18,-12.18 -7.14,-12.18z"/>
  <path class="fil6"
        d="M15.39 346.23c4.19,0 7.6,-5.56 7.6,-12.41 0,-6.84 -3.41,-12.41 -7.6,-12.41 -4.2,0 -7.57,5.56 -7.57,12.41 0,6.85 3.39,12.41 7.57,12.41zm0 -24.32c3.91,0 7.08,5.34 7.08,11.91 0,6.57 -3.18,11.91 -7.08,11.91 -3.91,0 -7.06,-5.34 -7.06,-11.91 0,-6.57 3.17,-11.91 7.06,-11.91z"/>
  <path class="fil6"
        d="M15.63 341.64c2.79,0 5.06,-3.61 5.06,-8.05 0,-4.44 -2.27,-8.05 -5.06,-8.05 -2.79,0 -5.05,3.61 -5.05,8.05 0,4.44 2.26,8.05 5.05,8.05zm0 -15.59c2.5,0 4.54,3.38 4.54,7.54 0,4.16 -2.04,7.54 -4.54,7.54 -2.5,0 -4.53,-3.38 -4.53,-7.54 0,-4.16 2.03,-7.54 4.53,-7.54l0 0z"/>
  <path class="fil6"
        d="M17.93 334.74c0.25,0 0.48,-0.1 0.65,-0.27 0.18,-0.17 0.27,-0.41 0.27,-0.65 0,-0.24 -0.09,-0.48 -0.27,-0.65 -0.17,-0.17 -0.4,-0.27 -0.65,-0.27 -0.24,0 -0.48,0.1 -0.65,0.27 -0.17,0.17 -0.27,0.41 -0.27,0.65 0,0.24 0.1,0.48 0.27,0.65 0.17,0.17 0.41,0.27 0.65,0.27zm0 -1.36c0.12,0 0.23,0.05 0.31,0.13 0.08,0.09 0.13,0.2 0.13,0.31 0,0.12 -0.05,0.23 -0.13,0.31 -0.08,0.09 -0.19,0.13 -0.31,0.13 -0.11,0 -0.23,-0.04 -0.31,-0.13 -0.08,-0.08 -0.13,-0.19 -0.13,-0.31 0,-0.11 0.05,-0.22 0.13,-0.31 0.08,-0.08 0.2,-0.13 0.31,-0.13z"/>
  <polygon class="fil5" points="7.36,322.33 8.74,322.33 8.74,344.4 7.36,344.4 "/>
  <path class="fil6" d="M7.36 344.86l1.38 0 0 -22.53 -1.38 0 0 22.53zm1.11 -0.3l-0.84 0 0 -21.93 0.84 0 0 21.93z"/>
  <path class="fil5"
        d="M10.58 329.48l0 7.76c0,0.03 -0.01,0.07 -0.02,0.1 -0.01,0.03 -0.03,0.06 -0.05,0.08 -0.02,0.03 -0.05,0.05 -0.08,0.06 -0.02,0.01 -0.05,0.02 -0.08,0.02 -0.03,0 -0.06,-0.01 -0.09,-0.02 -0.03,-0.01 -0.06,-0.03 -0.08,-0.06 -0.02,-0.02 -0.04,-0.05 -0.05,-0.08 -0.01,-0.03 -0.01,-0.07 -0.01,-0.1l0 -7.76c0,-0.03 0,-0.07 0.01,-0.1 0.01,-0.03 0.03,-0.06 0.05,-0.08 0.02,-0.03 0.05,-0.05 0.08,-0.06 0.03,-0.01 0.06,-0.02 0.09,-0.02 0.06,0 0.12,0.03 0.16,0.08 0.04,0.05 0.07,0.11 0.07,0.18z"/>
  <path class="fil6"
        d="M10.12 337.5c0.06,0 0.12,-0.01 0.17,-0.03 0.06,-0.02 0.11,-0.05 0.15,-0.09 0.04,-0.04 0.08,-0.09 0.1,-0.14 0.02,-0.04 0.04,-0.1 0.04,-0.15l0 -7.91c0,-0.11 -0.05,-0.22 -0.14,-0.3 -0.09,-0.07 -0.2,-0.12 -0.32,-0.12 -0.13,0 -0.24,0.05 -0.33,0.12 -0.09,0.08 -0.13,0.19 -0.13,0.3l0 7.91c0,0.05 0.01,0.11 0.03,0.15 0.02,0.05 0.06,0.1 0.1,0.14 0.04,0.04 0.09,0.07 0.15,0.09 0.06,0.02 0.12,0.03 0.18,0.03zm0 -8.44c0.01,0 0.03,0 0.05,0.01 0.01,0 0.03,0.01 0.04,0.02 0.01,0.01 0.02,0.03 0.03,0.04 0,0.01 0.01,0.03 0.01,0.05l0 7.91c0,0.03 -0.02,0.06 -0.04,0.08 -0.03,0.02 -0.06,0.04 -0.09,0.04 -0.04,0 -0.07,-0.02 -0.1,-0.04 -0.02,-0.02 -0.04,-0.05 -0.04,-0.08l0 -7.91c0,-0.02 0.01,-0.04 0.01,-0.05 0.01,-0.01 0.02,-0.03 0.03,-0.04 0.01,-0.01 0.03,-0.02 0.05,-0.02 0.01,-0.01 0.03,-0.01 0.05,-0.01z"/>
  <path class="fil8"
        d="M7.79 333.82l2.81 0c0.12,0 0.23,-0.05 0.31,-0.13 0.08,-0.09 0.13,-0.21 0.13,-0.33 0,-0.12 -0.05,-0.24 -0.13,-0.32 -0.08,-0.09 -0.19,-0.14 -0.31,-0.14l-2.81 0c-0.11,0 -0.22,0.05 -0.31,0.14 -0.08,0.08 -0.12,0.2 -0.12,0.32 0,0.12 0.04,0.24 0.12,0.33 0.09,0.08 0.2,0.13 0.31,0.13zm2.81 -0.59c0.04,0 0.07,0.01 0.09,0.04 0.02,0.02 0.04,0.06 0.04,0.09 0,0.04 -0.02,0.07 -0.04,0.1 -0.02,0.02 -0.05,0.03 -0.09,0.03l-2.81 0c-0.03,0 -0.06,-0.01 -0.09,-0.03 -0.02,-0.03 -0.03,-0.06 -0.03,-0.1 0,-0.03 0.01,-0.07 0.03,-0.09 0.03,-0.03 0.06,-0.04 0.09,-0.04l2.81 0z"/>
  <path class="fil7"
        d="M10.6 333.23c0.04,0 0.07,0.01 0.09,0.04 0.02,0.02 0.04,0.06 0.04,0.09 0,0.04 -0.02,0.07 -0.04,0.1 -0.02,0.02 -0.05,0.03 -0.09,0.03l-2.81 0c-0.03,0 -0.06,-0.01 -0.09,-0.03 -0.02,-0.03 -0.03,-0.06 -0.03,-0.1 0,-0.03 0.01,-0.07 0.03,-0.09 0.03,-0.03 0.06,-0.04 0.09,-0.04l2.81 0z"/>
  <path class="fil5"
        d="M7.82 314.85l0 -9.45c0,-0.27 0.12,-0.53 0.31,-0.71 0.19,-0.19 0.46,-0.3 0.73,-0.3l15.3 0c2.87,0 4.38,2.97 4.35,5.73 -0.03,4.01 -2.35,5.77 -4.35,5.77l-15.3 -0.03c-0.14,0 -0.27,-0.02 -0.4,-0.07 -0.12,-0.05 -0.24,-0.12 -0.34,-0.22 -0.09,-0.09 -0.17,-0.2 -0.22,-0.33 -0.06,-0.12 -0.08,-0.26 -0.08,-0.39z"/>
  <path class="fil6"
        d="M28.51 309.09l0 2.06c0,2.87 -2.44,5.2 -5.44,5.2l-9.74 0 0 -0.5 9.74 0c2.72,0 4.93,-2.11 4.93,-4.69l0 -2.06c0,-2.57 -2.21,-4.66 -4.93,-4.66l-9.74 0 0 -0.51 9.74 0c3,0 5.44,2.32 5.44,5.16z"/>
  <path class="fil6"
        d="M25.29 310.37c0,0.49 -0.19,0.95 -0.54,1.3 -0.34,0.34 -0.81,0.54 -1.3,0.54 -0.49,-0.01 -0.95,-0.2 -1.29,-0.55 -0.35,-0.34 -0.54,-0.81 -0.55,-1.29 0,-0.49 0.2,-0.96 0.54,-1.3 0.35,-0.34 0.81,-0.54 1.3,-0.54 0.24,0 0.48,0.04 0.71,0.13 0.22,0.1 0.43,0.23 0.6,0.4 0.17,0.17 0.3,0.38 0.4,0.6 0.09,0.23 0.13,0.47 0.13,0.71zm-3.14 0c0,0.34 0.14,0.67 0.38,0.92 0.25,0.24 0.58,0.38 0.92,0.38 0.35,0 0.68,-0.13 0.92,-0.38 0.25,-0.24 0.39,-0.58 0.39,-0.92 0,-0.17 -0.04,-0.34 -0.1,-0.5 -0.07,-0.16 -0.16,-0.31 -0.28,-0.43 -0.12,-0.12 -0.27,-0.21 -0.43,-0.28 -0.16,-0.06 -0.33,-0.1 -0.5,-0.1 -0.34,0 -0.68,0.14 -0.92,0.39 -0.25,0.24 -0.38,0.57 -0.38,0.92z"/>
  <path class="fil6"
        d="M27.13 309.36l0 1.74c0,2.43 -2.03,4.33 -4.63,4.33l-9.17 0 0 -0.52 9.17 0c2.31,0 4.12,-1.67 4.12,-3.8l0 -1.75c0,-2.05 -1.73,-3.54 -4.12,-3.54l-9.17 0 0 -0.51 9.17 0c2.68,0 4.63,1.7 4.63,4.05z"/>
  <path class="fil5"
        d="M13.79 305.42l0 9.87c0,0.14 -0.02,0.27 -0.07,0.4 -0.05,0.13 -0.13,0.25 -0.22,0.35 -0.1,0.1 -0.21,0.17 -0.33,0.23 -0.12,0.05 -0.25,0.08 -0.39,0.08l-3.95 0c-0.14,0 -0.27,-0.03 -0.39,-0.08 -0.13,-0.05 -0.24,-0.13 -0.33,-0.23 -0.1,-0.1 -0.17,-0.21 -0.22,-0.34 -0.05,-0.13 -0.08,-0.27 -0.07,-0.41l0 -9.87c0,-0.14 0.02,-0.27 0.07,-0.4 0.06,-0.13 0.13,-0.24 0.22,-0.34 0.1,-0.09 0.21,-0.17 0.33,-0.22 0.12,-0.05 0.25,-0.07 0.39,-0.07l3.95 0c0.26,0 0.52,0.11 0.71,0.3 0.19,0.19 0.3,0.46 0.3,0.73l0 0z"/>
  <path class="fil6"
        d="M14.25 305.25l0 10.21c0,0.36 -0.14,0.7 -0.39,0.95 -0.25,0.25 -0.58,0.4 -0.94,0.4l-4.23 0c-0.18,0 -0.35,-0.03 -0.51,-0.1 -0.17,-0.07 -0.31,-0.17 -0.44,-0.29 -0.12,-0.13 -0.22,-0.28 -0.29,-0.44 -0.06,-0.17 -0.09,-0.34 -0.09,-0.52l0 -10.21c0,-0.17 0.03,-0.35 0.1,-0.51 0.07,-0.16 0.16,-0.31 0.29,-0.43 0.12,-0.12 0.27,-0.22 0.43,-0.28 0.16,-0.07 0.33,-0.1 0.51,-0.1l4.23 0c0.17,0 0.34,0.03 0.51,0.1 0.16,0.06 0.3,0.16 0.43,0.28 0.12,0.12 0.22,0.27 0.29,0.43 0.07,0.16 0.1,0.34 0.1,0.51zm-6.4 10.21c0,0.11 0.02,0.22 0.06,0.32 0.04,0.11 0.1,0.2 0.18,0.28 0.07,0.08 0.17,0.14 0.27,0.18 0.1,0.05 0.21,0.07 0.32,0.06l4.24 0c0.22,0 0.43,-0.09 0.59,-0.24 0.16,-0.16 0.24,-0.38 0.24,-0.6l0 -10.21c0,-0.22 -0.09,-0.43 -0.25,-0.58 -0.15,-0.15 -0.36,-0.24 -0.58,-0.23l-4.23 0c-0.11,-0.01 -0.22,0.01 -0.32,0.05 -0.1,0.04 -0.19,0.1 -0.27,0.18 -0.08,0.07 -0.14,0.16 -0.18,0.27 -0.04,0.1 -0.07,0.2 -0.07,0.31l0 10.21z"/>
  <path class="fil8"
        d="M67.59 135.86c0,2.07 -0.52,4.11 -1.53,5.92 -1,1.81 -2.46,3.34 -4.21,4.44 -1.76,1.09 -3.77,1.72 -5.84,1.82 -2.07,0.11 -4.13,-0.32 -5.99,-1.24 -1.86,-0.92 -3.45,-2.29 -4.63,-4 -1.18,-1.7 -1.91,-3.68 -2.11,-5.74 -0.2,-2.07 0.12,-4.15 0.95,-6.05 0.82,-1.9 2.12,-3.56 3.76,-4.82 2.58,-1.96 5.82,-2.82 9.02,-2.39 3.2,0.42 6.11,2.1 8.07,4.67 1.64,2.11 2.52,4.71 2.51,7.39zm-23.77 0.03c0,1.84 0.44,3.65 1.28,5.29 0.85,1.63 2.07,3.05 3.56,4.12 1.5,1.07 3.23,1.77 5.05,2.04 1.82,0.27 3.68,0.1 5.42,-0.49 1.74,-0.6 3.32,-1.59 4.6,-2.91 1.28,-1.33 2.23,-2.93 2.76,-4.69 0.54,-1.76 0.65,-3.63 0.32,-5.44 -0.32,-1.81 -1.07,-3.52 -2.19,-4.98 -1.47,-1.94 -3.51,-3.36 -5.83,-4.07 -2.32,-0.71 -4.81,-0.67 -7.11,0.11 -2.3,0.78 -4.3,2.26 -5.71,4.24 -1.41,1.98 -2.16,4.35 -2.15,6.78z"/>
  <path class="fil7"
        d="M43.82 135.89c0,1.84 0.44,3.65 1.28,5.29 0.85,1.63 2.07,3.05 3.56,4.12 1.5,1.07 3.23,1.77 5.05,2.04 1.82,0.26 3.68,0.1 5.42,-0.49 1.74,-0.6 3.32,-1.59 4.6,-2.91 1.28,-1.33 2.23,-2.93 2.76,-4.69 0.54,-1.77 0.65,-3.63 0.32,-5.44 -0.32,-1.81 -1.07,-3.52 -2.19,-4.98 -1.47,-1.94 -3.51,-3.36 -5.83,-4.07 -2.32,-0.71 -4.81,-0.67 -7.11,0.11 -2.3,0.78 -4.3,2.26 -5.71,4.24 -1.41,1.98 -2.16,4.35 -2.15,6.78z"/>
  <path class="fil5"
        d="M8.99 106.22l23.37 0c0.66,0 1.21,0.59 1.21,1.31l0 27.29c0,0.68 -0.54,1.28 -1.21,1.28l-23.37 0c-0.63,0 -1.17,-0.6 -1.17,-1.28l0 -27.29c0,-0.71 0.51,-1.31 1.17,-1.31z"/>
  <path class="fil6"
        d="M33.57 107.36l0 27.17c0,0.85 -0.69,1.57 -1.5,1.57l-23.25 0c-0.79,0 -1.46,-0.72 -1.46,-1.57l0 -27.17c0,-0.89 0.65,-1.6 1.46,-1.6l23.25 0c0.82,-0.01 1.5,0.71 1.5,1.6zm-25.61 27.17c0,0.52 0.4,0.98 0.86,0.98l23.25 0c0.25,-0.02 0.49,-0.13 0.65,-0.31 0.17,-0.19 0.26,-0.43 0.25,-0.67l0 -27.17c0,-0.55 -0.41,-1.01 -0.9,-1.01l-23.25 0c-0.48,0 -0.86,0.45 -0.86,1.01l0 27.17z"/>
  <path class="fil5"
        d="M9 105.76l2.2 0c0.67,0 1.21,0.59 1.21,1.31l0 27.26c0,0.71 -0.54,1.31 -1.21,1.31l-2.2 0c-0.67,0 -1.18,-0.59 -1.18,-1.31l0 -27.26c0,-0.71 0.51,-1.31 1.18,-1.31z"/>
  <path class="fil6"
        d="M12.41 107.36l0 27.14c0,0.89 -0.66,1.6 -1.47,1.6l-2.14 0c-0.8,0 -1.44,-0.71 -1.44,-1.6l0 -27.14c0,-0.89 0.64,-1.6 1.44,-1.6l2.14 0c0.81,-0.01 1.47,0.71 1.47,1.6zm-4.46 27.14c0,0.56 0.38,1.01 0.85,1.01l2.14 0c0.48,0 0.88,-0.46 0.88,-1.01l0 -27.14c0,-0.55 -0.4,-1.01 -0.88,-1.01l-2.14 0c-0.47,0 -0.85,0.45 -0.85,1.01l0 27.14z"/>
  <path class="fil5"
        d="M12.41 109.85l0 -2.67c0,-0.77 0.43,-1.42 0.97,-1.42l20.57 0c0.54,0 1,0.65 1,1.42l0 2.67c0,0.77 -0.46,1.42 -1,1.42l-20.57 0c-0.54,0 -0.97,-0.65 -0.97,-1.42z"/>
  <path class="fil6"
        d="M34.95 107.45l0 2.59c0,0.94 -0.58,1.69 -1.29,1.69l-20.45 0c-0.71,0 -1.25,-0.74 -1.25,-1.69l0 -2.59c0,-0.95 0.55,-1.69 1.25,-1.69l20.45 0c0.71,0 1.29,0.75 1.29,1.69zm-22.4 2.59c0,0.59 0.3,1.09 0.66,1.09l20.45 0c0.36,0 0.69,-0.51 0.69,-1.09l0 -2.59c0,-0.58 -0.33,-1.09 -0.69,-1.09l-20.45 0c-0.36,0 -0.66,0.5 -0.66,1.09l0 2.59z"/>
  <path class="fil5"
        d="M8.99 165.53l23.37 0c0.16,-0.01 0.33,-0.04 0.47,-0.11 0.15,-0.07 0.29,-0.17 0.4,-0.28 0.11,-0.12 0.2,-0.26 0.26,-0.42 0.05,-0.15 0.08,-0.31 0.08,-0.48l0 -27.31c0,-0.16 -0.03,-0.33 -0.08,-0.48 -0.06,-0.15 -0.15,-0.29 -0.26,-0.41 -0.11,-0.12 -0.25,-0.22 -0.39,-0.29 -0.15,-0.06 -0.32,-0.1 -0.48,-0.11l-23.37 0c-0.66,0 -1.17,0.57 -1.17,1.29l0 27.31c0,0.72 0.51,1.29 1.17,1.29z"/>
  <path class="fil6"
        d="M33.57 137.22l0 27.19c0.01,0.41 -0.14,0.8 -0.43,1.1 -0.28,0.29 -0.66,0.47 -1.07,0.48l-23.25 0c-0.82,0 -1.46,-0.69 -1.46,-1.58l0 -27.19c0,-0.89 0.64,-1.58 1.46,-1.58l23.25 0c0.41,0.02 0.8,0.19 1.08,0.49 0.28,0.29 0.43,0.69 0.42,1.09zm-25.61 27.19c0,0.55 0.38,0.99 0.86,0.99l23.25 0c0.25,-0.02 0.49,-0.13 0.66,-0.31 0.16,-0.19 0.25,-0.43 0.24,-0.68l0 -27.19c0.01,-0.25 -0.08,-0.49 -0.24,-0.67 -0.17,-0.19 -0.41,-0.3 -0.66,-0.31l-23.25 0c-0.48,0 -0.86,0.43 -0.86,0.98l0 27.19z"/>
  <path class="fil5"
        d="M9 165.53l2.23 0c0.67,0 1.18,-0.57 1.18,-1.29l0 -27.31c0,-0.72 -0.51,-1.29 -1.18,-1.29l-2.23 0c-0.67,0 -1.18,0.57 -1.18,1.29l0 27.32c0,0.71 0.51,1.28 1.18,1.28l0 0z"/>
  <path class="fil6"
        d="M12.41 137.22l0 27.19c0,0.89 -0.63,1.58 -1.44,1.58l-2.16 0c-0.82,0 -1.45,-0.69 -1.45,-1.58l0 -27.19c0,-0.89 0.63,-1.58 1.45,-1.58l2.16 0c0.81,0 1.44,0.69 1.44,1.58zm-4.46 27.19c0,0.55 0.37,0.99 0.86,0.99l2.16 0c0.48,0 0.85,-0.44 0.85,-0.99l0 -27.19c0,-0.55 -0.37,-0.98 -0.85,-0.98l-2.16 0c-0.49,0 -0.86,0.43 -0.86,0.98l0 27.19z"/>
  <path class="fil5"
        d="M12.41 161.79l0 2.43c0,0.74 0.46,1.31 1,1.31l20.57 0c0.54,0 0.97,-0.57 0.97,-1.31l0 -2.43c0,-0.74 -0.43,-1.32 -0.97,-1.32l-20.57 0c-0.54,0 -1,0.58 -1,1.32z"/>
  <path class="fil6"
        d="M34.95 161.71l0 2.58c0,0.97 -0.54,1.7 -1.26,1.7l-20.45 0c-0.72,0 -1.28,-0.75 -1.28,-1.7l0 -2.58c0,-0.95 0.56,-1.7 1.28,-1.7l20.45 0c0.71,0 1.26,0.73 1.26,1.7zm-22.4 2.58c0,0.59 0.32,1.09 0.69,1.09l20.45 0c0.36,0 0.66,-0.49 0.66,-1.09l0 -2.58c0,-0.6 -0.3,-1.09 -0.66,-1.09l-20.45 0c-0.37,0 -0.69,0.5 -0.69,1.09l0 2.58z"/>
  <polygon class="fil5" points="108.51,163.23 114.95,163.23 114.95,108.06 108.51,108.06 "/>
  <path class="fil8"
        d="M114.95 108.06l0 55.63 -6.86 0 0 -12.48 0 -0.81 0 -30.13 0 -0.72 0 -11.49 6.86 0zm-0.59 0.6l-5.68 0 0 54.44 5.68 0 0 -54.44z"/>
  <polygon class="fil8"
           points="106.96,119.09 108.09,120.27 108.09,119.55 107.17,118.59 105.76,118.59 105.76,152.36 107.18,152.36 108.09,151.21 108.09,150.4 106.94,151.85 106.25,151.85 106.25,119.09 "/>
  <polygon class="fil7" points="106.96,119.09 106.25,119.09 106.25,151.85 106.94,151.85 108.09,150.4 108.09,120.27 "/>
  <path class="fil9"
        d="M7.82 272.67l17.47 0 0 -36.33 -17.47 0 0 36.33zm17.93 -0.46l0 -35.41 -18.39 0 0 35.41 18.39 0z"/>
  <path class="fil8"
        d="M49.66 290.6l0 -0.6 -0.45 0 -41.42 0 -0.43 0 0 0.6 42.3 0zm0 -17.8l0 -0.59 -42.3 0 0 0.59 0.43 0 41.42 0 0.45 0z"/>
  <path class="fil8" d="M49.66 272.8l-0.45 0 0 17.2 0.45 0 0 -17.2zm-42.3 17.2l0.43 0 0 -17.2 -0.43 0 0 17.2z"/>
  <polygon class="fil7" points="49.21,272.8 7.79,272.8 7.79,290 49.21,290 "/>
  <path class="fil5"
        d="M28.93 276.35l-10.49 0c-0.13,-0.01 -0.25,0.01 -0.37,0.05 -0.11,0.04 -0.22,0.11 -0.31,0.19 -0.09,0.09 -0.16,0.19 -0.21,0.3 -0.05,0.11 -0.07,0.23 -0.08,0.35l0 9.21c0,0.12 0.03,0.25 0.08,0.36 0.05,0.11 0.12,0.22 0.21,0.3 0.09,0.09 0.2,0.16 0.31,0.2 0.12,0.05 0.24,0.07 0.37,0.07l10.49 0c0.25,0 0.49,-0.1 0.67,-0.27 0.17,-0.18 0.28,-0.41 0.29,-0.66l0 -9.2c-0.01,-0.25 -0.12,-0.48 -0.3,-0.65 -0.18,-0.17 -0.42,-0.26 -0.66,-0.25l0 0z"/>
  <path class="fil6"
        d="M10.58 286.62l0 -9.09c0,-0.16 0.03,-0.32 0.1,-0.46 0.06,-0.15 0.15,-0.28 0.27,-0.39 0.12,-0.11 0.25,-0.2 0.4,-0.26 0.15,-0.05 0.31,-0.08 0.47,-0.08l10.38 0c0.33,0 0.64,0.12 0.87,0.34 0.24,0.22 0.37,0.53 0.38,0.85l0 9.09c-0.01,0.33 -0.14,0.64 -0.37,0.86 -0.24,0.23 -0.55,0.36 -0.88,0.36l-10.38 0c-0.32,0 -0.64,-0.12 -0.87,-0.35 -0.24,-0.23 -0.37,-0.54 -0.37,-0.87zm12.28 -9.09c-0.01,-0.16 -0.09,-0.32 -0.21,-0.43 -0.12,-0.11 -0.28,-0.17 -0.45,-0.16l-10.38 0c-0.08,-0.01 -0.17,0 -0.24,0.03 -0.08,0.03 -0.15,0.07 -0.21,0.13 -0.06,0.05 -0.11,0.12 -0.15,0.19 -0.03,0.08 -0.05,0.16 -0.05,0.24l0 9.09c0,0.09 0.02,0.17 0.05,0.25 0.03,0.07 0.08,0.14 0.14,0.2 0.06,0.06 0.13,0.11 0.21,0.14 0.08,0.03 0.17,0.04 0.25,0.04l10.38 0c0.17,0 0.34,-0.07 0.46,-0.18 0.12,-0.12 0.19,-0.28 0.2,-0.45l0 -9.09z"/>
  <path class="fil6"
        d="M11.96 285.08c0,-0.24 0.1,-0.47 0.27,-0.65 0.17,-0.17 0.4,-0.27 0.64,-0.27 0.25,0.01 0.48,0.11 0.65,0.28 0.17,0.17 0.27,0.4 0.27,0.64 0,0.24 -0.1,0.48 -0.27,0.65 -0.17,0.17 -0.4,0.27 -0.65,0.27 -0.12,0 -0.24,-0.02 -0.35,-0.07 -0.11,-0.04 -0.21,-0.11 -0.3,-0.2 -0.08,-0.08 -0.15,-0.18 -0.2,-0.3 -0.04,-0.11 -0.07,-0.23 -0.06,-0.35zm1.28 0c-0.01,-0.09 -0.05,-0.18 -0.12,-0.25 -0.06,-0.06 -0.15,-0.1 -0.25,-0.11 -0.09,0 -0.18,0.04 -0.25,0.11 -0.07,0.06 -0.11,0.16 -0.11,0.25 0,0.05 0.01,0.1 0.03,0.14 0.01,0.05 0.04,0.09 0.08,0.12 0.03,0.03 0.07,0.06 0.11,0.08 0.05,0.02 0.1,0.02 0.14,0.02 0.1,0 0.19,-0.04 0.26,-0.1 0.07,-0.07 0.11,-0.16 0.11,-0.26l0 0z"/>
  <path class="fil6"
        d="M8.74 287.8l0 -11.39c0,-0.81 0.88,-1.44 2,-1.44l18.52 0c1.13,0 2.01,0.63 2.01,1.44l0 11.39c0,0.8 -0.88,1.42 -2.01,1.42l-18.52 0c-1.12,0 -2,-0.62 -2,-1.42zm21.93 -11.39c0,-0.46 -0.64,-0.84 -1.41,-0.84l-18.52 0c-0.76,0 -1.41,0.38 -1.41,0.84l0 11.39c0,0.39 0.58,0.82 1.41,0.82l18.52 0c0.83,0 1.41,-0.43 1.41,-0.82l0 -11.39z"/>
  <polygon class="fil6" points="29.89,276.34 23.91,276.34 23.91,276.8 29.89,276.8 "/>
  <polygon class="fil6" points="29.89,286.46 23.91,286.46 23.91,286.92 29.89,286.92 "/>
  <polygon class="fil6" points="29.89,281.4 23.91,281.4 23.91,281.86 29.89,281.86 "/>
  <polygon class="fil6" points="29.89,277.72 23.91,277.72 23.91,278.18 29.89,278.18 "/>
  <polygon class="fil6" points="29.89,279.56 23.91,279.56 23.91,280.02 29.89,280.02 "/>
  <polygon class="fil6" points="29.89,282.78 23.91,282.78 23.91,283.24 29.89,283.24 "/>
  <polygon class="fil6" points="29.89,284.62 23.91,284.62 23.91,285.08 29.89,285.08 "/>
  <polygon class="fil6" points="67.03,272.8 50.1,268.51 50.2,268.07 67.13,272.36 "/>
  <path class="fil8"
        d="M66.98 272.21l-17.93 0 0 18.39 17.93 0 0 -18.39zm-17.35 0.59l16.77 0 0 17.2 -16.78 0 0.01 -17.2z"/>
  <polygon class="fil7" points="49.63,272.8 66.4,272.8 66.4,290 49.62,290 "/>
  <polygon class="fil6" points="58.15,284.29 57.71,284.29 57.71,278.88 58.15,278.88 "/>
  <polygon class="fil6" points="60.84,281.58 55.47,281.58 55.47,281.13 60.84,281.13 "/>
  <polygon class="fil6" points="56.23,283.25 55.91,282.93 59.69,279.08 60,279.4 "/>
  <polygon class="fil6" points="59.69,283.63 55.91,279.78 56.23,279.46 60,283.31 "/>
  <path class="fil8"
        d="M140.24 356.35l0 18.39 -73.11 0 0 -18.39 73.11 0zm-0.6 17.81l0 -17.22 -71.91 0 0 17.22 71.91 0z"/>
  <polygon class="fil7" points="139.64,374.16 139.64,356.94 67.73,356.94 67.73,374.16 "/>
  <polygon class="fil6" points="67.59,365.09 67.59,365.55 139.78,365.55 139.78,365.09 "/>
  <path class="fil8"
        d="M80.01 359.04l0 12.56c-0.01,0.22 -0.1,0.43 -0.28,0.59 -0.17,0.16 -0.4,0.25 -0.64,0.25 -0.12,0.01 -0.24,-0.02 -0.36,-0.06 -0.11,-0.04 -0.21,-0.1 -0.3,-0.18 -0.08,-0.08 -0.15,-0.17 -0.19,-0.28 -0.05,-0.1 -0.07,-0.21 -0.07,-0.32l0 -12.56c0,-0.12 0.02,-0.23 0.07,-0.33 0.04,-0.1 0.11,-0.2 0.19,-0.27 0.09,-0.08 0.19,-0.15 0.3,-0.19 0.12,-0.04 0.24,-0.06 0.36,-0.06 0.24,0 0.47,0.09 0.64,0.25 0.18,0.16 0.27,0.37 0.28,0.6zm-1.62 12.56c0,0.08 0.02,0.17 0.06,0.24 0.03,0.08 0.08,0.15 0.15,0.21 0.06,0.06 0.14,0.11 0.22,0.14 0.09,0.03 0.18,0.05 0.27,0.04 0.18,0 0.36,-0.07 0.48,-0.18 0.13,-0.12 0.21,-0.28 0.21,-0.45l0 -12.56c0,-0.17 -0.07,-0.33 -0.2,-0.45 -0.13,-0.12 -0.31,-0.19 -0.49,-0.19 -0.09,0 -0.18,0.01 -0.27,0.05 -0.08,0.03 -0.16,0.07 -0.22,0.13 -0.07,0.06 -0.12,0.13 -0.15,0.21 -0.04,0.08 -0.06,0.16 -0.06,0.25l0 12.56z"/>
  <path class="fil7"
        d="M78.39 371.6c0,0.08 0.02,0.17 0.06,0.24 0.03,0.08 0.08,0.15 0.15,0.21 0.06,0.06 0.14,0.11 0.22,0.14 0.09,0.03 0.18,0.05 0.27,0.04 0.18,0 0.36,-0.07 0.48,-0.18 0.13,-0.12 0.21,-0.28 0.21,-0.45l0 -12.56c0,-0.17 -0.07,-0.33 -0.2,-0.45 -0.13,-0.12 -0.31,-0.19 -0.49,-0.19 -0.09,0 -0.18,0.01 -0.27,0.05 -0.08,0.03 -0.16,0.07 -0.22,0.13 -0.07,0.06 -0.12,0.13 -0.15,0.21 -0.04,0.08 -0.06,0.16 -0.06,0.25l0 12.56z"/>
  <polygon class="fil6" points="78.63,366.93 79.09,366.93 79.09,363.25 78.63,363.25 "/>
  <path class="fil8"
        d="M84.6 359.06c0,0.06 0,0.12 -0.01,0.18l-2.48 12.5c-0.05,0.24 -0.18,0.44 -0.38,0.58 -0.08,0.05 -0.18,0.09 -0.28,0.11 -0.1,0.02 -0.21,0.02 -0.31,-0.01 -0.19,-0.03 -0.36,-0.14 -0.48,-0.29 -0.12,-0.16 -0.19,-0.35 -0.19,-0.55 0,-0.06 0,-0.12 0.02,-0.18l2.47 -12.5c0.05,-0.23 0.17,-0.43 0.36,-0.57 0.09,-0.06 0.2,-0.1 0.31,-0.13 0.1,-0.02 0.22,-0.01 0.32,0.01 0.19,0.04 0.35,0.15 0.47,0.31 0.12,0.15 0.18,0.34 0.18,0.54zm-3.93 12.53c0,0.15 0.06,0.3 0.15,0.41 0.1,0.12 0.23,0.2 0.37,0.23 0.08,0.01 0.15,0.01 0.23,0 0.07,-0.01 0.14,-0.04 0.21,-0.08 0.07,-0.05 0.13,-0.12 0.18,-0.2 0.05,-0.07 0.09,-0.16 0.11,-0.25l2.47 -12.5c0.01,-0.05 0.02,-0.09 0.02,-0.14 0,-0.15 -0.05,-0.29 -0.14,-0.41 -0.09,-0.12 -0.22,-0.2 -0.36,-0.23 -0.08,-0.02 -0.16,-0.02 -0.24,0 -0.08,0.01 -0.16,0.05 -0.23,0.09 -0.14,0.1 -0.24,0.26 -0.28,0.43l-2.47 12.51c-0.01,0.04 -0.02,0.09 -0.02,0.14z"/>
  <path class="fil7"
        d="M80.67 371.59c0,0.15 0.06,0.3 0.15,0.41 0.1,0.12 0.23,0.2 0.37,0.23 0.08,0.01 0.15,0.01 0.23,0 0.07,-0.01 0.14,-0.04 0.21,-0.08 0.07,-0.05 0.13,-0.12 0.18,-0.2 0.05,-0.07 0.09,-0.16 0.11,-0.25l2.47 -12.5c0.01,-0.05 0.02,-0.09 0.02,-0.14 0,-0.15 -0.05,-0.29 -0.14,-0.41 -0.09,-0.12 -0.22,-0.2 -0.36,-0.23 -0.08,-0.02 -0.16,-0.02 -0.24,0 -0.08,0.01 -0.16,0.05 -0.23,0.09 -0.14,0.1 -0.24,0.26 -0.28,0.43l-2.47 12.51c-0.01,0.04 -0.02,0.09 -0.02,0.14z"/>
  <polygon class="fil6" points="83.22,363.37 82.48,366.93 81.85,366.81 82.59,363.25 "/>
  <path class="fil8"
        d="M108.05 371.58c0,0.2 -0.07,0.39 -0.19,0.55 -0.12,0.15 -0.29,0.26 -0.48,0.29 -0.1,0.03 -0.21,0.03 -0.31,0.01 -0.1,-0.02 -0.19,-0.06 -0.28,-0.11 -0.1,-0.07 -0.18,-0.15 -0.25,-0.25 -0.06,-0.1 -0.11,-0.21 -0.13,-0.33l-2.47 -12.51c-0.02,-0.05 -0.02,-0.12 -0.02,-0.18 0,-0.19 0.06,-0.38 0.18,-0.53 0.12,-0.16 0.28,-0.26 0.47,-0.31 0.1,-0.02 0.22,-0.03 0.33,-0.01 0.11,0.03 0.21,0.07 0.3,0.13 0.19,0.14 0.31,0.34 0.36,0.56l2.48 12.51c0.01,0.06 0.01,0.12 0.01,0.18zm-3.93 -12.53c0,0.05 0.01,0.09 0.01,0.14l2.48 12.51c0.04,0.18 0.14,0.34 0.29,0.44 0.06,0.04 0.13,0.07 0.21,0.08 0.07,0.02 0.15,0.02 0.22,0 0.17,-0.04 0.31,-0.14 0.41,-0.28 0.09,-0.15 0.13,-0.33 0.1,-0.5l-2.48 -12.51c-0.03,-0.17 -0.13,-0.32 -0.27,-0.42 -0.07,-0.05 -0.15,-0.09 -0.23,-0.1 -0.08,-0.02 -0.17,-0.02 -0.25,0 -0.14,0.04 -0.26,0.12 -0.35,0.23 -0.09,0.12 -0.14,0.26 -0.14,0.41z"/>
  <path class="fil7"
        d="M104.12 359.05c0,0.05 0.01,0.09 0.01,0.14l2.48 12.51c0.04,0.18 0.14,0.34 0.29,0.44 0.06,0.04 0.13,0.07 0.21,0.08 0.07,0.02 0.15,0.02 0.22,0 0.17,-0.03 0.31,-0.14 0.41,-0.28 0.09,-0.15 0.13,-0.33 0.1,-0.5l-2.48 -12.51c-0.03,-0.17 -0.13,-0.32 -0.27,-0.42 -0.07,-0.05 -0.15,-0.09 -0.23,-0.1 -0.08,-0.02 -0.17,-0.02 -0.25,0 -0.14,0.04 -0.26,0.12 -0.35,0.23 -0.09,0.12 -0.14,0.26 -0.14,0.41z"/>
  <path class="fil8"
        d="M131.96 371.58c0,0.2 -0.07,0.39 -0.19,0.55 -0.12,0.15 -0.29,0.26 -0.48,0.29 -0.1,0.03 -0.21,0.03 -0.31,0.01 -0.1,-0.02 -0.19,-0.06 -0.28,-0.11 -0.1,-0.07 -0.18,-0.15 -0.25,-0.25 -0.06,-0.1 -0.11,-0.21 -0.13,-0.33l-2.47 -12.51c-0.02,-0.05 -0.02,-0.12 -0.02,-0.18 0,-0.19 0.06,-0.38 0.18,-0.53 0.12,-0.16 0.28,-0.26 0.47,-0.31 0.1,-0.02 0.22,-0.03 0.33,-0.01 0.11,0.03 0.21,0.07 0.3,0.13 0.19,0.14 0.31,0.34 0.36,0.56l2.48 12.51c0.01,0.06 0.01,0.12 0.01,0.18zm-3.93 -12.53c0,0.05 0.01,0.09 0.01,0.14l2.48 12.51c0.04,0.18 0.14,0.34 0.29,0.44 0.06,0.04 0.13,0.07 0.21,0.08 0.07,0.02 0.15,0.02 0.22,0 0.17,-0.04 0.31,-0.14 0.41,-0.28 0.09,-0.15 0.13,-0.33 0.1,-0.5l-2.48 -12.51c-0.03,-0.17 -0.13,-0.32 -0.27,-0.42 -0.07,-0.05 -0.15,-0.09 -0.23,-0.1 -0.08,-0.02 -0.17,-0.02 -0.25,0 -0.14,0.04 -0.26,0.12 -0.35,0.23 -0.09,0.12 -0.14,0.26 -0.14,0.41z"/>
  <path class="fil7"
        d="M128.03 359.05c0,0.05 0.01,0.09 0.01,0.14l2.48 12.51c0.04,0.18 0.14,0.34 0.29,0.44 0.06,0.04 0.13,0.07 0.21,0.08 0.07,0.02 0.15,0.02 0.22,0 0.17,-0.03 0.31,-0.14 0.41,-0.28 0.09,-0.15 0.13,-0.33 0.1,-0.5l-2.48 -12.51c-0.03,-0.17 -0.13,-0.32 -0.27,-0.42 -0.07,-0.05 -0.15,-0.09 -0.23,-0.1 -0.08,-0.02 -0.17,-0.02 -0.25,0 -0.14,0.04 -0.26,0.12 -0.35,0.23 -0.09,0.12 -0.14,0.26 -0.14,0.41z"/>
  <polygon class="fil6" points="105.46,363.79 106.22,367.39 106.67,367.29 105.91,363.69 "/>
  <polygon class="fil6" points="129.37,363.79 130.13,367.39 130.58,367.29 129.82,363.69 "/>
  <path class="fil8"
        d="M91.5 359l0 12.56c0.01,0.11 -0.01,0.23 -0.06,0.34 -0.04,0.1 -0.11,0.2 -0.19,0.28 -0.09,0.09 -0.19,0.15 -0.31,0.2 -0.11,0.04 -0.23,0.06 -0.36,0.06 -0.12,0 -0.25,-0.02 -0.36,-0.06 -0.11,-0.05 -0.22,-0.11 -0.3,-0.2 -0.09,-0.08 -0.16,-0.18 -0.2,-0.28 -0.04,-0.11 -0.06,-0.23 -0.06,-0.34l0 -12.56c0.01,-0.22 0.12,-0.43 0.29,-0.58 0.17,-0.15 0.4,-0.23 0.63,-0.23 0.24,0 0.47,0.08 0.64,0.23 0.17,0.15 0.27,0.36 0.28,0.58zm-1.61 12.56c0.01,0.16 0.09,0.32 0.21,0.43 0.13,0.11 0.3,0.17 0.48,0.17 0.18,0 0.35,-0.06 0.48,-0.17 0.13,-0.11 0.21,-0.27 0.21,-0.43l0 -12.56c0,-0.17 -0.08,-0.32 -0.21,-0.43 -0.13,-0.12 -0.3,-0.18 -0.48,-0.18 -0.18,0 -0.35,0.06 -0.48,0.18 -0.12,0.11 -0.2,0.26 -0.21,0.43l0 12.56z"/>
  <path class="fil7"
        d="M89.89 371.56c0.01,0.16 0.09,0.32 0.21,0.43 0.13,0.11 0.3,0.17 0.48,0.17 0.18,0 0.35,-0.06 0.48,-0.17 0.13,-0.11 0.21,-0.27 0.22,-0.43l0 -12.56c-0.01,-0.17 -0.09,-0.32 -0.22,-0.43 -0.13,-0.12 -0.3,-0.18 -0.48,-0.18 -0.18,0 -0.35,0.06 -0.48,0.18 -0.12,0.11 -0.2,0.26 -0.21,0.43l0 12.56z"/>
  <path class="fil8"
        d="M115.41 359l0 12.56c0.01,0.11 -0.01,0.23 -0.06,0.34 -0.04,0.1 -0.11,0.2 -0.19,0.28 -0.09,0.09 -0.19,0.15 -0.31,0.2 -0.11,0.04 -0.23,0.06 -0.36,0.06 -0.12,0 -0.25,-0.02 -0.36,-0.06 -0.11,-0.05 -0.22,-0.11 -0.3,-0.2 -0.09,-0.08 -0.16,-0.18 -0.2,-0.28 -0.04,-0.11 -0.06,-0.23 -0.06,-0.34l0 -12.56c0.01,-0.22 0.12,-0.43 0.29,-0.58 0.17,-0.15 0.4,-0.23 0.63,-0.23 0.24,0 0.47,0.08 0.64,0.23 0.17,0.15 0.27,0.36 0.28,0.58zm-1.61 12.56c0.01,0.16 0.09,0.32 0.21,0.43 0.13,0.11 0.3,0.17 0.48,0.17 0.18,0 0.35,-0.06 0.48,-0.17 0.13,-0.11 0.21,-0.27 0.21,-0.43l0 -12.56c0,-0.17 -0.08,-0.32 -0.21,-0.43 -0.13,-0.12 -0.3,-0.18 -0.48,-0.18 -0.18,0 -0.35,0.06 -0.48,0.18 -0.12,0.11 -0.2,0.26 -0.21,0.43l0 12.56z"/>
  <path class="fil7"
        d="M113.8 371.56c0.01,0.16 0.09,0.32 0.21,0.43 0.13,0.11 0.3,0.17 0.48,0.17 0.18,0 0.35,-0.06 0.48,-0.17 0.13,-0.11 0.21,-0.27 0.22,-0.43l0 -12.56c-0.01,-0.17 -0.09,-0.32 -0.22,-0.43 -0.13,-0.12 -0.3,-0.18 -0.48,-0.18 -0.18,0 -0.35,0.06 -0.48,0.18 -0.12,0.11 -0.2,0.26 -0.21,0.43l0 12.56z"/>
  <polygon class="fil6" points="90.12,366.93 90.58,366.93 90.58,363.25 90.12,363.25 "/>
  <polygon class="fil6" points="114.03,366.93 114.49,366.93 114.49,363.25 114.03,363.25 "/>
  <path class="fil8"
        d="M95.18 359.03l0 12.57c-0.01,0.22 -0.11,0.43 -0.28,0.59 -0.17,0.15 -0.4,0.24 -0.64,0.25 -0.24,0 -0.48,-0.09 -0.65,-0.25 -0.17,-0.15 -0.27,-0.37 -0.27,-0.59l0 -12.57c0,-0.22 0.1,-0.43 0.27,-0.59 0.17,-0.16 0.41,-0.25 0.65,-0.25 0.24,0.01 0.47,0.1 0.64,0.26 0.17,0.15 0.27,0.36 0.28,0.58zm-1.61 12.57c0,0.17 0.07,0.33 0.2,0.45 0.13,0.12 0.31,0.18 0.49,0.18 0.18,0 0.35,-0.07 0.48,-0.19 0.13,-0.12 0.2,-0.27 0.21,-0.44l0 -12.57c-0.01,-0.16 -0.08,-0.32 -0.21,-0.44 -0.13,-0.12 -0.3,-0.18 -0.48,-0.19 -0.18,0 -0.36,0.07 -0.49,0.19 -0.13,0.11 -0.2,0.28 -0.2,0.44l0 12.57z"/>
  <path class="fil7"
        d="M93.57 371.6c0,0.17 0.07,0.33 0.2,0.45 0.13,0.12 0.31,0.18 0.49,0.19 0.18,-0.01 0.35,-0.08 0.48,-0.2 0.13,-0.12 0.2,-0.27 0.21,-0.44l0 -12.57c-0.01,-0.16 -0.08,-0.32 -0.21,-0.44 -0.13,-0.12 -0.3,-0.19 -0.48,-0.19 -0.18,0 -0.36,0.07 -0.49,0.19 -0.13,0.11 -0.2,0.27 -0.2,0.44l0 12.57z"/>
  <path class="fil8"
        d="M119.09 359.03l0 12.57c-0.01,0.22 -0.11,0.43 -0.28,0.59 -0.17,0.15 -0.4,0.24 -0.64,0.25 -0.24,0 -0.48,-0.09 -0.65,-0.25 -0.17,-0.15 -0.27,-0.37 -0.27,-0.59l0 -12.57c0,-0.22 0.1,-0.43 0.27,-0.59 0.18,-0.16 0.41,-0.25 0.65,-0.25 0.24,0.01 0.47,0.1 0.64,0.26 0.17,0.15 0.27,0.36 0.28,0.58zm-1.61 12.57c0,0.17 0.07,0.33 0.2,0.45 0.13,0.12 0.31,0.18 0.49,0.18 0.18,0 0.35,-0.07 0.48,-0.19 0.13,-0.12 0.2,-0.27 0.21,-0.44l0 -12.57c-0.01,-0.16 -0.08,-0.32 -0.21,-0.44 -0.13,-0.12 -0.3,-0.18 -0.48,-0.19 -0.18,0 -0.36,0.07 -0.49,0.19 -0.13,0.11 -0.2,0.28 -0.2,0.44l0 12.57z"/>
  <path class="fil7"
        d="M117.48 371.6c0,0.17 0.07,0.33 0.2,0.45 0.13,0.12 0.31,0.18 0.49,0.19 0.18,-0.01 0.35,-0.08 0.48,-0.2 0.13,-0.12 0.2,-0.27 0.21,-0.44l0 -12.57c-0.01,-0.16 -0.08,-0.32 -0.21,-0.44 -0.13,-0.12 -0.3,-0.19 -0.48,-0.19 -0.18,0 -0.36,0.07 -0.49,0.19 -0.13,0.11 -0.2,0.27 -0.2,0.44l0 12.57z"/>
  <polygon class="fil6" points="93.8,366.93 94.26,366.93 94.26,363.25 93.8,363.25 "/>
  <polygon class="fil6" points="117.71,366.93 118.17,366.93 118.17,363.25 117.71,363.25 "/>
  <path class="fil8"
        d="M98.4 359.03l0 12.57c0,0.22 -0.1,0.44 -0.27,0.59 -0.18,0.16 -0.41,0.25 -0.65,0.25 -0.24,-0.01 -0.47,-0.1 -0.64,-0.25 -0.17,-0.16 -0.27,-0.37 -0.28,-0.59l0 -12.57c0.01,-0.22 0.11,-0.43 0.28,-0.58 0.17,-0.16 0.4,-0.25 0.64,-0.26 0.24,0 0.47,0.09 0.65,0.25 0.17,0.16 0.27,0.37 0.27,0.59zm-1.61 12.57c0.01,0.17 0.08,0.32 0.21,0.44 0.13,0.12 0.3,0.19 0.48,0.19 0.18,0 0.36,-0.06 0.49,-0.18 0.13,-0.12 0.2,-0.28 0.2,-0.45l0 -12.57c0,-0.17 -0.07,-0.33 -0.2,-0.44 -0.13,-0.12 -0.31,-0.19 -0.49,-0.19 -0.18,0.01 -0.35,0.07 -0.48,0.19 -0.13,0.12 -0.2,0.28 -0.21,0.44l0 12.57z"/>
  <path class="fil7"
        d="M96.79 371.6c0.01,0.17 0.08,0.32 0.21,0.44 0.13,0.12 0.3,0.19 0.48,0.2 0.18,-0.01 0.36,-0.07 0.49,-0.19 0.13,-0.12 0.2,-0.28 0.2,-0.45l0 -12.57c0,-0.17 -0.08,-0.33 -0.2,-0.44 -0.13,-0.12 -0.31,-0.19 -0.49,-0.19 -0.18,0 -0.35,0.07 -0.48,0.19 -0.13,0.12 -0.2,0.28 -0.21,0.44l0 12.57z"/>
  <path class="fil8"
        d="M122.31 359.03l0 12.57c0,0.22 -0.1,0.44 -0.27,0.59 -0.18,0.16 -0.41,0.25 -0.65,0.25 -0.24,-0.01 -0.47,-0.1 -0.64,-0.25 -0.17,-0.16 -0.27,-0.37 -0.28,-0.59l0 -12.57c0.01,-0.22 0.11,-0.43 0.28,-0.58 0.17,-0.16 0.4,-0.25 0.64,-0.26 0.24,0 0.47,0.09 0.65,0.25 0.17,0.16 0.27,0.37 0.27,0.59zm-1.61 12.57c0.01,0.17 0.08,0.32 0.21,0.44 0.13,0.12 0.3,0.19 0.48,0.19 0.18,0 0.36,-0.06 0.49,-0.18 0.13,-0.12 0.2,-0.28 0.2,-0.45l0 -12.57c0,-0.17 -0.07,-0.33 -0.2,-0.44 -0.13,-0.12 -0.31,-0.19 -0.49,-0.19 -0.18,0.01 -0.35,0.07 -0.48,0.19 -0.13,0.12 -0.2,0.28 -0.21,0.44l0 12.57z"/>
  <path class="fil7"
        d="M120.7 371.6c0.01,0.17 0.08,0.32 0.21,0.44 0.13,0.12 0.3,0.19 0.48,0.2 0.18,-0.01 0.36,-0.07 0.49,-0.19 0.13,-0.12 0.2,-0.28 0.2,-0.45l0 -12.57c0,-0.17 -0.08,-0.33 -0.2,-0.44 -0.13,-0.12 -0.31,-0.19 -0.49,-0.19 -0.18,0 -0.35,0.07 -0.48,0.19 -0.13,0.12 -0.2,0.28 -0.21,0.44l0 12.57z"/>
  <polygon class="fil6" points="97.02,366.93 97.48,366.93 97.48,363.25 97.02,363.25 "/>
  <polygon class="fil6" points="120.93,366.93 121.39,366.93 121.39,363.25 120.93,363.25 "/>
  <path class="fil8"
        d="M101.62 359.04l0 12.56c0,0.11 -0.02,0.22 -0.07,0.32 -0.05,0.11 -0.11,0.2 -0.2,0.28 -0.09,0.08 -0.19,0.14 -0.3,0.18 -0.11,0.04 -0.23,0.07 -0.35,0.06 -0.25,0 -0.48,-0.09 -0.65,-0.25 -0.17,-0.16 -0.27,-0.37 -0.27,-0.59l0 -12.56c0,-0.23 0.1,-0.44 0.27,-0.6 0.17,-0.16 0.4,-0.25 0.65,-0.25 0.12,0 0.24,0.02 0.35,0.06 0.11,0.04 0.21,0.11 0.3,0.19 0.09,0.07 0.15,0.17 0.2,0.27 0.05,0.1 0.07,0.21 0.07,0.33zm-1.61 12.56c0,0.17 0.07,0.33 0.2,0.45 0.13,0.11 0.3,0.18 0.49,0.18 0.09,0.01 0.18,-0.01 0.26,-0.04 0.09,-0.03 0.16,-0.08 0.23,-0.14 0.06,-0.06 0.11,-0.13 0.15,-0.21 0.03,-0.07 0.05,-0.16 0.05,-0.24l0 -12.56c0,-0.09 -0.02,-0.17 -0.05,-0.25 -0.04,-0.08 -0.09,-0.15 -0.15,-0.21 -0.07,-0.06 -0.14,-0.1 -0.23,-0.13 -0.08,-0.04 -0.17,-0.05 -0.26,-0.05 -0.19,0 -0.36,0.07 -0.49,0.19 -0.13,0.12 -0.2,0.28 -0.2,0.45l0 12.56z"/>
  <path class="fil7"
        d="M100.01 371.6c0,0.17 0.07,0.33 0.2,0.45 0.13,0.11 0.31,0.18 0.49,0.18 0.09,0.01 0.18,-0.01 0.26,-0.04 0.09,-0.03 0.16,-0.08 0.23,-0.14 0.06,-0.06 0.11,-0.13 0.15,-0.21 0.03,-0.07 0.05,-0.16 0.05,-0.24l0 -12.56c0,-0.09 -0.02,-0.17 -0.05,-0.25 -0.04,-0.08 -0.09,-0.15 -0.15,-0.21 -0.07,-0.06 -0.14,-0.1 -0.23,-0.13 -0.08,-0.04 -0.17,-0.05 -0.26,-0.05 -0.19,0 -0.36,0.07 -0.49,0.19 -0.13,0.12 -0.2,0.28 -0.2,0.45l0 12.56z"/>
  <path class="fil8"
        d="M125.53 359.04l0 12.56c0,0.11 -0.03,0.22 -0.07,0.32 -0.05,0.11 -0.11,0.2 -0.2,0.28 -0.09,0.08 -0.19,0.14 -0.3,0.18 -0.11,0.04 -0.23,0.07 -0.35,0.06 -0.25,0 -0.48,-0.09 -0.65,-0.25 -0.17,-0.16 -0.27,-0.37 -0.27,-0.59l0 -12.56c0,-0.23 0.1,-0.44 0.27,-0.6 0.17,-0.16 0.4,-0.25 0.65,-0.25 0.12,0 0.24,0.02 0.35,0.06 0.11,0.04 0.21,0.11 0.3,0.19 0.09,0.07 0.15,0.17 0.2,0.27 0.04,0.1 0.07,0.21 0.07,0.33zm-1.61 12.56c0,0.17 0.07,0.33 0.2,0.45 0.13,0.11 0.3,0.18 0.49,0.18 0.09,0.01 0.18,-0.01 0.26,-0.04 0.09,-0.03 0.16,-0.08 0.23,-0.14 0.06,-0.06 0.11,-0.13 0.15,-0.21 0.03,-0.07 0.05,-0.16 0.05,-0.24l0 -12.56c0,-0.09 -0.02,-0.17 -0.05,-0.25 -0.04,-0.08 -0.09,-0.15 -0.15,-0.21 -0.07,-0.06 -0.14,-0.1 -0.23,-0.13 -0.08,-0.04 -0.17,-0.05 -0.26,-0.05 -0.19,0 -0.36,0.07 -0.49,0.19 -0.13,0.12 -0.2,0.28 -0.2,0.45l0 12.56z"/>
  <path class="fil7"
        d="M123.92 371.6c0,0.17 0.07,0.33 0.2,0.45 0.13,0.11 0.31,0.18 0.49,0.18 0.09,0.01 0.18,-0.01 0.26,-0.04 0.09,-0.03 0.16,-0.08 0.23,-0.14 0.06,-0.06 0.11,-0.13 0.15,-0.21 0.03,-0.07 0.05,-0.16 0.05,-0.24l0 -12.56c0,-0.09 -0.02,-0.17 -0.05,-0.25 -0.04,-0.08 -0.09,-0.15 -0.15,-0.21 -0.07,-0.06 -0.14,-0.1 -0.23,-0.13 -0.08,-0.04 -0.17,-0.05 -0.26,-0.05 -0.19,0 -0.36,0.07 -0.49,0.19 -0.13,0.12 -0.2,0.28 -0.2,0.45l0 12.56z"/>
  <polygon class="fil6" points="100.24,366.93 100.7,366.93 100.7,363.25 100.24,363.25 "/>
  <polygon class="fil6" points="124.15,366.93 124.61,366.93 124.61,363.25 124.15,363.25 "/>
  <path class="fil8"
        d="M73.57 359.03l0 12.57c0,0.22 -0.1,0.44 -0.27,0.59 -0.17,0.16 -0.41,0.25 -0.65,0.25 -0.24,-0.01 -0.47,-0.1 -0.64,-0.25 -0.17,-0.16 -0.27,-0.37 -0.28,-0.59l0 -12.57c0.01,-0.22 0.11,-0.43 0.28,-0.58 0.17,-0.16 0.4,-0.25 0.64,-0.26 0.24,0 0.48,0.09 0.65,0.25 0.17,0.16 0.27,0.37 0.27,0.59zm-1.61 12.57c0,0.17 0.08,0.32 0.21,0.44 0.13,0.12 0.3,0.19 0.48,0.19 0.18,0 0.36,-0.06 0.49,-0.18 0.13,-0.12 0.2,-0.28 0.2,-0.45l0 -12.57c0,-0.16 -0.07,-0.33 -0.2,-0.44 -0.13,-0.12 -0.31,-0.19 -0.49,-0.19 -0.18,0.01 -0.35,0.07 -0.48,0.19 -0.13,0.12 -0.2,0.28 -0.21,0.44l0 12.57z"/>
  <path class="fil7"
        d="M71.96 371.6c0,0.17 0.08,0.32 0.21,0.44 0.13,0.12 0.3,0.19 0.48,0.2 0.18,-0.01 0.36,-0.07 0.49,-0.19 0.13,-0.12 0.2,-0.28 0.2,-0.45l0 -12.57c0,-0.17 -0.07,-0.33 -0.2,-0.44 -0.13,-0.12 -0.31,-0.19 -0.49,-0.19 -0.18,0 -0.35,0.07 -0.48,0.19 -0.13,0.12 -0.21,0.28 -0.21,0.44l0 12.57z"/>
  <polygon class="fil6" points="72.65,366.93 73.11,366.93 73.11,363.25 72.65,363.25 "/>
  <path class="fil5"
        d="M66.07 33.23c-1.79,-2.35 -2.85,-5.18 -3.05,-8.13 -0.19,-2.95 0.5,-5.89 1.98,-8.44 1.48,-2.56 3.69,-4.62 6.34,-5.93 2.65,-1.3 5.63,-1.79 8.56,-1.4 2.93,0.38 5.68,1.63 7.9,3.58 2.22,1.96 3.81,4.52 4.58,7.38 0.76,2.85 0.66,5.87 -0.3,8.67 -0.95,2.8 -2.71,5.25 -5.06,7.05 -3.14,2.41 -7.12,3.46 -11.05,2.94 -3.93,-0.52 -7.49,-2.58 -9.9,-5.72z"/>
  <path class="fil6"
        d="M77.73 39.08c-3.6,0.01 -7.08,-1.26 -9.83,-3.59 -2.74,-2.32 -4.57,-5.55 -5.16,-9.1 -0.59,-3.54 0.1,-7.19 1.95,-10.27 1.85,-3.09 4.73,-5.42 8.14,-6.58 3.4,-1.15 7.11,-1.06 10.45,0.26 3.35,1.32 6.12,3.79 7.81,6.96 1.7,3.17 2.21,6.85 1.45,10.36 -0.76,3.52 -2.75,6.65 -5.6,8.84 -2.65,2.02 -5.88,3.12 -9.21,3.12zm-0.04 -29.76c-3.2,0 -6.31,1.05 -8.85,3.01 -2.42,1.85 -4.2,4.42 -5.09,7.34 -0.88,2.91 -0.83,6.04 0.15,8.93 0.98,2.88 2.84,5.39 5.32,7.17 2.48,1.77 5.46,2.72 8.51,2.72 1.93,0.02 3.84,-0.35 5.63,-1.07 1.78,-0.73 3.41,-1.8 4.78,-3.16 1.37,-1.36 2.45,-2.98 3.19,-4.76 0.74,-1.78 1.12,-3.69 1.12,-5.62 0,-1.92 -0.39,-3.83 -1.13,-5.61 -0.75,-1.78 -1.84,-3.39 -3.21,-4.75 -1.38,-1.35 -3,-2.42 -4.79,-3.14 -1.79,-0.72 -3.71,-1.08 -5.63,-1.06z"/>
  <path class="fil5"
        d="M105.14 45.24c-0.85,0.74 -1.84,1.3 -2.91,1.66 -1.07,0.36 -2.2,0.51 -3.34,0.44 -1.13,-0.06 -2.23,-0.35 -3.25,-0.83 -1.02,-0.49 -1.93,-1.17 -2.68,-2 -0.06,-0.05 -3.73,-5.59 -3.76,-5.64l11.47 -9.9c0.06,0.06 5.16,4.31 5.22,4.36 0.75,0.83 1.32,1.8 1.69,2.85 0.37,1.04 0.53,2.15 0.46,3.26 -0.07,1.1 -0.36,2.19 -0.86,3.18 -0.5,1 -1.19,1.89 -2.04,2.62z"/>
  <path class="fil6"
        d="M99.22 47.82c-1.25,0 -2.49,-0.27 -3.63,-0.78 -1.14,-0.51 -2.16,-1.26 -2.99,-2.2 -0.09,-0.09 -3.74,-5.74 -3.76,-5.78l-0.1 -0.2 11.73 -10.35 0.2 0.2c0.06,0.05 1.39,1.19 2.56,2.19 2.13,1.82 2.56,2.19 2.59,2.22 1.13,1.28 1.87,2.85 2.13,4.53 0.26,1.68 0.03,3.4 -0.67,4.96 -0.7,1.55 -1.83,2.87 -3.26,3.79 -1.43,0.93 -3.1,1.42 -4.8,1.42zm-9.73 -8.84c0.63,0.99 3.46,5.34 3.56,5.48 1.45,1.64 3.5,2.63 5.68,2.76 2.18,0.14 4.33,-0.6 5.97,-2.05 1.63,-1.45 2.63,-3.49 2.76,-5.67 0.13,-2.19 -0.61,-4.33 -2.06,-5.97 -0.05,-0.04 -1.38,-1.18 -2.55,-2.18 -1.42,-1.21 -2.09,-1.78 -2.38,-2.04l-10.98 9.67z"/>
  <path class="fil5"
        d="M103.73 43.66c-1.46,1.3 -3.38,1.97 -5.33,1.85 -1.95,-0.12 -3.78,-1.01 -5.08,-2.47 -0.05,-0.06 -3.18,-4.89 -3.2,-4.94 1.64,-3.82 5.08,-6.62 9.81,-8.67 0.03,0.06 4.4,3.78 4.43,3.81 1.3,1.47 1.96,3.39 1.84,5.34 -0.11,1.96 -1,3.78 -2.46,5.08l-0.01 0z"/>
  <path class="fil6"
        d="M98.62 45.98c-1.07,0 -2.13,-0.22 -3.11,-0.66 -0.98,-0.44 -1.85,-1.09 -2.56,-1.89 -0.1,-0.1 -3.21,-4.9 -3.23,-4.94l-0.06 -0.12 0.06 -0.13c1.58,-3.66 4.8,-6.5 9.86,-8.7l0.26 -0.11 0.1 0.2c0.29,0.27 2.49,2.15 3.57,3.07l0.78 0.66c0.98,1.09 1.61,2.44 1.84,3.89 0.22,1.44 0.02,2.92 -0.58,4.26 -0.6,1.33 -1.57,2.46 -2.8,3.26 -1.23,0.79 -2.67,1.21 -4.13,1.21l0 0zm-8.3 -7.64c0.46,0.73 2.98,4.57 3.08,4.72 1.24,1.35 2.97,2.16 4.8,2.25 1.84,0.1 3.64,-0.54 5.01,-1.76 1.38,-1.22 2.21,-2.93 2.34,-4.76 0.12,-1.83 -0.49,-3.64 -1.69,-5.03 0,0 -0.3,-0.25 -0.73,-0.62 -2.32,-1.97 -3.17,-2.7 -3.49,-2.99 -4.75,2.09 -7.8,4.77 -9.32,8.19z"/>
  <path class="fil5"
        d="M50.73 46.16c0.85,0.74 1.84,1.3 2.91,1.66 1.07,0.36 2.21,0.51 3.34,0.44 1.13,-0.06 2.24,-0.35 3.26,-0.83 1.02,-0.49 1.93,-1.17 2.68,-2 0.06,-0.05 3.72,-5.59 3.75,-5.64l-11.47 -9.9c-0.06,0.06 -5.15,4.31 -5.21,4.36 -0.75,0.83 -1.33,1.8 -1.7,2.85 -0.37,1.04 -0.52,2.15 -0.45,3.26 0.07,1.1 0.36,2.19 0.85,3.18 0.5,1 1.19,1.89 2.04,2.62z"/>
  <path class="fil6"
        d="M56.66 48.74c1.25,0 2.49,-0.27 3.63,-0.78 1.14,-0.51 2.16,-1.26 2.98,-2.2 0.09,-0.09 3.74,-5.74 3.76,-5.78l0.1 -0.2 -11.72 -10.35 -0.2 0.2c-0.06,0.05 -1.39,1.19 -2.56,2.19 -2.13,1.82 -2.57,2.19 -2.6,2.22 -1.13,1.28 -1.87,2.85 -2.13,4.53 -0.26,1.68 -0.02,3.4 0.68,4.96 0.69,1.55 1.83,2.87 3.26,3.79 1.43,0.93 3.09,1.42 4.8,1.42zm9.73 -8.84c-0.64,0.99 -3.47,5.34 -3.57,5.48 -1.45,1.64 -3.49,2.63 -5.67,2.76 -2.19,0.14 -4.33,-0.6 -5.97,-2.05 -1.64,-1.45 -2.63,-3.49 -2.77,-5.67 -0.13,-2.19 0.61,-4.33 2.06,-5.97 0.05,-0.04 1.38,-1.18 2.55,-2.18 1.43,-1.22 2.09,-1.78 2.39,-2.04l10.98 9.67z"/>
  <path class="fil5"
        d="M52.14 44.58c1.47,1.3 3.39,1.96 5.34,1.85 1.95,-0.12 3.77,-1.01 5.07,-2.47 0.06,-0.06 3.18,-4.89 3.2,-4.95 -1.63,-3.81 -5.08,-6.61 -9.81,-8.66 -0.03,0.06 -4.4,3.78 -4.43,3.81 -1.29,1.47 -1.95,3.39 -1.84,5.34 0.12,1.96 1.01,3.78 2.47,5.08l0 0z"/>
  <path class="fil6"
        d="M57.25 46.9c1.08,0 2.14,-0.23 3.12,-0.66 0.97,-0.44 1.85,-1.09 2.56,-1.89 0.1,-0.1 3.2,-4.9 3.22,-4.94l0.06 -0.12 -0.05 -0.13c-1.59,-3.66 -4.81,-6.5 -9.86,-8.7l-0.26 -0.11 -0.1 0.2c-0.3,0.27 -2.5,2.15 -3.58,3.07l-0.78 0.66c-0.97,1.09 -1.61,2.44 -1.83,3.89 -0.23,1.44 -0.03,2.92 0.57,4.26 0.6,1.33 1.58,2.46 2.81,3.26 1.23,0.79 2.66,1.21 4.12,1.21l0 0zm8.31 -7.64c-0.47,0.73 -2.98,4.57 -3.08,4.72 -1.25,1.35 -2.97,2.16 -4.81,2.25 -1.83,0.09 -3.63,-0.54 -5.01,-1.76 -1.37,-1.22 -2.21,-2.93 -2.33,-4.76 -0.12,-1.83 0.48,-3.64 1.68,-5.03 0,0 0.3,-0.25 0.73,-0.62 2.32,-1.98 3.17,-2.7 3.49,-2.99 4.75,2.09 7.81,4.77 9.33,8.19z"/>
  <path class="fil8"
        d="M0.46 77.3l0 -28.65c0.01,-0.22 0.1,-0.43 0.26,-0.59 0.16,-0.15 0.37,-0.24 0.59,-0.24l12.09 0c0.11,0 0.22,0.02 0.32,0.06 0.11,0.04 0.2,0.1 0.28,0.18 0.08,0.07 0.14,0.17 0.19,0.27 0.04,0.1 0.06,0.21 0.06,0.32l0 28.65c0,0.23 -0.09,0.45 -0.25,0.61 -0.16,0.17 -0.37,0.26 -0.6,0.26l-12.09 0c-0.23,-0.01 -0.44,-0.1 -0.59,-0.26 -0.16,-0.16 -0.25,-0.38 -0.26,-0.61zm13.21 -28.65c0,-0.03 -0.01,-0.06 -0.02,-0.09 -0.02,-0.03 -0.04,-0.06 -0.06,-0.08 -0.03,-0.03 -0.06,-0.04 -0.09,-0.05 -0.03,-0.01 -0.06,-0.02 -0.09,-0.01l-12.1 0c-0.06,0 -0.13,0.02 -0.18,0.06 -0.05,0.05 -0.08,0.11 -0.08,0.17l0 28.65c0,0.07 0.03,0.14 0.08,0.19 0.05,0.05 0.11,0.08 0.18,0.08l12.09 0c0.07,0 0.14,-0.03 0.19,-0.08 0.05,-0.05 0.08,-0.11 0.08,-0.19l0 -28.65z"/>
  <path class="fil7"
        d="M13.67 48.65c0,-0.03 -0.01,-0.06 -0.02,-0.09 -0.02,-0.03 -0.04,-0.06 -0.06,-0.08 -0.03,-0.03 -0.06,-0.04 -0.09,-0.05 -0.03,-0.01 -0.06,-0.02 -0.09,-0.01l-12.1 0c-0.06,0 -0.13,0.02 -0.18,0.06 -0.05,0.05 -0.08,0.11 -0.08,0.17l0 28.65c0,0.07 0.03,0.14 0.08,0.19 0.05,0.05 0.11,0.08 0.18,0.08l12.09 0c0.07,0 0.14,-0.03 0.19,-0.08 0.05,-0.05 0.08,-0.12 0.08,-0.19l0 -28.65z"/>
  <path class="fil6" d="M13.79 62.53l0 -13.79 0.92 0 0 13.79 -0.92 0zm0.29 -0.3l0.35 0 0 -13.2 -0.35 0 0 13.2z"/>
  <path class="fil6" d="M13.79 63.45l0.92 0 0 13.8 -0.92 0 0 -13.8zm0.29 13.5l0.35 0 0 -13.2 -0.35 0 0 13.2z"/>
  <path class="fil6"
        d="M14.71 56.56l0 -1.84 0.11 0c0.21,0 0.42,0.09 0.57,0.27 0.16,0.17 0.24,0.4 0.24,0.65 0,0.24 -0.08,0.47 -0.24,0.65 -0.15,0.17 -0.36,0.27 -0.57,0.27l-0.11 0zm0.21 -1.6l0 1.36c0.14,-0.03 0.27,-0.11 0.36,-0.24 0.09,-0.12 0.14,-0.27 0.14,-0.43 0,-0.16 -0.05,-0.32 -0.14,-0.45 -0.09,-0.12 -0.21,-0.21 -0.36,-0.24z"/>
  <path class="fil6"
        d="M14.71 71.27l0 -1.84 0.11 0c0.21,0 0.42,0.1 0.57,0.27 0.15,0.18 0.24,0.41 0.24,0.65 0,0.12 -0.02,0.24 -0.06,0.35 -0.04,0.12 -0.1,0.22 -0.17,0.3 -0.08,0.09 -0.17,0.16 -0.27,0.2 -0.1,0.05 -0.21,0.07 -0.31,0.07l-0.11 0zm0.21 -1.6l0 1.37c0.15,-0.03 0.28,-0.11 0.37,-0.24 0.1,-0.12 0.15,-0.29 0.15,-0.45 0,-0.16 -0.06,-0.32 -0.15,-0.45 -0.1,-0.12 -0.23,-0.2 -0.37,-0.23z"/>
  <path class="fil5"
        d="M99.75 239.6c-0.1,-1.55 -0.66,-3.03 -1.6,-4.25 -0.94,-1.23 -2.22,-2.15 -3.69,-2.64 -1.46,-0.5 -3.04,-0.55 -4.54,-0.15 -1.49,0.4 -2.83,1.24 -3.85,2.4 -1.02,1.17 -1.67,2.61 -1.87,4.14 -0.2,1.53 0.06,3.09 0.75,4.48 0.69,1.38 1.77,2.54 3.11,3.31 1.34,0.77 2.88,1.12 4.42,1.02 1.03,-0.06 2.03,-0.33 2.95,-0.78 0.92,-0.46 1.75,-1.09 2.42,-1.86 0.68,-0.77 1.19,-1.67 1.52,-2.65 0.33,-0.97 0.46,-2 0.38,-3.02z"/>
  <path class="fil6"
        d="M97.41 245.91c-0.99,0.85 -2.17,1.46 -3.44,1.77 -1.28,0.32 -2.62,0.33 -3.9,0.04 -1.28,-0.29 -2.47,-0.88 -3.48,-1.7 -1,-0.83 -1.78,-1.88 -2.29,-3.07 -0.5,-1.18 -0.7,-2.47 -0.59,-3.74 0.11,-1.28 0.53,-2.51 1.23,-3.6 0.7,-1.08 1.66,-1.99 2.79,-2.64 1.13,-0.66 2.41,-1.04 3.72,-1.11 1.08,-0.08 2.15,0.05 3.18,0.38 1.02,0.33 1.96,0.86 2.77,1.55 0.89,0.76 1.6,1.69 2.09,2.73 0.49,1.05 0.74,2.18 0.74,3.33 0,1.15 -0.25,2.29 -0.74,3.33 -0.49,1.05 -1.2,1.98 -2.09,2.73l0.01 0zm-10.35 -11.51c-1.14,0.98 -1.94,2.27 -2.31,3.7 -0.36,1.44 -0.27,2.95 0.27,4.33 0.54,1.38 1.5,2.57 2.75,3.4 1.26,0.84 2.74,1.28 4.26,1.28 1.52,-0.01 3,-0.46 4.24,-1.31 1.24,-0.85 2.19,-2.04 2.72,-3.43 0.53,-1.38 0.61,-2.89 0.24,-4.32 -0.38,-1.43 -1.19,-2.72 -2.34,-3.69 -0.73,-0.63 -1.58,-1.1 -2.51,-1.41 -0.92,-0.3 -1.9,-0.42 -2.87,-0.34 -1.65,0.1 -3.21,0.73 -4.45,1.79z"/>
  <polygon class="fil6" points="88.74,233.22 87.82,233.21 87.77,246.55 88.69,246.55 "/>
  <path class="fil5"
        d="M99.75 214.3c-0.1,-1.54 -0.66,-3.02 -1.6,-4.24 -0.94,-1.23 -2.23,-2.15 -3.69,-2.64 -1.47,-0.5 -3.05,-0.55 -4.54,-0.15 -1.49,0.41 -2.83,1.24 -3.85,2.41 -1.02,1.16 -1.67,2.6 -1.87,4.13 -0.2,1.54 0.06,3.09 0.75,4.48 0.69,1.39 1.77,2.54 3.11,3.31 1.34,0.77 2.88,1.12 4.42,1.02 1.03,-0.06 2.03,-0.33 2.95,-0.78 0.92,-0.46 1.75,-1.09 2.42,-1.86 0.68,-0.77 1.19,-1.67 1.52,-2.65 0.33,-0.97 0.46,-2 0.38,-3.03z"/>
  <path class="fil6"
        d="M97.41 220.62c-0.99,0.85 -2.17,1.46 -3.44,1.77 -1.28,0.32 -2.62,0.33 -3.9,0.04 -1.28,-0.29 -2.47,-0.87 -3.48,-1.7 -1,-0.83 -1.78,-1.88 -2.29,-3.07 -0.5,-1.18 -0.7,-2.47 -0.59,-3.74 0.11,-1.28 0.53,-2.51 1.23,-3.6 0.7,-1.08 1.66,-1.99 2.79,-2.64 1.13,-0.66 2.41,-1.04 3.72,-1.11 1.08,-0.08 2.15,0.05 3.18,0.38 1.02,0.33 1.96,0.86 2.77,1.55 0.89,0.76 1.6,1.69 2.09,2.73 0.49,1.05 0.74,2.18 0.74,3.33 0,1.15 -0.25,2.29 -0.74,3.33 -0.49,1.05 -1.2,1.98 -2.09,2.73l0.01 0zm-10.35 -11.51c-1.14,0.98 -1.94,2.27 -2.31,3.7 -0.36,1.44 -0.27,2.95 0.27,4.33 0.54,1.38 1.5,2.57 2.75,3.4 1.26,0.84 2.74,1.29 4.26,1.28 1.52,-0.01 3,-0.46 4.24,-1.31 1.24,-0.84 2.19,-2.04 2.72,-3.43 0.53,-1.38 0.61,-2.89 0.24,-4.32 -0.38,-1.43 -1.19,-2.72 -2.34,-3.69 -0.73,-0.62 -1.58,-1.1 -2.51,-1.4 -0.92,-0.3 -1.9,-0.42 -2.87,-0.35 -1.65,0.1 -3.21,0.73 -4.45,1.79z"/>
  <polygon class="fil6" points="88.71,207.92 87.79,207.92 87.79,221.26 88.71,221.26 "/>
  <polygon class="fil5" points="114.49,204.24 92.88,204.24 92.88,250.23 114.49,250.23 "/>
  <path class="fil6"
        d="M114.49 204.24l0.36 0 0 -0.36 -0.36 0 0 0.36zm0 46.35l0.36 0 0 -0.36 -0.36 0 0 0.36zm-21.61 -0.36l-0.37 0 0 0.36 0.37 0 0 -0.36zm0 -46.35l-0.37 0 0 0.36 0.37 0 0 -0.36zm21.24 46.35l0.73 0 0 -45.99 -0.73 0 0 45.99zm0.37 -0.37l-21.61 0 0 0.73 21.61 0 0 -0.73zm-21.25 -45.62l-0.73 0 0 45.99 0.73 0 0 -45.99zm-0.36 0.37l21.61 0 0 -0.73 -21.61 0 0 0.73z"/>
  <path class="fil5"
        d="M32.65 181.77l9.62 -8.12c0.67,-0.53 1.84,-0.22 2.63,0.74l5.73 6.85c0.8,0.92 0.93,2.16 0.27,2.69l-9.5 8 -8.75 -10.16z"/>
  <path class="fil6"
        d="M41.43 192.41l-9.23 -10.73 9.96 -8.42c0.8,-0.63 2.21,-0.27 3.08,0.79l5.79 6.93c0.54,0.62 0.82,1.4 0.76,2.09 -0.01,0.2 -0.07,0.4 -0.16,0.59 -0.09,0.18 -0.22,0.34 -0.38,0.48l-9.82 8.27zm-8.38 -10.66l8.45 9.82 9.37 -7.9c0.1,-0.08 0.17,-0.18 0.23,-0.29 0.05,-0.11 0.08,-0.24 0.09,-0.36 0.05,-0.52 -0.19,-1.15 -0.62,-1.65l-5.79 -6.93c-0.66,-0.8 -1.72,-1.13 -2.24,-0.7l-9.49 8.01z"/>
  <path class="fil5"
        d="M32.6 182.19l0.03 0c0.84,-0.74 1.92,-0.92 2.36,-0.4l6.9 8.44c0.44,0.53 0.09,1.6 -0.75,2.35l-0.04 0.02c-0.87,0.74 -1.92,0.89 -2.36,0.37l-6.89 -8.43c-0.47,-0.54 -0.1,-1.57 0.75,-2.34l0 -0.01z"/>
  <path class="fil6"
        d="M39.26 193.26c-0.23,-0.06 -0.44,-0.19 -0.6,-0.37l-7.13 -8.42c-0.1,-0.12 -0.18,-0.25 -0.23,-0.4 -0.05,-0.15 -0.07,-0.31 -0.05,-0.47 0.03,-0.6 0.42,-1.3 1.06,-1.85l0.15 -0.1c0.95,-0.74 2.19,-0.86 2.72,-0.24l7.14 8.42c0.58,0.66 0.22,1.88 -0.77,2.73l-0.09 0.06c-0.69,0.56 -1.54,0.82 -2.2,0.64zm-6.68 -10.96c-0.43,0.43 -0.71,0.92 -0.73,1.34 -0.01,0.08 0,0.16 0.02,0.23 0.03,0.08 0.06,0.15 0.12,0.21l7.13 8.43c0.33,0.37 1.28,0.2 1.98,-0.39l0.08 -0.05c0.73,-0.62 0.96,-1.51 0.66,-1.86l-7.13 -8.42c-0.32,-0.36 -1.31,-0.18 -1.99,0.41l-0.14 0.1z"/>
  <path class="fil5"
        d="M40.74 171.21l-10.31 8.79c-0.48,0.4 -0.41,1.3 0.14,1.98 0.56,0.68 1.43,0.88 1.88,0.5l10.31 -8.82c0.48,-0.41 0.41,-1.3 -0.15,-1.95 -0.56,-0.68 -1.4,-0.91 -1.87,-0.5z"/>
  <path class="fil6"
        d="M31.35 182.57c-0.43,-0.12 -0.81,-0.38 -1.1,-0.74 -0.65,-0.8 -0.7,-1.87 -0.1,-2.38l10.19 -8.71c0.59,-0.5 1.63,-0.25 2.26,0.53 0.37,0.4 0.55,0.94 0.53,1.49 -0.01,0.16 -0.05,0.32 -0.12,0.47 -0.07,0.15 -0.17,0.28 -0.29,0.39l-10.2 8.75c-0.16,0.12 -0.36,0.21 -0.56,0.25 -0.2,0.03 -0.41,0.02 -0.61,-0.05zm10 -11.47c-0.1,-0.04 -0.22,-0.05 -0.32,-0.03 -0.11,0.02 -0.22,0.06 -0.31,0.12l-10.19 8.72c-0.34,0.29 -0.27,1 0.19,1.53 0.2,0.26 0.48,0.45 0.8,0.55 0.1,0.04 0.21,0.05 0.32,0.03 0.11,-0.01 0.21,-0.05 0.3,-0.12l10.21 -8.74c0.06,-0.06 0.11,-0.13 0.14,-0.21 0.04,-0.07 0.06,-0.16 0.06,-0.24 0.01,-0.39 -0.13,-0.77 -0.39,-1.06 -0.21,-0.26 -0.49,-0.46 -0.81,-0.55l0 0z"/>
  <path class="fil5"
        d="M51.24 183.54l-10.32 8.81c-0.48,0.41 -0.4,1.27 0.16,1.95 0.55,0.68 1.41,0.91 1.87,0.5l10.31 -8.81c0.47,-0.37 0.4,-1.27 -0.15,-1.95 -0.56,-0.68 -1.39,-0.9 -1.87,-0.5z"/>
  <path class="fil6"
        d="M42.2 195.47c-0.44,-0.13 -0.83,-0.39 -1.12,-0.75 -0.66,-0.81 -0.71,-1.84 -0.11,-2.35l10.2 -8.74c0.58,-0.49 1.62,-0.25 2.26,0.53 0.37,0.43 0.55,0.99 0.52,1.56 -0.02,0.16 -0.06,0.31 -0.13,0.44 -0.07,0.14 -0.17,0.26 -0.29,0.36l-10.18 8.73c-0.16,0.13 -0.35,0.22 -0.55,0.26 -0.2,0.04 -0.41,0.03 -0.6,-0.04zm9.97 -11.48c-0.1,-0.03 -0.22,-0.04 -0.32,-0.02 -0.11,0.01 -0.22,0.05 -0.31,0.12l-10.19 8.74c-0.34,0.29 -0.26,0.96 0.19,1.51 0.41,0.51 1.13,0.73 1.42,0.46l10.2 -8.74c0.06,-0.05 0.11,-0.11 0.14,-0.18 0.04,-0.07 0.06,-0.15 0.06,-0.22 0.02,-0.41 -0.12,-0.81 -0.39,-1.11 -0.2,-0.27 -0.48,-0.46 -0.8,-0.56z"/>
  <path class="fil8"
        d="M61.61 374.74l-54.25 0 0 -27.73 0.28 -0.02c21,-0.83 30.13,0 39.09,3.54 10.65,4.24 14.82,10.95 14.88,23.91l0 0.3zm-53.66 -0.59l53.07 0c-0.13,-12.64 -4.08,-18.91 -14.51,-23.06 -8.83,-3.5 -17.86,-4.33 -38.56,-3.51l0 26.57z"/>
  <path class="fil7"
        d="M7.95 374.15l53.07 0c-0.13,-12.64 -4.08,-18.91 -14.51,-23.06 -8.83,-3.5 -17.86,-4.33 -38.56,-3.51l0 26.57z"/>
  <path class="fil6"
        d="M47.36 352.79l-0.27 0.54c-8.32,-4.15 -27.41,-4.88 -32.21,-2.09 -1.28,0.77 -1.91,1.92 -1.86,3.41 0.12,3.93 4.72,9.06 10.92,12.2l-0.28 0.54c-6.38,-3.24 -11.1,-8.59 -11.24,-12.71 -0.07,-1.71 0.69,-3.07 2.16,-3.94 5.31,-3.1 24.92,-1.86 32.78,2.05z"/>
  <path class="fil6"
        d="M56.56 366c0,2.21 -0.84,3.95 -2.39,4.93 -4.95,3.08 -20.79,1.24 -30.26,-3.53l0.23 -0.46c9.16,4.63 25.02,6.51 29.77,3.55 1.47,-0.93 2.24,-2.66 2.14,-4.87 -0.18,-4.07 -3.26,-9.66 -8.8,-12.49l0.23 -0.46c5.71,2.92 8.89,8.71 9.07,12.92 0,0.15 0.01,0.28 0.01,0.41z"/>
  <path class="fil6"
        d="M47.36 357.22c0.01,0.18 -0.02,0.37 -0.09,0.54 -0.07,0.18 -0.17,0.33 -0.3,0.47 -0.12,0.13 -0.28,0.24 -0.45,0.31 -0.17,0.07 -0.35,0.11 -0.54,0.11 -0.18,0 -0.37,-0.04 -0.54,-0.11 -0.17,-0.07 -0.32,-0.18 -0.45,-0.31 -0.13,-0.14 -0.23,-0.29 -0.3,-0.47 -0.06,-0.17 -0.09,-0.36 -0.09,-0.54 0.02,-0.36 0.17,-0.7 0.42,-0.94 0.26,-0.25 0.6,-0.39 0.96,-0.39 0.36,0 0.7,0.14 0.96,0.39 0.26,0.24 0.41,0.58 0.42,0.94zm-2.13 0c0,0.2 0.08,0.39 0.22,0.53 0.14,0.14 0.33,0.22 0.53,0.22 0.2,0 0.39,-0.08 0.53,-0.22 0.14,-0.14 0.22,-0.33 0.22,-0.53 0,-0.2 -0.08,-0.39 -0.22,-0.53 -0.14,-0.14 -0.33,-0.22 -0.53,-0.22 -0.2,0 -0.39,0.08 -0.53,0.22 -0.14,0.14 -0.22,0.33 -0.22,0.53z"/>
  <polygon class="fil0" points="95.18,78.17 25.75,78.17 25.75,90.12 95.18,90.12 "/>
  <polygon class="fil3" points="26.04,83.12 60.52,83.12 60.52,79.35 26.04,79.35 "/>
  <path class="fil2" d="M25.75 79.09l35.06 0 0 4.29 -35.06 0 0 -4.29zm34.48 0.52l-33.92 0 0 3.24 33.92 0 0 -3.24z"/>
  <polygon class="fil3" points="60.42,87.1 94.9,87.1 94.9,83.34 60.42,83.34 "/>
  <path class="fil2" d="M60.13 83.07l35.05 0 0 4.29 -35.05 0 0 -4.29zm34.48 0.53l-33.92 0 0 3.24 33.92 0 0 -3.24z"/>
  <path class="fil1"
        d="M40.46 300.25l1.84 0 0 -1.83 -1.84 0 0 1.83zm-34.02 0l34.02 0 0 -3.67 -34.02 0 0 3.67zm35.86 -7.35l-3.68 0 0 5.51 3.68 0 0 -5.51z"/>
  <polygon class="fil3" points="25.29,272.21 7.82,272.21 7.82,236.34 25.29,236.34 "/>
  <path class="fil9"
        d="M25.75 236.34l0 -17.93 -18.39 0 0 17.93 0 0.46 17.93 0 0 -18.85 -17.47 0 0 18.85 -0.46 0 0 0zm18.39 -0.46l-18.39 0z"/>
  <polygon class="fil6" points="25.29,236.8 7.36,236.8 7.36,236.34 25.29,236.34 "/>
  <path class="fil6"
        d="M21.4 238.64c-0.6,0 -1.17,0.17 -1.67,0.5 -0.49,0.32 -0.88,0.79 -1.1,1.33 -0.23,0.55 -0.3,1.15 -0.18,1.73 0.11,0.58 0.39,1.11 0.81,1.53 0.41,0.42 0.94,0.71 1.52,0.83 0.58,0.12 1.18,0.06 1.73,-0.16 0.55,-0.23 1.02,-0.61 1.35,-1.1 0.33,-0.49 0.51,-1.07 0.51,-1.66 0,-0.79 -0.31,-1.55 -0.87,-2.11 -0.56,-0.56 -1.31,-0.88 -2.1,-0.89zm0 5.37c-0.48,0.01 -0.94,-0.13 -1.34,-0.39 -0.39,-0.26 -0.7,-0.63 -0.88,-1.07 -0.19,-0.44 -0.24,-0.92 -0.14,-1.38 0.09,-0.46 0.31,-0.89 0.65,-1.23 0.33,-0.33 0.76,-0.56 1.22,-0.65 0.47,-0.09 0.95,-0.04 1.39,0.14 0.43,0.19 0.8,0.49 1.06,0.89 0.26,0.39 0.4,0.86 0.4,1.33 -0.01,0.63 -0.26,1.22 -0.7,1.67 -0.44,0.44 -1.04,0.69 -1.66,0.7l0 -0.01z"/>
  <path class="fil6"
        d="M13.13 238.64c-0.6,0 -1.18,0.17 -1.67,0.49 -0.49,0.33 -0.88,0.79 -1.11,1.34 -0.23,0.55 -0.29,1.15 -0.18,1.73 0.11,0.58 0.4,1.11 0.81,1.53 0.42,0.42 0.95,0.71 1.53,0.83 0.58,0.12 1.19,0.06 1.73,-0.17 0.55,-0.22 1.02,-0.61 1.35,-1.1 0.33,-0.49 0.5,-1.07 0.5,-1.66 0.01,-0.39 -0.06,-0.78 -0.21,-1.15 -0.15,-0.36 -0.37,-0.69 -0.64,-0.97 -0.28,-0.28 -0.61,-0.5 -0.97,-0.65 -0.36,-0.15 -0.75,-0.22 -1.14,-0.22zm0 5.38c-0.48,0 -0.94,-0.14 -1.34,-0.4 -0.4,-0.26 -0.71,-0.64 -0.89,-1.08 -0.18,-0.43 -0.23,-0.92 -0.14,-1.38 0.09,-0.47 0.32,-0.9 0.66,-1.23 0.33,-0.34 0.76,-0.57 1.23,-0.66 0.46,-0.09 0.95,-0.04 1.38,0.14 0.44,0.19 0.82,0.49 1.08,0.89 0.26,0.4 0.4,0.86 0.4,1.34 -0.01,0.63 -0.26,1.23 -0.7,1.68 -0.45,0.44 -1.05,0.7 -1.68,0.7z"/>
  <path class="fil6"
        d="M21.61 248.3c-0.49,0 -0.95,0.19 -1.3,0.53 -0.34,0.35 -0.54,0.82 -0.54,1.31 0,0.48 0.2,0.95 0.54,1.3 0.35,0.34 0.81,0.53 1.3,0.53 0.49,0 0.96,-0.19 1.3,-0.53 0.35,-0.35 0.54,-0.82 0.54,-1.3 0,-0.49 -0.19,-0.96 -0.54,-1.31 -0.34,-0.34 -0.81,-0.53 -1.3,-0.53zm0 3.07c-0.32,-0.01 -0.62,-0.15 -0.84,-0.38 -0.22,-0.23 -0.34,-0.53 -0.34,-0.85 0,-0.32 0.12,-0.62 0.34,-0.85 0.22,-0.23 0.52,-0.37 0.84,-0.38 0.17,-0.01 0.33,0.02 0.49,0.08 0.15,0.06 0.29,0.15 0.41,0.26 0.12,0.12 0.22,0.26 0.28,0.41 0.07,0.15 0.1,0.31 0.1,0.48 0,0.17 -0.03,0.33 -0.1,0.48 -0.06,0.15 -0.16,0.29 -0.28,0.41 -0.12,0.11 -0.26,0.2 -0.41,0.26 -0.16,0.06 -0.32,0.09 -0.49,0.08z"/>
  <path class="fil6"
        d="M13.1 247.38c-0.79,0 -1.55,0.31 -2.11,0.87 -0.56,0.56 -0.87,1.32 -0.87,2.12 0,0.79 0.31,1.55 0.87,2.11 0.56,0.56 1.32,0.87 2.11,0.87 0.4,0.01 0.79,-0.07 1.15,-0.21 0.37,-0.15 0.7,-0.37 0.98,-0.65 0.28,-0.28 0.5,-0.61 0.65,-0.98 0.14,-0.36 0.22,-0.75 0.21,-1.14 0,-0.8 -0.31,-1.56 -0.87,-2.12 -0.56,-0.56 -1.32,-0.87 -2.12,-0.87zm0 5.39c-0.47,0 -0.94,-0.14 -1.33,-0.4 -0.4,-0.27 -0.71,-0.64 -0.89,-1.08 -0.18,-0.44 -0.23,-0.93 -0.14,-1.39 0.09,-0.47 0.32,-0.9 0.66,-1.24 0.34,-0.33 0.77,-0.56 1.23,-0.66 0.47,-0.09 0.96,-0.04 1.4,0.14 0.44,0.18 0.81,0.49 1.08,0.89 0.26,0.39 0.4,0.86 0.4,1.34 0.01,0.31 -0.05,0.63 -0.17,0.92 -0.12,0.29 -0.3,0.56 -0.52,0.79 -0.23,0.22 -0.5,0.4 -0.79,0.52 -0.29,0.12 -0.61,0.18 -0.93,0.17z"/>
  <polygon class="fil6" points="25.75,254.73 7.82,254.73 7.82,254.27 25.75,254.27 "/>
  <polygon class="fil3" points="25.29,236.34 7.82,236.34 7.82,218.41 25.29,218.41 "/>
 </g>
</svg>
