<svg width="351" height="352" viewBox="0 0 351 352" fill="none" xmlns="http://www.w3.org/2000/svg">
<path fill-rule="evenodd" clip-rule="evenodd" d="M176.03 1.54714V0.132812L174.616 1.54714L88.3142 1.54702L87.3142 1.54702V2.54702V86.8508L2.31421 1.94013L0.607452 0.235189V2.64761V88.2633H0.598145V89.2633V171.263V174.979H0.5979V175.979V218.335V219.335V262.695V263.695H1.5979H87.3142V266.784V348.784V349.784H88.3142L170.314 349.784H174.03V350.411V351.826L175.444 350.411L260.746 350.411V350.412H261.746H348.462H349.462V349.412V344.696C349.462 305.104 321.742 271.987 284.651 263.695L348.462 263.695H349.462V262.695V176.393L350.876 174.979L349.462 174.979V90.263H349.462V89.263V84.5471V2.54702V1.54702L348.462 1.54702L266.462 1.54714H261.747H261.746H260.747L260.746 1.54714V2.54714V32.6978C255.125 14.6498 238.287 1.54751 218.388 1.54751C198.49 1.54751 181.652 14.6489 176.03 32.6958V2.54714V2.54702V1.54714ZM260.746 153.07V90.2633L197.938 90.2634C229.172 97.248 253.761 121.837 260.746 153.07ZM260.746 171.163C260.691 126.474 224.447 90.2635 179.746 90.2635H176.03V174.979H260.746L260.746 171.163ZM346.048 176.979H262.746V260.281L346.048 176.979ZM260.746 176.979H176.03V261.068V261.695L260.746 261.695V176.979ZM262.746 90.2635L262.746 174.979H304.106L304.106 90.2634L262.746 90.2635ZM306.106 90.2634L347.462 90.2633V174.979H306.106L306.106 90.2634ZM2.5979 176.979V218.335L87.314 218.335V176.979L2.5979 176.979ZM87.314 261.695V220.335L2.5979 220.335V261.695H87.314ZM87.314 174.979H2.59814V171.263C2.59814 126.528 38.8631 90.2635 83.5981 90.2635H87.314V174.979ZM231.597 88.2634L260.746 88.2633V88.2631H260.746V59.113C256.424 72.9887 245.472 83.9411 231.597 88.2634ZM179.746 88.2635L205.179 88.2634C191.304 83.9414 180.353 72.9898 176.03 59.1149V88.2632V88.2635H179.746ZM176.03 46.0081V45.8026C176.086 22.4562 195.029 3.54751 218.388 3.54751C241.782 3.54751 260.746 22.5118 260.746 45.9054C260.746 69.299 241.782 88.2632 218.388 88.2632C195.029 88.2632 176.086 69.3545 176.03 46.0081ZM174.03 88.2628V46.0105L174.03 45.9054L174.03 45.8002V4.96123L90.7284 88.2628H174.03ZM89.3142 176.979H170.314H174.03V176.979V261.068H89.3142V176.979V176.979ZM152.122 174.979L89.3142 174.979V112.172C96.2989 143.406 120.887 167.994 152.122 174.979ZM89.3142 93.979V90.2632H174.03V174.979H170.314C125.579 174.979 89.3142 138.714 89.3142 93.979ZM2.59814 153.071V90.2633L65.4056 90.2634C34.1714 97.2481 9.58286 121.837 2.59814 153.071ZM176.03 263.695V346.997L259.332 263.695H176.03ZM152.122 347.784L89.3142 347.784V284.976C96.2989 316.211 120.888 340.799 152.122 347.784ZM89.3142 266.784V263.695H174.03V347.784H170.314C125.579 347.784 89.3142 311.519 89.3142 266.784ZM89.3142 86.8486V3.54702L172.616 3.54714L89.3142 86.8486ZM85.8982 88.2632H2.60745V5.06002L85.8982 88.2632ZM177.444 348.411L260.746 348.411V265.109L177.444 348.411ZM264.16 261.695L347.462 178.393V261.695L264.16 261.695ZM284.655 3.54711C315.889 10.5318 340.478 35.1203 347.462 66.3544V3.54702L284.655 3.54711ZM266.462 3.54714C311.197 3.54714 347.462 39.8121 347.462 84.5471V88.263H262.747V3.54714H266.462ZM347.462 344.696C347.462 299.961 311.197 263.696 266.462 263.696H262.746V348.412H347.462V344.696Z" fill="#CCC1A1"/>
</svg>
