<svg width="1628" height="438" viewBox="0 0 1628 438" fill="none" xmlns="http://www.w3.org/2000/svg">
<path fill-rule="evenodd" clip-rule="evenodd" d="M1564.13 0.737061V2.15139H1648.84L1649.84 2.15139L1650.84 2.15139L1654.56 2.15139L1736.56 2.15127L1737.56 2.15127V3.15127V85.1514V89.8672V90.8672L1737.56 175.583L1738.97 175.583L1737.56 176.998V177.583V262.299V263.299V264.299V345.299V350.015V351.015H1736.56L1650.84 351.015H1649.84L1648.84 351.015H1563.54L1562.13 352.43V351.015V350.388H1558.41L1477.41 350.388V351.016H1476.41L1390.14 351.015V352.328L1388.83 351.015L1388.7 351.015L1303.43 351.015H1302.43H1301.43L1216.13 351.015L1214.72 352.43V351.015H1130H1129H1128H1124.29L1043 351.015L1042.29 351.015H1041.29L956.287 351.016H955.287L868.986 351.015L867.571 352.43V351.015V350.016V264.299L782.856 264.299H781.856L695.882 264.299V306.03L695.882 306.135L695.882 306.241V349.493V350.493H695.762V436.13V437.13H694.762L608.046 437.13H607.046V436.13V350.388L526.472 350.388H521.756H520.756V349.388V264.299H435.041H434.041L349.402 264.299V264.299H348.402L284.594 264.299C321.683 272.593 349.402 305.709 349.402 345.3V350.016V351.016H348.402L262.686 351.016H261.686L260.687 351.016H175.385L173.97 352.43V351.016V350.388H170.255L88.2546 350.388H87.2546V349.388V267.388V264.3H1.53833H0.53833V263.3V219.94V218.94V176.584V175.584H0.538574V171.868V89.8677V88.8677H0.547882V3.25176V0.839339L2.25461 2.54428L87.2546 87.4549V3.15151V2.15151L88.2546 2.15151L174.556 2.15163L175.971 0.737305V2.15164V3.15151V3.15164V33.3002C181.593 15.2532 198.431 2.15188 218.328 2.15188C238.227 2.15188 255.065 15.2542 260.687 33.3021V3.15164V2.15164L260.687 2.15164H261.687H261.687H266.403L348.403 2.15151L349.403 2.15151V3.15151V66.6107C357.826 29.6966 390.858 2.15143 430.324 2.15143H435.04H436.04V3.15143V88.8674L436.041 88.8675L517.041 88.8676H520.756V3.15143V3.1513V2.15143V0.737095L522.171 2.15143L607.472 2.1513L608.472 2.1513L609.472 2.1513L694.774 2.15143L696.188 0.737095V2.15143V3.1513V3.15143V88.8675L777.14 88.8676L780.856 88.8676H781.856H868.572H869.572L873.287 88.8676C919.127 88.8676 956.287 126.028 956.287 171.868V175.583V176.583V177.583V260.885L1041.29 175.887V175.583V90.8674L955.288 90.8673H954.288L954.288 89.8673V59.7171C948.667 77.7651 931.828 90.8674 911.93 90.8674C887.431 90.8674 867.572 71.0077 867.572 46.5095C867.572 22.0114 887.431 2.1517 911.93 2.1517C931.828 2.1517 948.667 15.254 954.288 33.3019V3.15145V2.15145L955.288 2.15145H960.004L1041.29 2.15143L1042 2.15133H1043L1128 2.15131H1129L1130 2.15143H1215.3L1216.72 0.737091V2.15143V2.77875H1220.43L1301.43 2.77863V2.15118H1302.43L1388.71 2.15131V0.839095L1390.02 2.15131H1390.15L1475.41 2.15127L1476.41 2.15127L1477.41 2.15127L1562.71 2.15139L1564.13 0.737061ZM349.403 88.8672V85.1516V81.5504C351.287 38.4863 386.796 4.15143 430.324 4.15143H434.04V88.8672H349.403ZM349.402 175.583V90.8675H349.403L390.681 90.8674L390.681 175.583L349.402 175.583ZM349.402 218.939V177.584L390.681 177.583H391.681H433.855V218.939L349.402 218.939ZM349.402 262.299V220.939L433.855 220.939V262.299H349.402ZM347.363 82.5883C346.009 39.0394 310.28 4.15164 266.403 4.15164H262.687V88.8675H347.324V85.1514C347.324 84.294 347.337 83.4395 347.363 82.5883ZM347.325 90.8676L306.046 90.8676L306.046 175.584L347.139 175.583H347.325V90.8676ZM347.139 179.261L264.101 262.299L347.139 262.299V219.939V218.939V179.261ZM1648.84 153.675V90.8675L1586.04 90.8675C1617.27 97.8522 1641.86 122.441 1648.84 153.675ZM1564.13 175.583H1648.84V171.868C1648.84 127.133 1612.58 90.8676 1567.84 90.8676H1564.13V175.583ZM1650.84 175.583L1650.84 90.8675L1692.2 90.8673L1692.2 175.583L1650.84 175.583ZM1694.2 175.583L1694.2 90.8674L1735.56 90.8673V175.583L1694.2 175.583ZM1648.84 88.8673H1619.7C1633.57 84.545 1644.52 73.5926 1648.84 59.7171V88.8673ZM1390.7 218.939V177.584L1475.41 177.583V218.939L1390.7 218.939ZM1475.41 220.939V262.299H1390.7V220.939L1475.41 220.939ZM1562.13 88.8671H1478.83L1562.13 5.56548V46.4043L1562.13 46.5095L1562.13 46.6147V88.8671ZM1648.84 4.15139V33.3019C1644.52 19.4261 1633.57 8.47368 1619.69 4.15143L1648.84 4.15139ZM1593.28 4.15147C1579.4 8.47354 1568.45 19.4251 1564.13 33.2999V4.15151L1593.28 4.15147ZM1564.13 46.4067C1564.18 23.0604 1583.13 4.15164 1606.49 4.15164C1629.88 4.15164 1648.84 23.1159 1648.84 46.5095C1648.84 69.9031 1629.88 88.8673 1606.49 88.8673C1583.13 88.8673 1564.18 69.9586 1564.13 46.6123V46.4067ZM1564.13 59.719C1568.45 73.5937 1579.4 84.5452 1593.28 88.8673H1564.13V59.719ZM1477.41 90.8675H1562.13V175.583H1558.34C1513.64 175.545 1477.41 139.295 1477.41 94.5833V90.8675ZM1540.22 175.583L1477.41 175.583V112.776C1484.4 144.01 1508.99 168.599 1540.22 175.583ZM1471.7 90.8676H1475.41V175.583H1390.7V171.868C1390.7 127.133 1426.96 90.8676 1471.7 90.8676ZM1390.7 153.675C1397.68 122.441 1422.27 97.8522 1453.5 90.8675L1390.7 90.8675V153.675ZM1477.41 177.583L1558.41 177.583L1562.13 177.583V261.672H1477.41V177.583ZM1564.13 261.672V177.583H1648.84V262.299L1564.13 262.299V261.672ZM1564.13 264.3H1647.43L1564.13 347.601V264.3ZM1475.41 264.3V267.388V349.016L1390.7 349.015V264.3H1475.41ZM1477.41 348.388V285.581C1484.4 316.815 1508.99 341.403 1540.22 348.388L1477.41 348.388ZM1558.41 348.388C1513.68 348.388 1477.41 312.123 1477.41 267.388V264.299H1562.13V348.388H1558.41ZM1648.84 349.015L1565.54 349.015L1648.84 265.713V349.015ZM1735.56 345.299V349.015H1650.84V264.299H1654.56C1699.3 264.299 1735.56 300.564 1735.56 345.299ZM1672.75 264.299C1703.99 271.284 1728.58 295.873 1735.56 327.107V264.299L1672.75 264.299ZM1477.41 4.15127V87.4529L1560.71 4.15139L1477.41 4.15127ZM1475.41 4.15127L1392.02 4.15139L1475.41 87.4547V4.15127ZM1390.71 88.8671H1474L1390.71 5.66393V88.8671ZM1650.84 260.885V177.583H1734.15L1650.84 260.885ZM1652.26 262.299L1735.56 178.998V262.299L1652.26 262.299ZM1735.56 66.9587C1728.58 35.7246 1703.99 11.136 1672.75 4.15136L1735.56 4.15127V66.9587ZM1735.56 85.1514C1735.56 40.4163 1699.3 4.15139 1654.56 4.15139H1650.84V88.8672H1735.56V85.1514ZM1130 262.299V199.492C1136.99 230.726 1161.58 255.315 1192.81 262.299L1130 262.299ZM1130 177.583H1214.72V262.299H1211C1166.27 262.299 1130 226.034 1130 181.299V177.583ZM1128 262.299L1128 177.583L1086.64 177.583L1086.64 262.299L1128 262.299ZM1084.64 262.299L1084.64 177.583L1043.29 177.583V262.299L1084.64 262.299ZM1159.15 264.299H1130V293.45C1134.32 279.574 1145.28 268.622 1159.15 264.299ZM1388.15 175.583V134.227L1303.43 134.227V175.583L1388.15 175.583ZM1303.43 90.8673V132.227L1388.15 132.227V90.8673H1303.43ZM1300.02 264.3H1216.72V306.552L1216.72 306.657L1216.72 306.762V347.601L1300.02 264.3ZM1130 319.865V349.015L1159.15 349.015C1145.28 344.693 1134.32 333.741 1130 319.865ZM1214.72 319.867C1210.4 333.742 1199.44 344.693 1185.57 349.015L1214.72 349.015V319.867ZM1172.36 349.015C1195.72 349.015 1214.66 330.106 1214.72 306.76V306.554C1214.66 283.208 1195.72 264.299 1172.36 264.299C1148.97 264.299 1130 283.264 1130 306.657C1130 330.051 1148.97 349.015 1172.36 349.015ZM1185.57 264.299C1199.44 268.622 1210.4 279.573 1214.72 293.448V264.299H1185.57ZM1216.72 262.299H1301.43V258.583C1301.43 213.872 1265.21 177.622 1220.5 177.583H1216.72V262.299ZM1301.43 177.583L1238.63 177.583C1269.86 184.568 1294.45 209.157 1301.43 240.391V177.583ZM1303.43 262.299H1307.15C1351.89 262.299 1388.15 226.034 1388.15 181.299V177.583H1303.43V262.299ZM1325.34 262.299C1356.58 255.315 1381.17 230.726 1388.15 199.492V262.299L1325.34 262.299ZM1220.43 175.583L1301.43 175.583V91.4946H1216.72V175.583L1220.43 175.583ZM1214.72 175.583V91.4946V90.8676L1130 90.8675V175.583H1214.72ZM1131.42 88.8671H1214.72V5.56601L1131.42 88.8671ZM1303.43 85.7787V88.8671H1388.15V4.15131L1303.43 4.15118V85.7787ZM1301.43 67.586V4.77863L1238.63 4.77872C1269.86 11.7634 1294.45 36.3519 1301.43 67.586ZM1301.43 85.7787C1301.43 41.0437 1265.17 4.77875 1220.43 4.77875H1216.72V88.8676H1301.43V85.7787ZM1213.3 4.15143L1130 4.15131V87.4533L1213.3 4.15143ZM1043.29 4.15143V7.86725C1043.29 52.6023 1079.55 88.8672 1124.29 88.8672H1128V4.15143H1043.29ZM1043.29 26.06C1050.27 57.2941 1074.86 81.8826 1106.09 88.8673L1043.29 88.8674V26.06ZM1301.43 265.714V349.015L1218.13 349.015L1301.43 265.714ZM1386.82 349.015L1303.43 349.015V265.712L1386.82 349.015ZM1304.85 264.3H1388.14V347.503L1304.85 264.3ZM1128 175.583V92.2817L1044.7 175.583H1128ZM1043.29 174.169L1126.59 90.8676L1043.29 90.8675V174.169ZM1106.09 349.015C1074.86 342.031 1050.27 317.442 1043.29 286.208V349.015L1106.09 349.015ZM1124.29 349.015C1079.55 349.015 1043.29 312.75 1043.29 268.015V264.3H1128V349.015H1124.29ZM607.166 348.388V286.901C599.791 317.507 575.458 341.502 544.665 348.388L607.166 348.388ZM607.166 274.487V264.299H522.757L522.757 348.388H526.472C568.816 348.388 603.57 315.897 607.166 274.487ZM607.424 261.672V177.583H526.472H522.757V261.672H607.424ZM607.472 175.583L607.424 175.583L544.665 175.583C575.899 168.599 600.488 144.01 607.472 112.776V175.583ZM694.14 171.868V169.032C692.646 125.61 656.974 90.8676 613.188 90.8676H609.473V175.583L694.14 175.583V171.868ZM694.14 153.458V90.8675L631.381 90.8676C662.543 97.8361 687.09 122.327 694.14 153.458ZM638.062 348.414H609.472V320.29C613.962 333.632 624.623 344.138 638.062 348.414ZM648.908 348.414C628.44 347.167 611.898 331.384 609.472 311.255V301.015C611.735 282.233 626.29 267.235 644.857 264.299H658.192C678.385 267.492 693.832 284.954 693.882 306.033V306.238C693.828 328.706 676.281 347.065 654.14 348.414H648.908ZM636.745 264.299C623.928 268.827 613.814 279.077 609.472 291.981V267.388V264.299H636.745ZM692.726 177.583L609.472 260.836V177.583L692.726 177.583ZM697.554 175.583L696.188 175.583V171.868V169.032C697.682 125.61 733.354 90.8676 777.14 90.8676H780.856V175.583H697.554ZM758.947 90.8676C727.785 97.8361 703.238 122.327 696.188 153.458V90.8671L758.947 90.8676ZM434.041 175.583L392.681 175.583L392.681 90.8674L434.041 90.8675L434.041 175.583ZM436.041 153.675V90.8675L498.848 90.8676C467.614 97.8522 443.025 122.441 436.041 153.675ZM520.756 175.583L436.041 175.583V171.868C436.041 127.133 472.306 90.8676 517.041 90.8676H520.756V175.583ZM607.472 90.8676H522.757V175.583H526.472C571.207 175.583 607.472 139.318 607.472 94.5834V90.8676ZM520.756 261.672V177.583H436.041V262.299L520.756 262.299V261.672ZM607.472 4.1513V87.4529L524.171 4.15142L607.472 4.1513ZM609.472 4.1513L692.774 4.15142L609.472 87.4529V4.1513ZM694.188 5.56551V88.8671H610.887L694.188 5.56551ZM522.756 88.8671V5.56551L606.058 88.8671H522.756ZM978.197 4.15142L1041 4.15133V66.9587C1034.02 35.7246 1009.43 11.1361 978.197 4.15142ZM1041 85.1515V88.8673H956.288V4.15145H960.004C1004.74 4.15145 1041 40.4164 1041 85.1515ZM780.856 220.939V262.299H696.14V220.94L780.856 220.939ZM696.14 218.94L780.856 218.939V177.584L696.14 177.583V218.94ZM694.14 218.94V219.94V261.777H651.524H611.36L694.14 178.998V218.94ZM867.572 90.8676H782.856V94.5834C782.856 139.286 819.068 175.53 863.758 175.583L863.856 175.583L867.571 175.583L867.572 90.8676ZM845.663 175.583C814.429 168.599 789.841 144.01 782.856 112.776V175.584L845.663 175.583ZM863.856 177.583H782.856V262.299L867.571 262.299V177.583H863.856ZM873.287 90.8676H869.572V175.583H954.287V171.868C954.287 127.133 918.023 90.8676 873.287 90.8676ZM870.986 349.015L954.287 349.016V265.714L870.986 349.015ZM1041 349.015V345.3C1041 300.565 1004.74 264.3 960.004 264.3H956.288V349.015H1041ZM1041 327.107C1034.02 295.873 1009.43 271.284 978.196 264.3L1041 264.299V327.107ZM954.287 262.299V177.583H869.572V262.299L954.287 262.299ZM869.571 264.3V347.601L952.873 264.3H869.571ZM1041 262.299H957.702L1041 178.998V262.299ZM693.882 348.414H664.986C678.741 344.038 689.586 333.135 693.882 319.345V348.414ZM693.762 435.13V350.493L609.046 350.493V435.13L693.762 435.13ZM693.882 292.926V264.299L666.304 264.299C679.431 268.937 689.724 279.579 693.882 292.926ZM954.287 46.5095C954.287 23.116 935.323 4.1517 911.93 4.1517C888.536 4.1517 869.572 23.116 869.572 46.5095C869.572 69.9031 888.536 88.8674 911.93 88.8674C935.323 88.8674 954.287 69.9031 954.287 46.5095ZM260.686 88.8676H260.687V59.7173C256.365 73.5931 245.413 84.5455 231.537 88.8677L260.686 88.8676ZM262.686 175.584L304.046 175.584L304.046 90.8676L262.686 90.8677L262.686 175.584ZM260.686 90.8677V153.675C253.702 122.441 229.113 97.8524 197.879 90.8678L260.686 90.8677ZM260.686 175.584H175.971V90.8678H179.686C224.421 90.8678 260.686 127.133 260.686 171.868V175.584ZM2.53833 177.584V218.94L87.2544 218.94V177.584L2.53833 177.584ZM87.2544 262.3V220.94L2.53833 220.94V262.3H87.2544ZM179.686 88.8678L205.12 88.8678C191.245 84.5457 180.293 73.5941 175.971 59.7193V88.8678H179.686ZM175.971 46.6125V46.4069C176.026 23.0606 194.969 4.15188 218.328 4.15188C241.722 4.15188 260.686 23.1161 260.686 46.5097C260.686 69.9033 241.722 88.8676 218.328 88.8676C194.969 88.8676 176.026 69.9588 175.971 46.6125ZM173.971 88.8673V46.6149L173.971 46.5097L173.971 46.4045V5.56572L90.6689 88.8673H173.971ZM152.062 175.584L89.2546 175.584V112.776C96.2393 144.01 120.828 168.599 152.062 175.584ZM89.2546 94.5836V90.8678H173.97V175.584H170.184C125.481 175.545 89.2546 139.295 89.2546 94.5836ZM89.2546 177.584V261.672H173.97V177.584L170.255 177.584L89.2546 177.584ZM2.53857 153.675V90.8677L65.346 90.8678C34.1119 97.8524 9.52328 122.441 2.53857 153.675ZM83.5386 90.8678H87.2544V175.584H2.53857V171.868C2.53857 127.133 38.8035 90.8678 83.5386 90.8678ZM175.971 264.3V347.601L259.272 264.3H175.971ZM175.971 262.299V261.672V177.584H260.686V262.299L175.971 262.299ZM152.062 348.388L89.2546 348.388V285.581C96.2393 316.815 120.828 341.404 152.062 348.388ZM89.2546 267.388V264.299H173.97V348.388H170.255C125.52 348.388 89.2546 312.123 89.2546 267.388ZM89.2546 87.4531V4.15151L172.556 4.15163L89.2546 87.4531ZM85.8386 88.8673H2.54788V5.66418L85.8386 88.8673ZM260.686 349.016V265.714L177.385 349.016L260.686 349.016ZM262.686 260.885V177.584H345.988L262.686 260.885ZM284.595 4.1516C315.829 11.1363 340.418 35.7248 347.403 66.9589V4.15151L284.595 4.1516ZM347.402 345.3C347.402 300.565 311.137 264.3 266.402 264.3H262.687V349.016H347.402V345.3Z" fill="#CCC1A1"/>
</svg>
