<svg width="352" height="352" viewBox="0 0 352 352" fill="none" xmlns="http://www.w3.org/2000/svg">
<path fill-rule="evenodd" clip-rule="evenodd" d="M175.786 350.289V351.704L177.2 350.289L263.502 350.289L264.502 350.289V349.289V264.986L349.502 349.896L351.208 351.601V349.189V263.573H351.218V262.573V180.572V176.857H351.218V175.857V133.501V132.501V89.1413V89.1408V88.1413V88.1408H350.218H264.502V85.0522V3.05209V2.05209H263.502L181.502 2.05222H177.786V1.42526V0.0109253L176.372 1.42526L91.0699 1.42514V1.4249H90.0699H3.3541H2.3541V2.4249V7.14072C2.3541 46.7313 30.0733 79.8476 67.1629 88.1411L3.354 88.141H2.354V89.141V174.858V175.443L0.939789 176.857L2.354 176.857V261.573H2.35352V262.573V267.289V349.289V350.289L3.35352 350.289L85.3535 350.289H90.0693H90.0696H91.0693L91.0696 350.289V349.289V319.138C96.6911 337.186 113.529 350.288 133.428 350.288C153.326 350.288 170.164 337.187 175.786 319.14V349.289V349.289V350.289ZM89.0693 263.573L4.35352 263.574V267.289C4.35352 312.024 40.6185 348.289 85.3535 348.289H89.0693V263.573ZM91.0701 263.573V263.573H91.0696V292.723C95.3915 278.847 106.344 267.895 120.219 263.573L91.0701 263.573ZM91.0701 261.573V198.765C98.0548 229.999 122.643 254.588 153.878 261.573L91.0701 261.573ZM91.0701 176.857H175.786V261.572H172.07C127.335 261.572 91.0701 225.308 91.0701 180.572V176.857ZM4.354 261.573V176.858H45.71L45.71 261.573H4.354ZM47.71 261.573L47.71 176.858H89.0701L89.07 261.573H47.71ZM5.76822 174.857H45.71H46.71L89.0701 174.857V91.5552L5.76822 174.857ZM349.218 174.857V133.501L264.502 133.501V174.857L349.218 174.857ZM264.502 90.1413V131.501L349.218 131.501V90.1413H264.502ZM264.502 176.857H349.218V180.572C349.218 225.308 312.953 261.572 268.218 261.572H264.502V176.857ZM172.07 263.572L146.636 263.573C160.511 267.895 171.463 278.846 175.786 292.721V263.573V263.572H172.07ZM175.786 305.828V306.033C175.73 329.38 156.787 348.288 133.428 348.288C110.034 348.288 91.0701 329.324 91.0701 305.931C91.0701 282.537 110.034 263.573 133.428 263.573C156.787 263.573 175.73 282.481 175.786 305.828ZM177.786 263.574V305.825L177.786 305.931L177.786 306.036V346.875L261.087 263.574H177.786ZM262.502 174.857H181.502H177.786V174.857V90.768H262.502V174.857V174.857ZM262.502 239.664C255.517 208.43 230.928 183.842 199.694 176.857L262.502 176.857V239.664ZM262.502 257.857V261.573H177.786V176.857H181.502C226.237 176.857 262.502 213.122 262.502 257.857ZM349.218 198.765V261.573L286.41 261.573C317.644 254.588 342.233 229.999 349.218 198.765ZM175.786 88.141H92.4843L175.786 4.83984V88.141ZM175.786 90.1411V90.768V174.857H91.0701V90.141L175.786 90.1411ZM199.694 4.05219L262.502 4.05209V66.8595C255.517 35.6254 230.928 11.0368 199.694 4.05219ZM262.502 85.0522V88.1411H177.786V4.05222H181.502C226.237 4.05222 262.502 40.3172 262.502 85.0522ZM262.502 264.988V348.289L179.2 348.289L262.502 264.988ZM265.918 263.573H349.208V346.776L265.918 263.573ZM174.372 3.42526L91.0701 3.42514V86.7267L174.372 3.42526ZM87.6557 90.1411L4.354 173.443V90.141L87.6557 90.1411ZM67.1609 348.289C35.9268 341.305 11.3382 316.716 4.35352 285.482V348.289L67.1609 348.289ZM4.3541 7.14072C4.3541 51.8758 40.619 88.1407 85.3541 88.1407H89.0699V3.4249H4.3541V7.14072Z" fill="#CCC1A1"/>
</svg>
