<svg width="65" height="563" viewBox="0 0 65 563" fill="none" xmlns="http://www.w3.org/2000/svg">
    <path fill-rule="evenodd" clip-rule="evenodd"
          d="M62.5315 338.344H64.9457L63.2386 336.636L-0.997955 272.4V271.814V209.283H-0.995117V208.283L-0.995071 144.616V143.616V80.0866H62.0674H63.0674L63.0674 79.0865L63.0675 14.5573V13.5573H62.0675H-0.995163L-1.99516 13.5572H-65.5243V-49.9716V-50.9716H-66.5243H-130.054L-131.054 -50.972H-195.583H-195.583H-196.583H-197.997L-196.583 -49.5577L-196.583 13.5573L-196.583 14.5573L-196.583 15.5573L-196.583 78.6723L-197.997 80.0866H-196.583H-195.583H-195.583H-132.053L-132.053 142.615L-132.054 142.616H-195.583V143.616H-196.583C-196.583 174.443 -175.297 200.298 -146.622 207.285H-195.586H-196.586V208.285L-196.586 272.814V273.814H-196.119L-196.119 336.343H-196.586H-198L-196.586 337.758V400.872L-196.586 400.873L-196.586 401.872L-196.586 401.873L-196.586 401.873V402.873L-196.586 466.402L-196.586 467.402H-195.586H-132.056H-131.056H-130.056H-67.5271H-66.9414L-65.5272 468.816L-65.5271 467.402H-2.99776V467.402H-1.99776H62.5315H63.5315V466.402L63.5314 401.873V400.873H62.5314H41.6531C54.4169 396.223 63.5312 383.98 63.5312 369.608C63.5312 355.236 54.4169 342.993 41.653 338.344H62.5315ZM-0.997879 400.872V400.873H18.8802C9.66852 397.517 2.35773 390.206 -0.997986 380.995L-0.997879 400.872ZM-2.99783 465.402L-2.99788 435.139L-65.5271 435.139L-65.5271 465.402H-2.99783ZM-65.5271 433.139L-2.99788 433.139L-2.99792 402.873H-65.5271L-65.5271 433.139ZM-67.5272 463.987L-67.5272 435.139V434.139L-67.5272 402.873H-128.642L-67.5272 463.987ZM-50.3957 400.872H-2.99796L-2.99802 353.473C-8.87802 376.704 -27.1653 394.992 -50.3957 400.872ZM-67.5271 273.814L-97.7903 273.814H-98.7903L-129.59 273.814V336.343H-67.5271L-67.5272 273.814L-67.5271 273.814ZM-130.056 209.285V271.814H-99.7903L-99.7904 209.285L-130.056 209.285ZM-97.7903 271.814L-97.7904 209.285H-67.5273L-67.5272 271.814H-97.7903ZM-65.5272 209.293C-31.235 209.822 -3.53506 237.522 -3.00575 271.814L-65.5271 271.814L-65.5272 209.293ZM-0.998047 338.344L-0.998016 358.222C2.3577 349.01 9.66852 341.699 18.8802 338.344H-0.998047ZM-18.1294 273.815H-65.5272L-65.5271 321.214C-59.6471 297.983 -41.3598 279.695 -18.1294 273.815ZM-50.3974 209.285H-2.99796L-2.99802 256.685C-8.87816 233.453 -27.1662 215.165 -50.3974 209.285ZM-193.172 338.343H-132.057V399.459L-193.172 338.343ZM-129.59 338.343H-67.5271V400.872H-130.056L-130.056 338.344L-129.59 338.343ZM-132.057 271.814H-194.586L-194.586 209.285H-132.057V271.814ZM-194.119 321.214L-194.119 273.814H-146.719C-169.951 279.694 -188.239 297.982 -194.119 321.214ZM-132.056 336.343V336.343L-194.111 336.343C-193.584 302.207 -166.133 274.603 -132.056 273.831V336.343ZM-2.99792 336.343H-65.5194C-64.9902 302.051 -37.2903 274.351 -2.99792 273.822V336.343ZM-194.586 400.872H-133.471L-194.586 339.758L-194.586 400.872ZM-132.057 418.002L-132.056 465.402H-179.456C-156.225 459.521 -137.937 441.233 -132.057 418.002ZM-194.586 465.394V402.873H-132.064C-132.594 437.165 -160.293 464.865 -194.586 465.394ZM-65.5272 400.865V338.344H-3.00575C-3.53494 372.636 -31.2349 400.336 -65.5272 400.865ZM-0.99765 336.344V275.228L60.1173 336.344H-0.99765ZM-130.056 404.287L-68.9414 465.402H-130.056L-130.056 404.287ZM-0.997757 465.395V402.873H61.5237C60.9945 437.165 33.2946 464.865 -0.997757 465.395ZM61.5314 418.003C55.6513 441.234 37.3633 459.522 14.132 465.402H61.5315L61.5314 418.003ZM61.5312 369.608C61.5312 386.875 47.5336 400.873 30.2667 400.873C12.9997 400.873 -0.997879 386.875 -0.997879 369.608C-0.997879 352.341 12.9997 338.344 30.2667 338.344C47.5336 338.344 61.5312 352.341 61.5312 369.608ZM64.9458 633.344H62.5316H41.6531C54.4169 637.993 63.5313 650.236 63.5313 664.608C63.5313 678.98 54.417 691.223 41.6532 695.873H62.5315H63.5315V696.873V696.873L63.5316 761.402V762.402H62.5316H-1.99767H-2.99767V762.402H-65.527L-65.5271 763.816L-66.9413 762.402H-67.527H-130.056H-131.056H-132.056H-195.586H-196.586L-196.586 761.402L-196.586 697.873V696.873L-196.586 696.873L-196.586 696.872L-196.586 695.873L-196.586 695.872V632.758L-198 631.343H-196.586H-196.119L-196.119 568.814H-196.586V567.814L-196.586 503.285V502.285H-195.586H-132.056H-131.057H-131.056H-130.057H-66.5272H-65.5272V502.285H-1.99786H-0.997864V503.285L-0.997864 566.814V567.4L63.2387 631.636L64.9458 633.344ZM-0.997787 695.873V695.873L-0.997833 695.872L-0.997894 675.995C2.35782 685.206 9.66861 692.517 18.8803 695.873H-0.997787ZM-2.99779 730.139L-2.99774 760.402H-65.527L-65.527 730.139L-2.99779 730.139ZM-2.99779 728.139L-65.527 728.139L-65.527 697.873H-2.99783L-2.99779 728.139ZM-67.5271 730.139L-67.5271 758.987L-128.642 697.873H-67.5271L-67.5271 729.139V730.139ZM-2.99786 695.872H-50.3957C-27.1652 689.992 -8.87793 671.704 -2.99792 648.473L-2.99786 695.872ZM-97.7902 568.814L-67.527 568.814L-67.5271 568.814V568.815L-67.527 631.343H-129.59V568.814L-98.7903 568.814H-97.7902ZM-130.056 566.814V504.285L-99.7903 504.285L-99.7903 566.814H-130.056ZM-97.7903 504.285L-97.7903 566.814H-67.5271L-67.5272 504.285H-97.7903ZM-3.00568 566.814C-3.535 532.522 -31.2349 504.822 -65.5271 504.293L-65.527 566.814V566.814H-3.00568ZM-0.997925 653.222L-0.997955 633.344H18.8804C9.66866 636.699 2.35779 644.01 -0.997925 653.222ZM-65.5271 568.815H-18.1294C-41.3598 574.695 -59.647 592.983 -65.527 616.214L-65.5271 568.815ZM-2.99786 504.285H-50.3973C-27.1661 510.165 -8.87807 528.453 -2.99792 551.685L-2.99786 504.285ZM-132.057 633.343H-193.171L-132.057 694.459V633.343ZM-129.59 633.344V633.343H-67.527L-67.527 633.344L-67.527 695.872H-130.056L-130.056 633.344H-129.59ZM-194.586 566.814H-132.057V504.285H-194.586L-194.586 566.814ZM-194.119 568.814L-194.119 616.214C-188.239 592.982 -169.951 574.694 -146.719 568.814H-194.119ZM-132.056 631.343V631.343V568.831C-166.133 569.603 -193.584 597.207 -194.111 631.343L-132.056 631.343ZM-65.5193 631.343H-2.99783V568.822C-37.2902 569.351 -64.9901 597.051 -65.5193 631.343ZM-133.471 695.872H-194.586L-194.586 634.758L-133.471 695.872ZM-132.056 760.402L-132.056 713.002C-137.937 736.233 -156.225 754.522 -179.456 760.402H-132.056ZM-194.586 697.873V760.394C-160.293 759.865 -132.593 732.165 -132.064 697.873H-194.586ZM-65.5271 633.344V695.865C-31.2348 695.336 -3.53485 667.636 -3.00566 633.344H-65.5271ZM-0.997559 570.228V631.344H60.1174L-0.997559 570.228ZM-68.9413 760.402L-130.056 699.287L-130.056 760.402H-68.9413ZM-0.997665 697.873V760.395C33.2946 759.865 60.9946 732.165 61.5238 697.873H-0.997665ZM14.1321 760.402C37.3634 754.522 55.6514 736.234 61.5315 713.003L61.5316 760.402H14.1321ZM30.2668 695.873C47.5337 695.873 61.5313 681.875 61.5313 664.608C61.5313 647.341 47.5337 633.344 30.2668 633.344C12.9998 633.344 -0.997787 647.341 -0.997787 664.608C-0.997787 681.875 12.9998 695.873 30.2668 695.873ZM-35.2612 144.754H-65.5244L-65.5242 175.882V176.882L-65.5243 193.963L-65.5243 207.283H-35.2612L-35.2612 144.754ZM-33.2612 207.283H-2.99512V144.754H-33.2612L-33.2612 207.283ZM-67.5243 176.882V207.145H-130.054L-130.054 176.882H-67.5243ZM-67.5243 144.616L-67.5242 174.882H-130.054L-130.053 144.616H-67.5243ZM-130.053 95.2164L-130.054 142.615H-82.6559C-105.886 136.735 -124.173 118.447 -130.053 95.2164ZM-2.99507 142.616H-65.5243L-65.5243 80.0866L-3.4617 80.0865L-2.99516 80.0866L-2.99507 142.616ZM-82.654 -48.9716C-105.885 -43.0914 -124.173 -24.8034 -130.053 -1.57212L-130.054 -48.9716H-82.654ZM-67.5243 -48.9639L-67.5243 13.5572L-130.046 13.5573C-129.516 -20.7349 -101.817 -48.4347 -67.5243 -48.9639ZM-114.922 15.5577C-91.6916 21.4383 -73.4043 39.726 -67.5243 62.9568L-67.5242 15.5577H-114.922ZM-65.5243 15.5572L-65.5243 15.5577L-65.5243 78.0863H-3.46173L-3.46173 15.5572H-65.5243ZM61.0675 62.9569C55.1874 39.7256 36.8993 21.4375 13.668 15.5573H61.0675L61.0675 62.9569ZM61.0597 78.0865H-0.995163L-0.995163 15.5739C33.0815 16.3459 60.5329 43.9498 61.0597 78.0865ZM-130.053 15.565V78.0865H-67.532C-68.0612 43.7942 -95.7612 16.0942 -130.053 15.565ZM-67.5243 142.608V80.0868H-130.046C-129.517 114.379 -101.817 142.079 -67.5243 142.608ZM-194.583 15.5573H-133.468L-194.583 76.6723L-194.583 15.5573ZM-194.583 13.5573L-194.583 -47.5577L-133.468 13.5573H-194.583ZM-193.169 -48.972H-132.054V12.1431L-193.169 -48.972ZM-132.054 78.0866H-193.169L-132.054 16.9715V78.0866ZM-132.054 144.616L-132.054 207.138C-166.346 206.608 -194.046 178.909 -194.575 144.616H-132.054Z"
          fill="#E6D4AE"/>
</svg>
