<svg width="163" height="41" viewBox="0 0 163 41" fill="none" xmlns="http://www.w3.org/2000/svg">
<path fill-rule="evenodd" clip-rule="evenodd" d="M107.736 0.698989V0.492232H118.967V2.54011H109.109L98.9809 22.7333L87.8292 0.492232H90.1234L98.9809 18.1584L107.736 0.698989ZM84.0209 6.34377L98.9809 36.1791C102.203 29.7565 105.426 23.3306 108.645 16.908L108.721 16.7604H108.796V16.7571H110.847V16.7604H111.015L110.847 17.0918V38.3615H116.916V8.55902H118.967V40.4061H108.796V21.1843C105.603 27.5478 102.414 33.908 99.2245 40.2715L98.9809 40.7539L89.2709 21.3878V40.4061H87.2203V17.3019L81.7267 6.34377H47.9392V15.254H49.9569L50.0063 8.34241H81.1474V40.4061H79.0968V10.387H52.0536L52.0075 15.254H64.0414V17.2986H41.8235V10.4034H23.3219V40.3962H21.2679V10.4034H19.2568V40.3929H17.2062V10.4034H15.1918V40.3962H13.1412V10.4034H0.0244141V8.35554H0.294319C5.93271 8.35554 11.5678 8.35554 17.2062 8.35554V6.34377H0.0244141V4.29918H0.294319C13.3781 4.29918 26.462 4.29918 39.5458 4.29918H39.8157V6.34377H19.2568V8.35554C26.778 8.35554 34.3024 8.35554 41.8235 8.35554V2.29069H0.0244141V0.246094L78.952 0.252657H80.9664H81.2396L81.1046 0.525051L82.994 4.29589H87.5132L98.9809 27.1671L108.312 8.55902H110.607L98.9809 31.742L86.246 6.34377H84.0209ZM79.6959 2.29069H43.8742V15.254H45.8886V4.29589H80.6998L79.6959 2.29069ZM49.9536 25.3982H47.9392V34.3084H71.6514V36.353H45.8886V25.3982H43.8742V38.3615H71.6481V40.4061H41.8235V23.3536H45.8886V19.3005H64.0414V21.3484H47.9392V23.3536H64.0414V25.3982H52.0042V30.2652H71.6514V32.3098H49.9536V25.3982ZM128.463 4.28933H158.018V40.3995H155.964V6.3372H128.463V40.3995H126.413V6.3372H114.731V36.3891H112.68V4.28933H126.413V0.252657H158.018V2.29725H128.463V4.28933ZM130.474 8.35226H132.528V40.3995H130.474V8.35226ZM160.029 0.252657H162.08V40.3995H160.029V0.252657ZM85.2092 40.4061H83.1553V19.3005H85.2092V40.4061ZM152.086 10.3903H136.774V40.4061H134.72V8.3457H154.134L154.137 40.4061H152.086V10.3903Z" fill="#50696E"/>
</svg>
