<svg width="739" height="438" viewBox="0 0 739 438" fill="none" xmlns="http://www.w3.org/2000/svg">
<path fill-rule="evenodd" clip-rule="evenodd" d="M1217.16 435.912V437.326L1215.74 435.912L1130.44 435.912L1129.44 435.912L1128.44 435.912L1043.05 435.912L1041.73 437.224V435.912H1041.72L955.461 435.912H954.461V435.284L873.461 435.284H869.745V435.912V437.326L868.331 435.912H783.029L782.029 435.912H781.029L696.031 435.912H695.031L694.313 435.912L613.031 435.912H608.315L607.315 435.912V434.912V404.761C601.693 422.809 584.855 435.911 564.956 435.911C540.458 435.911 520.599 416.052 520.599 391.554C520.599 367.055 540.458 347.196 564.956 347.196C584.855 347.196 601.693 360.298 607.315 378.346V348.196L607.315 347.196H608.315L694.313 347.196V262.48V262.177L609.314 177.178V260.48V261.48V262.48V266.195C609.314 312.035 572.154 349.195 526.314 349.195L522.599 349.196H521.599H434.883H433.883L430.167 349.195L349.215 349.196V434.912V434.912V435.912V437.326L347.801 435.912L262.499 435.912L261.499 435.912L260.499 435.912L175.198 435.912L173.783 437.326V435.912V434.912V434.912V349.196H170.068L89.0677 349.196H89.0676V349.196H89.067V434.912V435.912H88.067H83.3512C37.5116 435.912 0.351196 398.751 0.351196 352.912V348.196V347.196H0.351685V262.48H0.166382V261.48V219.124V218.124V174.764V173.764H1.16638L87.0677 173.764H88.0677H173.783V88.675V87.675H173.784H174.783H174.784H179.499L260.072 87.6749V1.93381V0.933807H261.072L347.788 0.933685H348.788V1.93369V87.5698H348.909V88.5698V131.823L348.909 131.928L348.909 132.033V173.764L434.882 173.764H435.882V173.764L520.598 173.764V88.0475V87.0476V85.6333L522.013 87.0476L608.314 87.0475H609.314L694.313 87.0476H695.313L777.313 87.0478H781.029H782.029H783.029H867.745V85.6334L869.159 87.0478L954.461 87.0476H955.461H956.461L1041.72 87.0475L1041.85 87.0478L1043.17 85.7354V87.0478L1129.44 87.0474H1130.44V87.6749L1211.44 87.675H1215.15V87.0478V85.6335L1216.57 87.0478H1301.87L1302.87 87.0477H1303.87L1389.59 87.0478H1390.59V88.0478V92.7636L1390.59 173.764V174.764V261.065L1392 262.48L1390.59 262.48L1390.59 347.196V348.196V352.912V434.912V435.912L1389.59 435.912L1307.59 435.912H1302.87L1301.87 435.912V435.912L1217.16 435.912V435.912ZM1272.72 349.196L1301.87 349.196V378.346C1297.55 364.47 1286.6 353.518 1272.72 349.196ZM1388.59 347.196L1347.23 347.196L1347.23 262.48H1388.59V347.196ZM1345.23 262.48H1303.87L1303.87 347.196L1345.23 347.196L1345.23 262.48ZM1301.87 347.196V284.388C1294.89 315.622 1270.3 340.211 1239.06 347.196L1301.87 347.196ZM1301.87 262.48H1217.16V347.196H1220.87C1265.61 347.196 1301.87 310.931 1301.87 266.196V262.48ZM1043.72 260.479V219.124L1128.44 219.124V260.48L1043.72 260.479ZM1128.44 175.764V217.124L1043.72 217.124V175.764H1128.44ZM1131.85 349.196H1215.16V391.448L1215.16 391.554L1215.16 391.659V432.498L1131.85 349.196ZM1301.87 404.761V433.912L1272.72 433.912C1286.6 429.589 1297.55 418.637 1301.87 404.761ZM1217.16 404.763C1221.48 418.638 1232.43 429.59 1246.3 433.912L1217.16 433.912V404.763ZM1259.51 433.911C1236.15 433.911 1217.21 415.003 1217.16 391.656V391.451C1217.21 368.105 1236.15 349.196 1259.51 349.196C1282.91 349.196 1301.87 368.16 1301.87 391.554C1301.87 414.947 1282.91 433.911 1259.51 433.911ZM1246.3 349.196C1232.43 353.518 1221.48 364.469 1217.16 378.344V349.196H1246.3ZM1128.44 347.196H1124.72C1079.99 347.196 1043.72 310.931 1043.72 266.196V262.48H1128.44V347.196ZM1106.53 347.196C1075.3 340.211 1050.71 315.622 1043.72 284.388V347.196L1106.53 347.196ZM1130.44 260.48V176.391H1215.15L1215.15 260.48L1211.44 260.48L1130.44 260.48ZM1217.16 260.48V176.391V175.764L1301.87 175.764V260.48H1217.16ZM1300.46 173.764H1217.16V90.4625L1300.46 173.764ZM1128.44 170.675V173.763H1043.72V89.0475L1128.44 89.0474V170.675ZM1130.44 152.482V89.6749L1193.25 89.675C1162.01 96.6596 1137.42 121.248 1130.44 152.482ZM1130.44 170.675C1130.44 125.94 1166.7 89.675 1211.44 89.675H1215.15V173.764L1130.44 173.764V170.675ZM1130.44 347.195V343.48C1130.44 298.768 1166.67 262.518 1211.37 262.48H1215.15L1215.15 347.195H1130.44ZM1130.44 262.48L1193.25 262.48C1162.01 269.464 1137.42 294.053 1130.44 325.287V262.48ZM1218.57 89.0478L1301.87 89.0477L1301.87 172.35L1218.57 89.0478ZM1388.59 89.0478V92.7636C1388.59 137.499 1352.32 173.764 1307.59 173.764H1303.87V89.0478H1388.59ZM1388.59 110.956C1381.6 142.19 1357.01 166.779 1325.78 173.764L1378.47 173.764H1388.59V110.956ZM1378.46 175.764H1388.59V259.065L1305.29 175.764L1378.46 175.764ZM1130.44 350.61V433.912L1213.74 433.912L1130.44 350.61ZM1045.05 433.912L1128.44 433.912V350.609L1045.05 433.912ZM1127.02 349.196H1043.73V432.399L1127.02 349.196ZM1303.87 260.48V177.178L1387.17 260.48H1303.87ZM1325.78 433.912C1357.01 426.927 1381.6 402.339 1388.59 371.105V433.912L1325.78 433.912ZM1307.59 433.912C1352.32 433.912 1388.59 397.647 1388.59 352.912V349.196H1303.87V433.912H1307.59ZM783.029 238.571V175.764L845.837 175.764C814.603 182.749 790.014 207.337 783.029 238.571ZM867.745 260.48H783.029V256.764C783.029 212.029 819.294 175.764 864.029 175.764H867.745V260.48ZM781.029 260.48L781.029 175.764L739.669 175.764L739.669 260.48L781.029 260.48ZM737.669 260.48L737.669 175.764L696.313 175.764V260.48L737.669 260.48ZM783.029 173.764H812.178C798.303 169.441 787.351 158.489 783.029 144.613V173.764ZM1041.18 303.836V262.48L956.461 262.48V303.836L1041.18 303.836ZM956.461 305.836V347.196H1041.18V305.836L956.461 305.836ZM869.745 173.763H953.047L869.745 90.4619V131.301L869.745 131.406L869.745 131.511V173.763ZM783.029 89.0478V118.198C787.351 104.322 798.303 93.37 812.179 89.0478L783.029 89.0478ZM838.596 89.0478C852.471 93.3699 863.422 104.321 867.745 118.196V89.0479L838.596 89.0478ZM867.745 131.303C867.689 107.957 848.746 89.048 825.387 89.048C801.993 89.048 783.029 108.012 783.029 131.406C783.029 154.799 801.993 173.764 825.387 173.764C848.746 173.764 867.689 154.855 867.745 131.509V131.303ZM867.745 144.615C863.422 158.49 852.471 169.442 838.596 173.764H867.745V144.615ZM954.461 175.764H869.745V260.48H873.532C918.234 260.441 954.461 224.191 954.461 179.48V175.764ZM891.654 260.48L954.461 260.48V197.672C947.476 228.906 922.888 253.495 891.654 260.48ZM960.177 175.764H956.461V260.48H1041.18V256.764C1041.18 212.029 1004.91 175.764 960.177 175.764ZM1041.18 238.571C1034.19 207.337 1009.6 182.749 978.37 175.764L1041.18 175.764V238.571ZM954.461 262.48L873.461 262.48L869.745 262.48V346.569H954.461V262.48ZM867.745 346.569V262.48H783.029V347.196L867.745 347.196V346.569ZM867.745 349.196H784.443L867.745 432.497V349.196ZM956.461 349.196V352.284V433.912L1041.18 433.912V349.196H956.461ZM954.461 433.284V370.477C947.476 401.711 922.888 426.3 891.653 433.284L954.461 433.284ZM873.461 433.284C918.196 433.284 954.461 397.019 954.461 352.284V349.196H869.745V433.284H873.461ZM783.029 433.912L866.331 433.912L783.029 350.61V433.912ZM696.313 430.196V433.912H781.029V349.196H777.313C732.578 349.196 696.313 385.461 696.313 430.196ZM759.121 349.196C727.886 356.181 703.298 380.769 696.313 412.003V349.196L759.121 349.196ZM954.461 89.0476V172.349L871.159 89.0478L954.461 89.0476ZM956.461 89.0476L1039.85 89.0478L956.461 172.351V89.0476ZM1041.17 173.763H957.877L1041.17 90.5603V173.763ZM781.029 345.781V262.48H697.727L781.029 345.781ZM779.615 347.196L696.313 263.894V347.196L779.615 347.196ZM696.313 151.855C703.297 120.621 727.886 96.0324 759.12 89.0477L696.313 89.0476V151.855ZM696.313 170.048C696.313 125.313 732.578 89.0478 777.313 89.0478H781.028V173.764H696.313V170.048ZM260.193 151.161V89.6749L197.692 89.675C228.484 96.5609 252.818 120.556 260.193 151.161ZM260.193 173.764V163.575C256.596 122.165 221.842 89.675 179.499 89.675H175.784V173.764H175.784H260.193ZM260.451 260.48V176.391H175.784V260.48H179.499H260.451ZM260.451 262.48L260.499 262.48V325.287C253.515 294.053 228.926 269.464 197.692 262.48L260.451 262.48ZM347.167 269.035V266.195V262.48L262.5 262.48V347.196H266.215C310 347.196 345.671 312.455 347.167 269.035ZM347.167 347.196V284.605C340.117 315.736 315.57 340.227 284.408 347.196L347.167 347.196ZM262.499 89.6496H291.089C277.65 93.9251 266.989 104.431 262.499 117.773V89.6496ZM262.499 126.807C264.925 106.68 281.465 90.8983 301.931 89.6496H307.17C329.31 91.0005 346.855 109.358 346.909 131.825V132.031C346.858 153.11 331.411 170.571 311.218 173.764H297.883C279.317 170.828 264.763 155.83 262.499 137.049V126.807ZM262.499 146.083C266.841 158.986 276.955 169.236 289.771 173.764H262.499V170.675V146.083ZM262.499 177.227L345.752 260.48L262.499 260.48V177.227ZM349.167 260.48V219.124L433.882 219.124V260.48L349.215 260.48L349.167 260.48ZM349.215 262.48L350.581 262.48H433.882V347.195H430.167C386.382 347.195 350.711 312.455 349.215 269.035V266.195V262.48ZM349.215 284.605C356.265 315.736 380.812 340.227 411.974 347.196L349.215 347.196V284.605ZM86.8824 260.48V219.124L2.16638 219.124V260.48L43.7076 260.48V260.48H44.7076H86.8824ZM2.16638 175.764V217.124L86.8824 217.124V175.764H2.16638ZM2.35168 262.48L43.7076 262.48L43.7077 347.196L2.35168 347.196V262.48ZM45.7076 262.48L87.0677 262.48L87.0676 347.196L45.7077 347.196L45.7076 262.48ZM89.0677 347.196V284.388C96.0525 315.622 120.641 340.211 151.875 347.196L89.0677 347.196ZM89.0677 262.48L173.783 262.48V347.196H170.068C125.333 347.196 89.0677 310.931 89.0677 266.195V262.48ZM175.784 347.196H260.499V343.48C260.499 298.745 224.234 262.48 179.499 262.48H175.784V347.196ZM173.783 260.48V176.391V175.764L89.0677 175.764V260.48H173.783ZM260.499 350.61V433.912L177.198 433.912L260.499 350.61ZM345.801 433.912L262.499 433.912V350.61L345.801 433.912ZM347.215 349.196V432.498L263.914 349.196H347.215ZM175.783 432.498V349.196H259.085L175.783 432.498ZM83.3512 433.912C38.6161 433.912 2.3512 397.647 2.3512 352.912V349.196H87.067V433.912H83.3512ZM694.031 433.912L631.223 433.912C662.458 426.927 687.046 402.338 694.031 371.104V433.912ZM694.031 349.196V352.912C694.031 397.647 657.766 433.912 613.031 433.912H609.315V349.196H694.031ZM433.882 175.764V217.124L349.167 217.124V175.764H433.882ZM347.166 218.124V219.124V259.065L264.387 176.286H304.551H347.166V218.124ZM435.883 347.196H520.599L520.598 262.48L516.883 262.48L516.784 262.48C472.095 262.533 435.883 298.777 435.883 343.48V347.196ZM435.883 325.287C442.867 294.053 467.456 269.465 498.69 262.48L435.883 262.48V325.287ZM435.883 260.48H516.883H520.598V175.764L435.883 175.764V260.48ZM522.599 347.195H526.314C571.049 347.195 607.314 310.931 607.314 266.195V262.48H522.599V347.195ZM607.314 89.0475L524.013 89.0476L607.314 172.349V89.0475ZM610.729 175.764L694.03 259.065V175.764H610.729ZM694.03 92.7636V89.0478H609.315V173.764H613.03C657.765 173.764 694.03 137.499 694.03 92.7636ZM631.223 173.764C662.457 166.779 687.046 142.191 694.03 110.956V173.764H631.223ZM607.314 260.48V175.764L522.599 175.764V260.48H607.314ZM522.598 90.4617V173.763H605.9L522.598 90.4617ZM318.013 89.6496H346.909V118.718C342.613 104.928 331.768 94.0256 318.013 89.6496ZM346.788 87.5698V2.93369L262.072 2.93381V87.5697L346.788 87.5698ZM346.909 173.764V145.137C342.751 158.484 332.458 169.126 319.33 173.764L346.909 173.764ZM564.956 433.911C588.35 433.911 607.314 414.947 607.314 391.554C607.314 368.16 588.35 349.196 564.956 349.196C541.563 349.196 522.599 368.16 522.599 391.554C522.599 414.947 541.563 433.911 564.956 433.911Z" fill="#CCC1A1"/>
</svg>
