<svg width="218" height="353" viewBox="0 0 218 353" fill="none" xmlns="http://www.w3.org/2000/svg">
<path fill-rule="evenodd" clip-rule="evenodd" d="M217.278 0.702637V2.11719V3.11719V88.834V89.834V90.833V171.834L217.278 175.55V176.55V218.906V219.906V263.266L217.278 264.266V349.982V350.982H216.278H129.562H128.562V350.354L47.5619 350.354H43.8463V350.982V352.396L42.432 350.982H-43.8697L-44.8697 350.981H-130.586H-131.586V349.981V345.265V264.265V263.265V262.265L-131.586 177.55L-131.586 176.964L-133 175.55H-131.586L-131.586 90.833H-131.586V89.833V85.1172V3.11719V2.11719H-130.586H-48.5863H-43.8702H-42.8702V3.11719V33.2681C-37.2487 15.2202 -20.4104 2.11816 -0.511871 2.11816C19.3859 2.11816 36.2238 15.2192 41.8459 33.2661V3.11719V0.703125L43.553 2.41016L128.562 87.4189V3.11719V2.11719H129.562H215.864L217.278 0.702637ZM-44.8697 260.851L-128.171 177.55H-44.8697V260.851ZM-42.8697 262.265V177.55H41.8459V261.638V262.265L-42.8697 262.265ZM-86.2298 175.55H-44.8697L-44.8698 90.834H-86.2298L-86.2298 175.55ZM-129.586 175.55H-88.2298L-88.2298 90.834H-129.586V175.55ZM-42.8697 153.641V90.834H19.9377C-11.2964 97.8184 -35.885 122.407 -42.8697 153.641ZM41.8459 175.55H-42.8697V171.834C-42.8697 127.099 -6.60478 90.834 38.1303 90.834H41.8459V175.55ZM130.562 220.906V262.265H215.278V220.906L130.562 220.906ZM215.278 218.906L130.562 218.906V177.55L215.278 177.55V218.906ZM215.278 171.834V175.55H130.562V90.834H134.278C179.013 90.834 215.278 127.099 215.278 171.834ZM43.8459 46.5811L43.846 46.4761L43.8459 46.3706V5.53174L127.148 88.833H43.8459V46.5811ZM41.8459 46.373V46.5786C41.7904 69.9248 22.8474 88.8335 -0.511871 88.8335C-23.9055 88.8335 -42.8697 69.8696 -42.8697 46.4761C-42.8697 23.082 -23.9055 4.11816 -0.511871 4.11816C22.8474 4.11816 41.7904 23.0269 41.8459 46.373ZM41.8459 59.6855V88.8335L38.1303 88.834H12.6966C26.5717 84.5117 37.5235 73.5601 41.8459 59.6855ZM-13.7205 88.834C-27.5961 84.5117 -38.5483 73.5591 -42.8702 59.6836L-42.8698 88.834H-13.7205ZM43.8463 90.8335H128.562V94.5493C128.562 139.284 92.297 175.55 47.5619 175.55H43.8463V90.8335ZM65.7546 175.55C96.9887 168.565 121.577 143.976 128.562 112.742V175.55H65.7546ZM47.5619 177.55H128.562V261.638H43.8463V177.55H47.5619ZM152.471 90.834C183.705 97.8184 208.293 122.407 215.278 153.641V90.834H152.471ZM-41.4555 264.266H41.8459V347.568L-41.4555 264.266ZM130.562 267.354V264.266H215.278V348.982H130.562V267.354ZM128.562 285.547V348.354H65.7545C96.9886 341.369 121.577 316.781 128.562 285.547ZM128.562 267.354C128.562 312.089 92.297 348.354 47.5619 348.354H43.8463V264.265H128.562V267.354ZM40.432 348.982H-42.8697V265.681L40.432 348.982ZM-129.586 348.981V345.265C-129.586 300.531 -93.3208 264.265 -48.5858 264.265H-44.87V348.981H-129.586ZM-129.586 327.073C-122.601 295.839 -98.0125 271.25 -66.7784 264.265H-129.586V327.073ZM-46.2841 262.265L-129.586 262.265V178.964L-46.2841 262.265ZM213.864 4.11719H130.562V87.4185L213.864 4.11719ZM215.278 88.833V5.53125L131.976 88.833H215.278ZM-66.7788 4.11719C-98.013 11.1016 -122.602 35.6904 -129.586 66.9243V4.11719H-66.7788ZM-48.5863 4.11719C-93.3213 4.11719 -129.586 40.3823 -129.586 85.1172V88.833H-44.8705V4.11719H-48.5863Z" fill="#CCC1A1"/>
</svg>
