<svg width="1920" height="438" viewBox="0 0 1920 438" fill="none" xmlns="http://www.w3.org/2000/svg">
    <path fill-rule="evenodd" clip-rule="evenodd"
          d="M162.959 87.8656V85.4514L164.666 87.1585L249.675 172.167V87.8658V86.8658H250.675L336.977 86.8659L338.391 85.4515V86.8659V87.8659V173.578L423.295 173.578H424.295H510.011V88.4891V87.4891H511.011H515.727L596.3 87.489V1.74789V0.747894H597.3L684.016 0.747772H685.016V1.74777V87.3839H685.136V88.3839V131.637L685.136 131.742L685.136 131.847V173.578L771.11 173.578H772.11L856.826 173.578V87.8616V86.8617V85.4474L858.24 86.8617L944.542 86.8616H945.542L1031.26 86.8618H1032.26V87.8618V92.5776V152.982C1040.06 115.236 1073.48 86.8617 1113.54 86.8617H1118.26H1119.26V87.8617V118.013C1124.88 99.9646 1141.72 86.862 1161.61 86.862C1181.51 86.862 1198.35 99.9633 1203.97 118.01V87.8617V86.8617V85.4474L1205.39 86.8617L1290.69 86.8616H1291.69H1292.69L1378.4 86.8617H1379.4V87.8617V173.578V174.578V175.578V256.578V260.294L1464.67 260.294V176.205V175.205V174.578V173.578V170.489V88.489V87.489H1465.67L1547.67 87.4892H1551.38V85.4475L1553.09 87.1546L1638.1 172.164V87.8618L1638.1 86.8618H1639.1H1725.81H1726.81V87.8618V92.5777V151.546C1735.15 114.519 1768.24 86.8623 1807.79 86.8623H1812.5H1813.5V87.8623V118.014C1819.12 99.9652 1835.96 86.8625 1855.86 86.8625C1875.76 86.8625 1892.6 99.9639 1898.22 118.011V87.8622V86.8623V85.4479L1899.63 86.8623L1984.94 86.8622H1985.94H1986.94L2072.24 86.8623L2073.65 85.4479V86.8623V87.8623V173.578V174.578V175.578V256.578L2073.65 260.295V261.295V303.65V304.65V348.01L2073.65 349.01V434.726V435.726H2072.65L1985.94 435.727H1984.94V435.099L1903.94 435.099H1900.22V435.726V437.141L1898.81 435.726H1813.5L1812.5 435.726H1811.5L1725.79 435.726H1724.79V435.726L1643.82 435.726L1640.1 435.726L1639.1 435.726L1638.1 435.726H1553.38V437.14L1551.97 435.726L1466.67 435.726L1465.67 435.726L1464.67 435.726L1379.27 435.726L1377.96 437.038V435.726H1377.95L1291.69 435.726H1290.69V435.098L1209.69 435.098H1205.97V435.726V437.14L1204.56 435.726H1119.26L1118.26 435.726H1117.26L1032.26 435.726V435.726H1031.26L949.258 435.726H944.542L943.542 435.726V434.726V404.575C937.921 422.623 921.083 435.726 901.184 435.726C876.686 435.726 856.826 415.866 856.826 391.368C856.826 366.87 876.686 347.01 901.184 347.01C921.083 347.01 937.921 360.112 943.542 378.16V348.01L943.543 347.01H944.543L1030.54 347.01V262.294V261.991L945.542 176.992V260.294V261.294V262.294V266.01C945.542 311.849 908.381 349.01 862.542 349.01L858.826 349.01H857.826H771.11H770.11L685.443 349.01V434.726V434.726V435.726V437.14L684.029 435.726L598.727 435.726L597.727 435.726L596.727 435.726L511.425 435.726L510.011 437.14V435.726V434.726V434.726V349.01H506.295L425.295 349.01L425.295 349.01V434.726V435.726H424.295H419.579C379.683 435.726 346.362 407.578 338.391 370.058V434.73V435.73H337.391L250.675 435.73H249.675V435.103L168.675 435.102H164.96V435.73V437.144L163.545 435.73H78.2436H78.2433L77.2436 435.73H76.2436L-9.4725 435.73H-10.4725V434.73V430.014V349.014V348.014V347.014V262.298V261.712L-11.8867 260.298H-10.4725V260.298V175.582H-10.473V174.582V169.866V87.8658V86.8658H-9.47299L72.527 86.8659H77.2428H77.2431H78.2428H78.2431V87.8659V118.016C83.8645 99.9683 100.703 86.866 120.601 86.866C140.499 86.866 157.337 99.9673 162.959 118.014V87.8656ZM76.2428 173.582V88.8659H72.527C27.792 88.8659 -8.47299 125.131 -8.47299 169.866V173.582L76.2428 173.582ZM107.393 173.582L78.2436 173.582H78.2431V144.431C82.565 158.307 93.5172 169.26 107.393 173.582ZM78.2436 175.582V238.389C85.2283 207.155 109.817 182.567 141.051 175.582L78.2436 175.582ZM78.2436 260.298H162.959V175.582H159.244C114.508 175.582 78.2436 211.847 78.2436 256.582V260.298ZM-8.4725 175.582V260.298H32.8835L32.8835 175.582H-8.4725ZM34.8835 175.582L34.8835 260.298H76.2436L76.2435 175.582H34.8835ZM-7.05828 262.298L32.8835 262.298H33.8835L76.2436 262.298V345.599L-7.05828 262.298ZM336.392 262.298V303.654L251.675 303.654V262.298L336.392 262.298ZM251.675 347.014V305.654L336.392 305.654V347.014H251.675ZM159.244 173.582L133.81 173.582C147.685 169.26 158.637 158.308 162.959 144.433V173.582H159.244ZM162.959 131.327V131.121C162.904 107.775 143.961 88.866 120.601 88.866C97.2078 88.866 78.2436 107.83 78.2436 131.224C78.2436 154.617 97.2078 173.582 120.601 173.582C143.961 173.582 162.904 154.673 162.959 131.327ZM164.959 173.581V131.329L164.959 131.224L164.959 131.119V90.2798L248.261 173.581H164.959ZM249.675 197.49C242.691 228.724 218.102 253.313 186.868 260.298L249.675 260.298V197.49ZM249.675 179.298V175.582H164.96V260.298H168.675C213.41 260.298 249.675 224.033 249.675 179.298ZM249.675 262.298V346.387H164.96V262.298H168.675H249.675ZM336.391 238.389V175.582L273.584 175.582C304.818 182.567 329.407 207.155 336.391 238.389ZM255.391 175.582H251.675V260.298H336.391V256.582C336.391 211.847 300.126 175.582 255.391 175.582ZM162.959 349.014V432.315L79.6578 349.014H162.959ZM162.959 347.014V346.387V262.298H78.2436V347.014L162.959 347.014ZM186.868 433.102L249.675 433.103V370.295C242.69 401.529 218.102 426.118 186.868 433.102ZM249.675 352.102V349.014H164.96V433.102H168.675C213.41 433.102 249.675 396.837 249.675 352.102ZM251.675 352.102V433.73L336.391 433.73V349.014H251.675V352.102ZM78.2436 350.428V433.73L161.545 433.73L78.2436 350.428ZM54.3349 349.014L-8.4725 349.014V411.821C-1.48779 380.587 23.1008 355.999 54.3349 349.014ZM-8.4725 430.014V433.73H76.2433V349.014H72.5275C27.7924 349.014 -8.4725 385.279 -8.4725 430.014ZM336.391 90.28V173.582L253.089 173.582L336.391 90.28ZM251.675 172.167L334.977 88.8659L251.675 88.8658V172.167ZM74.8292 347.014L-8.4725 263.712V347.014L74.8292 347.014ZM-8.47299 151.673C-1.48828 120.439 23.1003 95.8505 54.3344 88.8658L-8.47299 88.8658V151.673ZM1724.79 169.862V173.578L1662.01 173.578C1693.24 166.593 1717.83 142.004 1724.81 110.77V167.692C1724.8 168.413 1724.79 169.137 1724.79 169.862ZM1724.79 175.578L1724.79 258.852L1641.51 175.578L1724.79 175.578ZM1724.79 262.294V347.01L1683.46 347.01L1683.46 262.294L1724.79 262.294ZM1724.79 349.01V354.87C1723.65 398.614 1687.83 433.726 1643.82 433.726H1640.1V349.01L1724.79 349.01ZM1724.79 430.01V433.726L1662.01 433.726C1693.2 426.75 1717.77 402.218 1724.79 371.043V430.01ZM1807.79 88.8623C1763.77 88.8623 1727.95 123.974 1726.81 167.718V173.578L1811.5 173.578V88.8623H1807.79ZM1768.14 175.578L1726.81 175.578V260.294L1768.14 260.294L1768.14 175.578ZM1810.09 347.01L1726.81 263.736L1726.82 347.01L1810.09 347.01ZM1789.59 349.01L1726.82 349.01V352.726V411.694C1733.84 380.519 1758.4 355.986 1789.59 349.01ZM1807.79 349.01C1763.77 349.01 1727.95 384.122 1726.82 427.866V433.726H1811.5V349.01H1807.79ZM1813.5 173.578L1842.65 173.578C1828.78 169.256 1817.82 158.303 1813.5 144.427V173.578ZM1811.5 260.294H1770.14L1770.14 175.578L1811.5 175.578L1811.5 260.294ZM1813.5 238.386V175.578L1876.31 175.578C1845.08 182.563 1820.49 207.152 1813.5 238.386ZM1898.22 260.294H1813.5V256.578C1813.5 211.843 1849.77 175.578 1894.5 175.578H1898.22V260.294ZM2071.65 303.65V262.295L1986.94 262.294V303.65L2071.65 303.65ZM1986.94 305.65V347.01H2071.65V305.65L1986.94 305.65ZM1869.07 173.578L1894.5 173.578H1898.22V144.43C1893.9 158.305 1882.94 169.256 1869.07 173.578ZM1898.22 131.118V131.323C1898.16 154.669 1879.22 173.578 1855.86 173.578C1832.47 173.578 1813.5 154.614 1813.5 131.22C1813.5 107.827 1832.47 88.8625 1855.86 88.8625C1879.22 88.8625 1898.16 107.771 1898.22 131.118ZM1900.22 131.326V173.578H1983.52L1900.22 90.2764V131.115L1900.22 131.22L1900.22 131.326ZM1922.13 260.294C1953.36 253.31 1977.95 228.721 1984.94 197.487V260.294L1922.13 260.294ZM1984.94 175.579V179.294C1984.94 224.029 1948.67 260.294 1903.94 260.294H1900.22V175.579H1984.94ZM2071.65 175.578V238.386C2064.67 207.152 2040.08 182.563 2008.84 175.578L2071.65 175.578ZM1986.94 175.578H1990.65C2035.39 175.578 2071.65 211.843 2071.65 256.578V260.294H1986.94V175.578ZM1898.22 432.312V349.011H1814.92L1898.22 432.312ZM1898.22 346.383V347.01L1813.5 347.01V262.294H1898.22V346.383ZM1984.94 346.383H1900.22V262.294H1903.94H1984.94V346.383ZM1984.94 433.099L1922.13 433.099C1953.36 426.114 1977.95 401.526 1984.94 370.292V433.099ZM1984.94 349.01V352.099C1984.94 396.834 1948.67 433.099 1903.94 433.099H1900.22V349.01H1984.94ZM1986.94 433.727V352.099V349.011H2071.65V433.726L1986.94 433.727ZM1813.5 433.726V350.424L1896.81 433.726L1813.5 433.726ZM1984.94 88.8622V172.164L1901.63 88.8623L1984.94 88.8622ZM1986.94 88.8622L2070.24 88.8623L1986.94 172.164V88.8622ZM2071.65 90.2764V173.578L1988.35 173.578L2071.65 90.2764ZM1811.5 345.596V262.294H1728.2L1811.5 345.596ZM1638.1 347.01V284.202C1631.11 315.436 1606.53 340.025 1575.29 347.01L1638.1 347.01ZM1638.1 262.294H1553.38V347.01H1557.1C1601.83 347.01 1638.1 310.745 1638.1 266.01V262.294ZM1640.1 347.01L1640.1 262.294L1681.46 262.294L1681.46 347.01L1640.1 347.01ZM1608.95 349.01H1638.1V378.16C1633.78 364.285 1622.83 353.332 1608.95 349.01ZM1468.08 349.01H1551.38V391.263L1551.38 391.368L1551.38 391.473V432.312L1468.08 349.01ZM1638.1 404.575V433.726L1608.95 433.726C1622.82 429.404 1633.78 418.451 1638.1 404.575ZM1553.38 404.577C1557.71 418.452 1568.66 429.404 1582.53 433.726L1553.38 433.726V404.577ZM1595.74 433.726C1572.38 433.726 1553.44 414.817 1553.38 391.47V391.265C1553.44 367.919 1572.38 349.01 1595.74 349.01C1619.13 349.01 1638.1 367.974 1638.1 391.368C1638.1 414.761 1619.13 433.726 1595.74 433.726ZM1582.53 349.01C1568.66 353.332 1557.71 364.284 1553.38 378.158V349.01H1582.53ZM1551.38 347.01H1466.67V343.294C1466.67 298.582 1502.89 262.332 1547.6 262.294H1551.38V347.01ZM1466.67 262.294L1529.47 262.294C1498.24 269.279 1473.65 293.867 1466.67 325.101V262.294ZM1464.67 347.01H1460.95C1416.22 347.01 1379.95 310.745 1379.95 266.01V262.294H1464.67V347.01ZM1442.76 347.01C1411.52 340.025 1386.94 315.436 1379.95 284.202V347.01L1442.76 347.01ZM1547.67 260.294L1466.67 260.294V176.205H1551.38V260.294L1547.67 260.294ZM1553.38 260.294V176.205V175.578L1638.1 175.578V260.294H1553.38ZM1636.68 173.578H1553.38V90.2764L1636.68 173.578ZM1466.67 173.578V170.489C1466.67 125.754 1502.93 89.4892 1547.67 89.4892H1551.38V173.578H1466.67ZM1466.67 152.296C1473.65 121.062 1498.24 96.4738 1529.47 89.4891L1466.67 89.489V152.296ZM1724.81 88.8618V92.5777C1724.81 137.313 1688.55 173.578 1643.81 173.578H1640.1V88.8618H1724.81ZM1466.67 350.424V433.726L1549.97 433.726L1466.67 350.424ZM1381.28 433.726L1464.67 433.726V350.423L1381.28 433.726ZM1463.25 349.01H1379.96V432.213L1463.25 349.01ZM1640.1 176.992V260.294H1723.4L1640.1 176.992ZM596.42 150.975V89.489L533.92 89.4891C564.712 96.3749 589.045 120.37 596.42 150.975ZM596.42 173.578V163.389C592.824 121.979 558.07 89.4891 515.727 89.4891H512.011L512.011 173.578H596.42ZM596.678 260.294V176.205H512.011V260.294H515.727H596.678ZM596.678 262.294L596.727 262.294V325.101C589.742 293.867 565.154 269.278 533.92 262.294L596.678 262.294ZM683.394 268.849V266.009V262.294L598.727 262.294V347.01H602.443C646.228 347.01 681.898 312.269 683.394 268.849ZM683.394 347.01V284.419C676.344 315.55 651.797 340.041 620.636 347.01L683.394 347.01ZM598.727 89.4637H627.316C613.877 93.7392 603.216 104.245 598.727 117.587V89.4637ZM598.727 126.621C601.152 106.494 617.692 90.7124 638.159 89.4637H643.398C665.538 90.8145 683.083 109.172 683.136 131.639V131.845C683.086 152.924 667.639 170.385 647.446 173.578H634.111C615.545 170.642 600.99 155.644 598.727 136.863V126.621ZM598.727 145.897C603.069 158.8 613.182 169.05 625.999 173.578L598.727 173.578V170.489V145.897ZM598.727 177.041L681.98 260.294L598.727 260.294V177.041ZM685.443 262.294L686.808 262.294L734.237 262.294L770.11 262.294V347.009H766.394C722.609 347.009 686.939 312.269 685.443 268.849V266.01V262.294ZM685.443 284.419C692.493 315.55 717.04 340.041 748.203 347.01L685.443 347.01V284.419ZM423.11 260.294V218.938L338.394 218.938V260.294L379.935 260.294H380.935H423.11ZM338.394 175.578V216.938L423.11 216.938V175.578H338.394ZM338.579 262.294L379.935 262.294L379.935 347.01L338.579 347.01V262.294ZM381.935 262.294L423.295 262.294L423.295 347.01L381.935 347.01L381.935 262.294ZM425.295 347.01V284.202C432.28 315.436 456.869 340.025 488.103 347.01L425.295 347.01ZM425.295 262.294L510.011 262.294V347.01H506.295C461.56 347.01 425.295 310.745 425.295 266.01V262.294ZM512.011 347.01H596.727V343.294C596.727 298.559 560.462 262.294 515.727 262.294H512.011V347.01ZM510.011 260.294V176.205V175.578L425.295 175.578V260.294H510.011ZM596.727 350.424V433.726L513.425 433.726L596.727 350.424ZM682.029 433.726L598.727 433.726V350.424L682.029 433.726ZM683.443 349.01V432.312L600.141 349.01H683.443ZM512.011 432.312V349.01H595.313L512.011 432.312ZM419.579 433.726C374.844 433.726 338.579 397.461 338.579 352.726V349.01H423.295V433.726H419.579ZM1030.26 433.726L967.451 433.726C998.685 426.741 1023.27 402.153 1030.26 370.918V433.726ZM1030.26 349.01V352.726C1030.26 397.461 993.993 433.726 949.258 433.726H945.543V349.01H1030.26ZM770.11 175.578V216.938L685.394 216.938V175.578H770.11ZM770.11 218.938L685.394 218.938V260.294L770.11 260.294V218.938ZM683.394 217.938V218.938V258.879L600.614 176.1H640.778H683.394V217.938ZM772.11 347.01H856.826L856.826 262.294L853.11 262.294L853.012 262.294C808.322 262.347 772.11 298.591 772.11 343.294V347.01ZM772.11 325.101C779.095 293.867 803.683 269.279 834.917 262.294L772.11 262.294V325.101ZM772.11 260.294H853.11H856.826V175.578L772.11 175.578V260.294ZM858.826 347.01H862.542C907.277 347.01 943.542 310.745 943.542 266.01V262.294H858.826V347.01ZM943.542 88.8616L860.24 88.8617L943.542 172.163V88.8616ZM1030.26 92.5776V88.8618H945.542V173.578H949.258C993.993 173.578 1030.26 137.313 1030.26 92.5776ZM967.451 173.578C998.685 166.593 1023.27 142.004 1030.26 110.77V173.578L967.451 173.578ZM943.542 260.294V175.578L858.826 175.578V260.294H943.542ZM858.826 90.2758V173.577H942.128L858.826 90.2758ZM946.956 175.578H1030.26V258.879L946.956 175.578ZM654.241 89.4637H683.136V118.532C678.84 104.742 667.995 93.8397 654.241 89.4637ZM683.016 87.3839V2.74777L598.3 2.74789V87.3838L683.016 87.3839ZM683.136 173.578V144.951C678.978 158.298 668.686 168.94 655.558 173.578L683.136 173.578ZM901.184 433.726C924.578 433.726 943.542 414.761 943.542 391.368C943.542 367.974 924.578 349.01 901.184 349.01C877.79 349.01 858.826 367.974 858.826 391.368C858.826 414.761 877.79 433.726 901.184 433.726ZM1203.97 260.294H1119.26V256.578C1119.26 211.843 1155.52 175.578 1200.26 175.578H1203.97V260.294ZM1182.06 175.578C1150.83 182.563 1126.24 207.151 1119.26 238.385V175.578L1182.06 175.578ZM1148.41 173.578L1119.26 173.578L1119.26 144.427C1123.58 158.303 1134.53 169.255 1148.41 173.578ZM1073.9 175.578L1032.54 175.578V260.294L1073.9 260.294L1073.9 175.578ZM1075.9 260.294L1117.26 260.294L1117.26 175.578L1075.9 175.578L1075.9 260.294ZM1292.69 305.65V347.01H1377.4V305.65L1292.69 305.65ZM1377.4 303.65L1292.69 303.65V262.294L1377.4 262.294V303.65ZM1205.97 131.325L1205.97 131.22L1205.97 131.115V90.2758L1289.27 173.577H1205.97V131.325ZM1203.97 131.117V131.323C1203.92 154.669 1184.97 173.578 1161.61 173.578C1138.22 173.578 1119.26 154.613 1119.26 131.22C1119.26 107.826 1138.22 88.862 1161.61 88.862C1184.97 88.862 1203.92 107.771 1203.97 131.117ZM1203.97 144.429V173.578H1200.26L1174.82 173.578C1188.7 169.256 1199.65 158.304 1203.97 144.429ZM1205.97 175.578H1290.69V179.294C1290.69 224.005 1254.46 260.255 1209.76 260.294H1205.97V175.578ZM1290.69 260.294L1227.88 260.294C1259.12 253.309 1283.7 228.72 1290.69 197.486V260.294ZM1292.69 175.578H1296.4C1341.14 175.578 1377.4 211.843 1377.4 256.578V260.294H1292.69V175.578ZM1314.6 175.578C1345.83 182.563 1370.42 207.151 1377.4 238.385V175.578L1314.6 175.578ZM1209.69 262.294L1290.69 262.294V346.383H1205.97V262.294L1209.69 262.294ZM1203.97 262.294V346.383V347.009L1119.26 347.01V262.294H1203.97ZM1120.67 349.01H1203.97V432.311L1120.67 349.01ZM1292.69 352.098V349.01H1377.4V433.726L1292.69 433.726V352.098ZM1290.69 370.291V433.098L1227.88 433.098C1259.12 426.114 1283.7 401.525 1290.69 370.291ZM1290.69 352.098C1290.69 396.833 1254.42 433.098 1209.69 433.098H1205.97V349.009H1290.69V352.098ZM1202.56 433.726L1119.26 433.726V350.424L1202.56 433.726ZM1032.54 433.726V430.01C1032.54 385.275 1068.81 349.01 1113.54 349.01H1117.26V433.726H1032.54ZM1032.54 411.817C1039.53 380.583 1064.11 355.994 1095.35 349.01L1032.54 349.01V411.817ZM1207.39 88.8617L1290.69 88.8616V172.163L1207.39 88.8617ZM1292.69 173.578V88.8616L1377.4 88.8617V173.578H1292.69ZM1117.26 345.595V262.294H1033.96L1117.26 345.595ZM1115.84 347.009L1032.54 263.708V347.01L1115.84 347.009ZM1113.54 88.8617C1068.81 88.8617 1032.54 125.127 1032.54 169.862V173.578H1117.26V88.8617H1113.54Z"
          fill="#CCC1A1"/>
</svg>
