<svg width="134" height="636" viewBox="0 0 134 636" fill="none" xmlns="http://www.w3.org/2000/svg">
<path fill-rule="evenodd" clip-rule="evenodd" d="M131.08 1039.61H133.494L131.787 1037.9L46.7786 952.89H131.08H132.08V951.89L132.08 865.589L133.494 864.174H132.08H131.08H45.3679L45.368 779.27V778.27L45.368 692.555H130.457H131.457V692.554V691.555V691.554V686.838L131.457 606.145H131.562V605.145L131.562 518.429V517.429H130.562H87.3091L87.2039 517.429L87.0987 517.429H45.3679L45.3681 431.455V430.455H45.3678L45.3678 345.74H131.084H132.084H133.498L132.084 344.325L132.084 258.024V257.024L132.084 171.307V170.307H131.084H126.368H65.9638C103.71 162.509 132.084 129.081 132.084 89.0251V84.3093V83.3093H131.084H100.933C118.981 77.688 132.084 60.8495 132.084 40.9507C132.084 21.0529 118.982 4.21506 100.936 -1.40701H131.084H132.084H133.498L132.084 -2.82138L132.084 -88.1231V-89.1231V-90.1231L132.084 -175.839V-176.839H131.084H45.368H44.3683H43.3683H-37.6321H-41.3481L-41.3479 -262.102H42.7408H43.7408H44.3678H45.3678H48.4566H130.457H131.457V-263.102L131.457 -345.102V-348.817H133.498L131.791 -350.524L46.7821 -435.533H131.084L132.084 -435.533V-436.533V-523.249V-524.249H131.084H126.368H67.4002C104.427 -532.589 132.084 -565.676 132.084 -605.221V-609.937V-610.937H131.084H100.932C118.981 -616.559 132.083 -633.397 132.083 -653.296C132.083 -673.194 118.982 -690.032 100.935 -695.654H131.084H132.084H133.498L132.084 -697.068L132.084 -782.37V-783.37V-784.37L132.084 -869.671L133.498 -871.086H132.084H131.084H45.3675H44.3675H43.3678H-37.6327L-41.3487 -871.086H-42.3487H-84.7046H-85.7046H-129.064L-130.064 -871.086H-215.781H-216.781V-870.086L-216.781 -783.37V-782.37H-216.153L-216.153 -701.37V-697.654H-216.78H-218.195L-216.78 -696.24V-610.938L-216.781 -609.938V-608.938L-216.78 -523.222V-522.222H-216.78L-216.78 -441.25L-216.78 -437.534L-216.78 -436.534L-216.78 -435.534L-216.78 -350.818H-218.194L-216.78 -349.403L-216.78 -264.102L-216.78 -263.102L-216.78 -262.102L-216.78 -176.708L-218.092 -175.395H-216.78V-175.386L-216.78 -89.1231V-88.1231H-216.153L-216.153 -7.12308V-3.4075H-216.78H-218.194L-216.78 -1.99319L-216.78 83.3086L-216.78 84.3086V85.3086L-216.78 170.307H-216.78V171.307L-216.78 253.307V258.023L-216.78 259.023H-215.78H-185.629C-203.677 264.645 -216.78 281.483 -216.78 301.381C-216.78 325.88 -196.92 345.739 -172.422 345.739C-147.924 345.739 -128.064 325.88 -128.064 301.381C-128.064 281.483 -141.166 264.645 -159.214 259.023H-129.064L-128.064 259.023V258.023L-128.064 172.025H-43.3478H-43.045L41.9538 257.024H-41.3479H-42.348H-43.348H-47.0637C-92.9034 257.024 -130.064 294.184 -130.064 340.024L-130.064 343.739V344.739V431.455V432.455L-130.064 436.171L-130.064 517.122H-215.78H-215.78H-216.78H-218.194L-216.78 518.537L-216.78 603.838L-216.78 604.838L-216.78 605.838L-216.78 691.14L-218.194 692.555H-216.78H-215.78H-215.78H-130.064V696.27L-130.064 777.27V777.27H-130.064V777.271H-215.78H-216.78V778.271V782.987C-216.78 822.882 -188.632 856.203 -151.113 864.174H-215.784H-216.784V865.174L-216.784 951.89V952.89H-216.157L-216.157 1033.89V1037.61H-216.784H-218.198L-216.784 1039.02V1124.32V1124.32L-216.784 1125.32V1126.32L-216.784 1212.04V1213.04H-215.784H-211.068H-130.068H-129.068H-128.068H-43.3518H-42.7662L-41.352 1214.45L-41.3519 1213.04H43.3642V1213.04H44.3642H49.08H131.08H132.08V1212.04L132.08 1130.04V1125.32V1125.32V1124.32V1124.32H131.08H100.93C118.978 1118.7 132.08 1101.86 132.08 1081.96C132.08 1062.07 118.978 1045.23 100.932 1039.61H131.08ZM45.3641 1124.32V1124.32H74.5144C60.6386 1120 49.6862 1109.05 45.364 1095.17L45.3641 1124.32ZM43.3641 1211.04L43.364 1169.68L-41.3519 1169.68L-41.3518 1211.04H43.3641ZM-41.3519 1126.32L-41.352 1167.68L43.3641 1167.68L43.364 1126.32L-41.3519 1126.32ZM43.364 1124.32H-19.4434C11.7907 1117.34 36.3792 1092.75 43.3639 1061.51L43.364 1124.32ZM-41.3519 1124.32V1039.61H43.3639V1043.32C43.3639 1088.06 7.09894 1124.32 -37.6361 1124.32H-41.3519ZM-43.3521 866.174H-84.708L-84.708 950.89H-43.352L-43.3521 866.174ZM-128.068 950.89H-86.708L-86.708 866.174H-128.068L-128.068 950.89ZM45.3639 1043.32L45.3639 1068.76C49.6859 1054.88 60.6375 1043.93 74.5124 1039.61H45.3639V1043.32ZM87.6192 1039.61H87.8248C111.171 1039.66 130.08 1058.6 130.08 1081.96C130.08 1105.36 111.116 1124.32 87.722 1124.32C64.3284 1124.32 45.3641 1105.36 45.3641 1081.96C45.3641 1058.6 64.2728 1039.66 87.6192 1039.61ZM45.3643 1037.61H87.6168L87.722 1037.61L87.8271 1037.61H128.666L45.3643 954.304V1037.61ZM21.4554 952.89C-9.77866 959.875 -34.3672 984.463 -41.3519 1015.7L-41.352 952.89H21.4554ZM39.6481 952.89H43.3639V1037.61H-41.3519V1033.89C-41.3519 989.155 -5.08696 952.89 39.6481 952.89ZM-43.3519 952.89H-127.441V1037.61H-43.3519V1033.89L-43.3519 952.89ZM-19.4434 866.174H43.364L43.3639 928.982C36.3792 897.747 11.7907 873.159 -19.4434 866.174ZM43.3639 947.174V950.89H-41.352V866.174H-37.6361C7.09894 866.174 43.3639 902.439 43.3639 947.174ZM-130.068 1039.61H-213.369L-130.068 1122.91V1039.61ZM-128.068 1039.61H-127.441H-43.3519V1124.32H-128.068L-128.068 1039.61ZM-214.157 1015.7L-214.157 952.89H-151.349C-182.583 959.875 -207.172 984.464 -214.157 1015.7ZM-133.157 952.89H-130.068V1037.61H-214.157V1033.89C-214.157 989.155 -177.892 952.89 -133.157 952.89ZM-133.157 950.89H-214.784L-214.784 866.174H-130.068L-130.068 950.89H-133.157ZM-131.482 1124.32H-214.784L-214.784 1041.02L-131.482 1124.32ZM-130.068 1148.23L-130.068 1211.04H-192.875C-161.641 1204.05 -137.053 1179.46 -130.068 1148.23ZM-211.068 1211.04H-214.784V1126.32H-130.068V1130.04C-130.068 1174.77 -166.333 1211.04 -211.068 1211.04ZM128.666 866.174H45.3642L45.3643 949.476L128.666 866.174ZM46.7786 950.89L130.08 867.589L130.08 950.89H46.7786ZM-126.654 1126.32H-43.352V1209.62L-126.654 1126.32ZM-128.068 1127.74L-44.7662 1211.04H-128.068L-128.068 1127.74ZM67.2728 1211.04C98.5069 1204.05 123.095 1179.47 130.08 1148.23L130.08 1211.04H67.2728ZM49.08 1211.04C93.8151 1211.04 130.08 1174.77 130.08 1130.04V1126.32H45.3642V1211.04H49.08ZM49.0835 -522.221H45.368L45.3681 -459.442C52.3528 -490.676 76.9413 -515.265 108.175 -522.249H51.2542C50.5329 -522.231 49.8093 -522.221 49.0835 -522.221ZM43.3677 -522.221L-39.9064 -522.222L43.3678 -438.948L43.3677 -522.221ZM-43.3484 -522.222H-128.064L-128.064 -480.893L-43.3481 -480.893L-43.3484 -522.222ZM-130.064 -522.222H-135.924C-179.668 -521.085 -214.78 -485.268 -214.78 -441.25V-437.534H-130.064L-130.064 -522.222ZM-211.065 -522.222H-214.78L-214.78 -459.442C-207.805 -490.635 -183.272 -515.2 -152.097 -522.222H-211.065ZM130.084 -605.221C130.084 -561.203 94.9717 -525.386 51.2278 -524.249H45.3679L45.3677 -608.937H130.084V-605.221ZM43.3675 -565.578L43.368 -524.249H-41.3481L-41.3484 -565.578L43.3675 -565.578ZM-128.064 -607.524L-44.7901 -524.249L-128.064 -524.25L-128.064 -607.524ZM-130.065 -587.029L-130.064 -524.25H-133.78H-192.748C-161.573 -531.272 -137.04 -555.837 -130.065 -587.029ZM-130.065 -605.222C-130.065 -561.204 -165.176 -525.387 -208.92 -524.25H-214.78V-608.938H-130.065V-605.222ZM45.3676 -610.937L45.3674 -640.087C49.6898 -626.211 60.6425 -615.259 74.5186 -610.937H45.3676ZM-41.3485 -567.578L-41.3484 -608.938L43.3675 -608.938L43.3676 -567.578L-41.3485 -567.578ZM-19.44 -610.938H43.3675L43.3674 -673.746C36.3827 -642.511 11.7941 -617.923 -19.44 -610.938ZM-41.3484 -695.654V-610.938H-37.6327C7.10242 -610.938 43.3673 -647.203 43.3673 -691.938V-695.654H-41.3484ZM-84.7046 -869.086H-43.3487L-43.3485 -784.37H-84.7045L-84.7046 -869.086ZM-86.7045 -784.37H-128.064V-869.086H-86.7046L-86.7045 -784.37ZM45.3674 -666.504L45.3673 -691.938V-695.654H74.5159C60.641 -691.331 49.6894 -680.379 45.3674 -666.504ZM87.8282 -695.654H87.6227C64.2763 -695.598 45.3676 -676.655 45.3676 -653.296C45.3676 -629.902 64.3318 -610.938 87.7254 -610.938C111.119 -610.938 130.083 -629.902 130.083 -653.296C130.083 -676.655 111.175 -695.598 87.8282 -695.654ZM87.6202 -697.654H45.3678V-780.955L128.669 -697.654H87.8306L87.7254 -697.654L87.6202 -697.654ZM-41.3484 -719.562C-34.3637 -750.796 -9.77518 -775.385 21.4589 -782.37H-41.3485L-41.3484 -719.562ZM43.3674 -782.37H39.6516C-5.08348 -782.37 -41.3484 -746.105 -41.3484 -701.37V-697.654H43.3674V-782.37ZM-127.437 -782.37H-43.3484V-701.37V-697.654H-127.437L-127.437 -782.37ZM43.3675 -869.086H-19.44C11.7941 -862.101 36.3827 -837.512 43.3674 -806.278L43.3675 -869.086ZM43.3673 -784.37V-788.086C43.3673 -832.821 7.10242 -869.086 -37.6327 -869.086H-41.3485V-784.37H43.3673ZM-213.366 -695.654H-130.065V-612.352L-213.366 -695.654ZM-127.437 -695.654H-128.064L-128.064 -610.938H-43.3484V-695.654H-127.437ZM-214.153 -782.37L-214.153 -719.562C-207.168 -750.796 -182.58 -775.385 -151.346 -782.37H-214.153ZM-130.064 -782.37H-133.153C-177.888 -782.37 -214.153 -746.105 -214.153 -701.37V-697.654H-130.064V-782.37ZM-214.781 -784.37H-133.153H-130.065V-869.086H-214.781L-214.781 -784.37ZM-214.781 -610.938H-131.479L-214.78 -694.24L-214.781 -610.938ZM130.084 -782.37H46.782L130.084 -699.068L130.084 -782.37ZM130.084 -784.37L130.084 -867.671L46.782 -784.37H130.084ZM128.669 -869.086H45.3677L45.3678 -785.784L128.669 -869.086ZM-126.65 -608.938H-43.3485V-525.636L-126.65 -608.938ZM-128.064 -435.533H-65.2565C-96.4906 -428.548 -121.079 -403.96 -128.064 -372.726L-128.064 -435.533ZM-43.3481 -435.533L-43.3481 -350.818H-128.064V-354.533C-128.064 -399.268 -91.7989 -435.533 -47.0638 -435.533H-43.3481ZM-128.064 -437.533L-43.3481 -437.533L-43.348 -478.893L-128.064 -478.893L-128.064 -437.533ZM-130.064 -406.385V-435.534H-159.214C-145.339 -431.212 -134.386 -420.26 -130.064 -406.385ZM-130.064 -265.516L-130.064 -348.818H-172.317L-172.422 -348.818L-172.527 -348.818H-213.366L-130.064 -265.516ZM-185.629 -435.534H-214.78L-214.78 -406.384C-210.458 -420.26 -199.505 -431.212 -185.629 -435.534ZM-185.631 -350.818C-199.506 -355.14 -210.458 -366.092 -214.78 -379.967L-214.78 -350.818H-185.631ZM-214.78 -393.175C-214.78 -369.816 -195.871 -350.873 -172.525 -350.818H-172.319C-148.973 -350.873 -130.064 -369.816 -130.064 -393.175C-130.064 -416.569 -149.028 -435.533 -172.422 -435.533C-195.815 -435.533 -214.78 -416.569 -214.78 -393.175ZM-130.064 -379.966C-134.386 -366.091 -145.338 -355.14 -159.212 -350.818H-130.064V-379.966ZM-128.064 -348.817L-128.064 -264.102H-124.348C-79.6367 -264.102 -43.3865 -300.328 -43.3481 -345.03V-348.817H-128.064ZM-43.3479 -264.102L-43.3481 -326.909C-50.3328 -295.675 -74.9213 -271.086 -106.155 -264.102H-43.3479ZM-128.064 -262.101V-258.386C-128.064 -213.65 -91.7989 -177.386 -47.0638 -177.386H-43.348V-262.101H-128.064ZM-128.064 -240.193C-121.079 -208.959 -96.4906 -184.37 -65.2565 -177.386H-128.064L-128.064 -240.193ZM-41.348 -345.102L-41.3481 -264.102H42.7408V-348.817H-41.3481L-41.348 -345.102ZM-41.3481 -350.818H42.7408H43.3678L43.3679 -435.533H-41.3481L-41.3481 -350.818ZM45.3683 -434.119V-350.818H128.669L45.3683 -434.119ZM45.3678 -264.102H48.4566C93.1917 -264.102 129.457 -300.366 129.457 -345.102V-348.817H45.3678V-264.102ZM66.6494 -264.102C97.8835 -271.086 122.472 -295.675 129.457 -326.909L129.457 -264.102H66.6494ZM130.084 -522.249H126.368C81.6331 -522.249 45.3681 -485.984 45.3681 -441.249V-437.533H130.084V-522.249ZM-131.478 -264.102H-214.78L-214.78 -347.403L-131.478 -264.102ZM-214.78 -178.711L-214.78 -262.102H-131.477L-214.78 -178.711ZM-130.064 -260.686V-177.395H-213.267L-130.064 -260.686ZM41.9537 -437.533H-41.3479V-520.835L41.9537 -437.533ZM67.9706 606.145H129.457L129.457 668.646C122.571 637.854 98.5755 613.52 67.9706 606.145ZM45.3678 606.145H55.5567C96.9668 609.741 129.457 644.496 129.457 686.838V690.554H45.3678V690.554V606.145ZM-41.348 605.887H42.7409V690.554H-41.348V686.838V605.887ZM-43.3479 605.887L-43.3479 605.838H-106.155C-74.9212 612.823 -50.3327 637.412 -43.348 668.646L-43.3479 605.887ZM-49.9029 519.171H-47.0637H-43.348L-43.3479 603.838H-128.064V600.122C-128.064 556.338 -93.3232 520.667 -49.9029 519.171ZM-128.064 519.171H-65.4734C-96.6044 526.221 -121.095 550.768 -128.064 581.93L-128.064 519.171ZM129.562 603.838L129.562 574.996C125.339 588.554 114.785 599.321 101.359 603.838H129.562ZM92.3248 603.838C113.304 601.31 129.562 583.447 129.562 561.787C129.562 538.428 110.653 519.485 87.3067 519.429H87.1011C66.0221 519.479 48.5606 534.926 45.3678 555.119V568.454C48.3034 587.021 63.3015 601.575 82.083 603.838H92.3248ZM73.0489 603.838C60.1458 599.497 49.8955 589.383 45.3678 576.566L45.3678 603.838H48.4567H73.0489ZM41.9048 603.838L-41.3479 520.585L-41.3479 603.838H41.9048ZM-41.3479 517.171H0.00816345L0.00810242 432.455H-41.3479L-41.3479 517.122L-41.3479 517.171ZM-43.348 517.122L-43.3479 515.757V432.455H-128.064V436.171C-128.064 479.956 -93.3232 515.627 -49.9029 517.122H-47.0638H-43.348ZM-65.4734 517.122C-96.6044 510.073 -121.095 485.526 -128.064 454.364L-128.064 517.122H-65.4734ZM-41.3479 779.455H0.00787354L0.00793457 864.171H-41.348L-41.3481 822.63H-41.3479V821.63V779.455ZM43.3679 864.171H2.00793L2.00789 779.455H43.3679V864.171ZM-43.3481 863.986L-43.348 822.63L-128.064 822.63L-128.064 863.986H-43.3481ZM-43.3479 820.63L-43.348 779.27L-128.064 779.27L-128.064 820.63L-43.3479 820.63ZM-128.064 777.27H-65.2565C-96.4906 770.285 -121.079 745.697 -128.064 714.463L-128.064 777.27ZM-43.3479 777.27L-43.348 692.555H-128.064V696.27C-128.064 741.005 -91.7988 777.27 -47.0638 777.27H-43.3479ZM-128.064 690.554L-128.064 605.838H-124.348C-79.6129 605.838 -43.348 642.103 -43.348 686.838V690.554H-128.064ZM-41.348 692.555H42.7409H43.3678L43.368 777.27H-41.348V692.555ZM-131.478 605.838H-214.78L-214.78 689.14L-131.478 605.838ZM-214.78 520.537L-214.78 603.838H-131.478L-214.78 520.537ZM-130.064 519.122H-213.366L-130.064 602.424V519.122ZM-213.366 690.555H-130.064L-130.064 607.253L-213.366 690.555ZM-214.78 782.987C-214.78 827.722 -178.515 863.987 -133.78 863.987H-130.064V779.271H-214.78V782.987ZM-214.78 172.307L-214.78 235.114C-207.795 203.88 -183.207 179.292 -151.973 172.307H-214.78ZM-130.064 172.307H-133.78C-178.515 172.307 -214.78 208.572 -214.78 253.307V257.023H-130.064V172.307ZM0.00816345 519.171H-39.9335L42.8461 601.951V561.787V519.171H1.00816H0.00816345ZM43.3681 432.455H2.0081L2.00816 517.171H43.3681V432.455ZM-43.3479 430.455H-106.155C-74.9213 423.47 -50.3328 398.882 -43.348 367.648L-43.3479 430.455ZM-124.348 430.455H-128.064V345.739L-43.348 345.74L-43.348 349.455L-43.348 349.553C-43.4011 394.243 -79.6457 430.455 -124.348 430.455ZM-41.348 430.455H43.3678L43.368 345.74H-41.348V349.455V430.455ZM-128.064 343.739H-43.348V259.024H-47.0637C-91.7988 259.024 -128.064 295.288 -128.064 340.024V343.739ZM46.7826 259.024H130.084L130.084 342.325L46.7826 259.024ZM45.3682 235.115L45.3681 172.307H108.175C76.9414 179.292 52.3528 203.881 45.3682 235.115ZM126.368 172.307H130.084V257.023H45.3682V253.307C45.3682 208.572 81.6331 172.307 126.368 172.307ZM-41.3479 259.024V343.739H43.3678L43.3679 259.024H-41.3479ZM45.3684 343.74H128.67L45.3684 260.438V343.74ZM43.368 172.307V255.609L-39.9336 172.307H43.368ZM73.9944 519.429H45.3679L45.3679 547.007C50.0056 533.88 60.6475 523.587 73.9944 519.429ZM100.413 519.429C114.288 523.752 125.24 534.703 129.562 548.578L129.562 519.429H100.413ZM-214.78 301.381C-214.78 277.988 -195.815 259.024 -172.422 259.024C-149.028 259.024 -130.064 277.988 -130.064 301.381C-130.064 324.775 -149.028 343.739 -172.422 343.739C-195.815 343.739 -214.78 324.775 -214.78 301.381ZM-41.3478 -1.40701L-41.3478 83.3086H-37.6321C7.10297 83.3086 43.3679 47.0436 43.3679 2.30856V-1.40701H-41.3478ZM43.3679 20.5011C36.3833 51.7352 11.7947 76.3238 -19.4394 83.3086H43.368L43.3679 20.5011ZM45.368 54.1593L45.368 83.3086L45.3681 83.3093H74.5192C60.6431 78.9875 49.6903 68.0352 45.368 54.1593ZM43.3681 128.669L43.3681 170.025H-41.3478L-41.3478 128.669L43.3681 128.669ZM-41.3479 126.669L-41.3478 85.3086L43.368 85.3086L43.3681 126.669L-41.3479 126.669ZM-86.7039 -90.1233H-128.064V-174.839H-86.704L-86.7039 -90.1233ZM-84.704 -174.839L-84.7039 -90.1233H-43.348L-43.3481 -174.839H-84.704ZM87.6208 -3.40701L87.726 -3.40714L87.8312 -3.40701H128.67L45.3684 -86.7089V-3.40701H87.6208ZM87.8288 -1.40701H87.6232C64.2769 -1.35159 45.3681 17.5914 45.3681 40.9507C45.3681 64.3443 64.3324 83.3086 87.726 83.3086C111.12 83.3086 130.084 64.3443 130.084 40.9507C130.084 17.5914 111.175 -1.35159 87.8288 -1.40701ZM74.5164 -1.40701H45.3679V2.30856L45.3679 27.7422C49.69 13.8672 60.6416 2.91531 74.5164 -1.40701ZM43.368 -3.4075V-88.1231H39.6521C-5.05923 -88.1231 -41.3094 -51.8966 -41.3478 -7.19418V-3.4075H43.368ZM-41.348 -88.1231L-41.3478 -25.3159C-34.3631 -56.55 -9.77458 -81.1385 21.4594 -88.1231H-41.348ZM43.3679 -90.1233V-93.8391C43.3679 -138.574 7.10297 -174.839 -37.6321 -174.839H-41.3479V-90.1233H43.3679ZM43.3679 -112.032C36.3833 -143.266 11.7947 -167.854 -19.4394 -174.839H43.368L43.3679 -112.032ZM-43.3479 -7.12308L-43.3478 -88.1231H-127.437L-127.437 -3.4075H-43.3478L-43.3479 -7.12308ZM-43.3478 -1.40701H-127.437H-128.064L-128.064 83.3086H-43.3478L-43.3478 -1.40701ZM-130.064 81.8943V-1.40701H-213.365L-130.064 81.8943ZM-133.153 -90.1231H-130.064V-174.839H-214.78L-214.78 -90.1231H-133.153ZM-151.345 -88.1231H-214.153L-214.153 -25.3157C-207.168 -56.5498 -182.579 -81.1384 -151.345 -88.1231ZM-133.153 -88.1231C-177.888 -88.1231 -214.153 -51.8582 -214.153 -7.12308V-3.4075H-130.064L-130.064 -88.1231H-133.153ZM-214.78 0.00680542L-214.78 83.3086H-131.478L-214.78 0.00680542ZM-214.78 170.025H-211.064C-166.329 170.025 -130.064 133.76 -130.064 89.0246V85.3088H-214.78V170.025ZM-192.871 170.025C-161.637 163.04 -137.049 138.451 -130.064 107.217L-130.064 170.025H-192.871ZM130.084 -4.82138L130.084 -88.1231H46.7826L130.084 -4.82138ZM45.3683 -90.1231H130.084L130.084 -174.839H45.3683V-90.1231ZM-126.65 85.3086H-43.348V168.61L-126.65 85.3086ZM-128.064 86.7229L-44.7622 170.025H-128.064L-128.064 86.7229ZM130.084 89.0251C130.084 133.76 93.8192 170.025 49.0841 170.025H45.3683V85.3093H130.084V89.0251Z" fill="#CCC1A1"/>
</svg>
