<svg width="133" height="34" viewBox="0 0 133 34" fill="none" xmlns="http://www.w3.org/2000/svg">
<path fill-rule="evenodd" clip-rule="evenodd" d="M88.2367 0.49102V0.322698H97.3797V1.98989H89.3541L81.1088 18.4293L72.0302 0.322698H73.8979L81.1088 14.7049L88.2367 0.49102ZM68.9298 5.08648L81.1088 29.3756C83.7322 24.1469 86.3556 18.9156 88.9763 13.6869L89.038 13.5667H89.0996V13.564H90.769V13.5667H90.9057L90.769 13.8365V31.1523H95.7103V6.88993H97.3797V32.8168H89.0996V17.1682C86.5003 22.3488 83.9037 27.5267 81.3071 32.7073L81.1088 33.1001L73.2039 17.3339V32.8168H71.5344V14.0075L67.0621 5.08648H39.5554V12.3403H41.198L41.2382 6.71359H66.5905V32.8168H64.921V8.3781H42.905L42.8674 12.3403H52.6643V14.0049H34.5766V8.39146H19.5142V32.8088H17.8421V8.39146H16.2048V32.8062H14.5354V8.39146H12.8955V32.8088H11.226V8.39146H0.547607V6.72427H0.767339C5.35759 6.72427 9.94517 6.72427 14.5354 6.72427V5.08648H0.547607V3.42196H0.767339C11.419 3.42196 22.0706 3.42196 32.7223 3.42196H32.942V5.08648H16.2048V6.72427C22.3279 6.72427 28.4536 6.72427 34.5766 6.72427V1.78683H0.547607V0.122314L64.8031 0.127658H66.4431H66.6655L66.5556 0.349415L68.0938 3.41929H71.7729L81.1088 22.0389L88.7057 6.88993H90.5734L81.1088 25.7634L70.7412 5.08648H68.9298ZM65.4087 1.78683H36.246V12.3403H37.886V3.41929H66.226L65.4087 1.78683ZM41.1953 20.5988H39.5554V27.8527H58.8596V29.5172H37.886V20.5988H36.246V31.1523H58.857V32.8168H34.5766V18.9343H37.886V15.6347H52.6643V17.3018H39.5554V18.9343H52.6643V20.5988H42.8648V24.5611H58.8596V26.2256H41.1953V20.5988ZM105.111 3.41394H129.171V32.8115H127.499V5.08113H105.111V32.8115H103.441V5.08113H93.931V29.5466H92.2616V3.41394H103.441V0.127658H129.171V1.79217H105.111V3.41394ZM106.748 6.7216H108.42V32.8115H106.748V6.7216ZM130.808 0.127658H132.478V32.8115H130.808V0.127658ZM69.8971 32.8168H68.225V15.6347H69.8971V32.8168ZM124.342 8.38078H111.877V32.8168H110.205V6.71626H126.009L126.012 32.8168H124.342V8.38078Z" fill="#FEFEFE"/>
</svg>
